<?xml version="1.0" encoding="UTF-8"?>
<svg xmlns="http://www.w3.org/2000/svg" viewBox="0 0 800 600">
  <defs>
    <marker id="arrowD01" markerWidth="10" markerHeight="7" refX="10" refY="3.5" orient="auto">
      <polygon points="0 0, 10 3.5, 0 7" fill="#666666" />
    </marker>
</defs>

  
  <rect width="800" height="600" fill="#FAFAF8" rx="8" />
  <rect x="20" y="20" width="760" height="560" fill="none" stroke="#E0DDD8" stroke-width="1" rx="6" />

  
  <text x="400" y="60" text-anchor="middle"  font-family="'Inter', 'Helvetica Neue', sans-serif" font-size="24px" fill="#2C2C2C" font-weight="bold">D01 Mathematics - Structural correspondence diagram with 5-stage model</text>

  
  
  <rect x="50" y="100" width="120" height="70" rx="8" fill="#8B8682" />
  <text x="110" y="130" text-anchor="middle"  font-family="'Inter', 'Helvetica Neue', sans-serif" font-size="14px" fill="#FAFAF8" font-weight="bold">Field</text>
  <text x="110" y="148" text-anchor="middle"  font-family="'Inter', 'Helvetica Neue', sans-serif" font-size="11px" fill="#FAFAF8">Field</text>

  
  <line x1="170" y1="135" x2="195" y2="135" stroke="#666666" stroke-width="2" marker-end="url(#arrowD01)" />

  
  <rect x="200" y="100" width="120" height="70" rx="8" fill="#5B8DB8" />
  <text x="260" y="130" text-anchor="middle"  font-family="'Inter', 'Helvetica Neue', sans-serif" font-size="14px" fill="#FAFAF8" font-weight="bold">Wave</text>
  <text x="260" y="148" text-anchor="middle"  font-family="'Inter', 'Helvetica Neue', sans-serif" font-size="11px" fill="#FAFAF8">Wave</text>

  
  <line x1="320" y1="135" x2="345" y2="135" stroke="#666666" stroke-width="2" marker-end="url(#arrowD01)" />

  
  <rect x="350" y="100" width="120" height="70" rx="8" fill="#D4A857" />
  <text x="410" y="130" text-anchor="middle"  font-family="'Inter', 'Helvetica Neue', sans-serif" font-size="14px" fill="#FAFAF8" font-weight="bold">Edge</text>
  <text x="410" y="148" text-anchor="middle"  font-family="'Inter', 'Helvetica Neue', sans-serif" font-size="11px" fill="#FAFAF8">Edge</text>

  
  <line x1="470" y1="135" x2="495" y2="135" stroke="#666666" stroke-width="2" marker-end="url(#arrowD01)" />

  
  <rect x="500" y="100" width="120" height="70" rx="8" fill="#C45B4D" />
  <text x="560" y="130" text-anchor="middle"  font-family="'Inter', 'Helvetica Neue', sans-serif" font-size="14px" fill="#FAFAF8" font-weight="bold">Vortex</text>
  <text x="560" y="148" text-anchor="middle"  font-family="'Inter', 'Helvetica Neue', sans-serif" font-size="11px" fill="#FAFAF8">Vortex</text>

  
  <line x1="620" y1="135" x2="645" y2="135" stroke="#666666" stroke-width="2" marker-end="url(#arrowD01)" />

  
  <rect x="650" y="100" width="120" height="70" rx="8" fill="#5B8B6A" />
  <text x="710" y="130" text-anchor="middle"  font-family="'Inter', 'Helvetica Neue', sans-serif" font-size="14px" fill="#FAFAF8" font-weight="bold">Bundle</text>
  <text x="710" y="148" text-anchor="middle"  font-family="'Inter', 'Helvetica Neue', sans-serif" font-size="11px" fill="#FAFAF8">Bundle</text>

  
  
  <line x1="110" y1="170" x2="110" y2="185" stroke="#8B8682" stroke-width="1.5" />
  <text x="110" y="200" text-anchor="middle"  font-family="'Inter', 'Helvetica Neue', sans-serif" font-size="12px" fill="#2C2C2C">Platform space/state space</text>
  <text x="110" y="218" text-anchor="middle"  font-family="'Inter', 'Helvetica Neue', sans-serif" font-size="12px" fill="#2C2C2C">basic body</text>
  <text x="110" y="236" text-anchor="middle"  font-family="'Inter', 'Helvetica Neue', sans-serif" font-size="12px" fill="#2C2C2C">analytical data</text>

  
  <line x1="260" y1="170" x2="260" y2="185" stroke="#5B8DB8" stroke-width="1.5" />
  <text x="260" y="200" text-anchor="middle"  font-family="'Inter', 'Helvetica Neue', sans-serif" font-size="12px" fill="#2C2C2C">Local data/perturbation</text>
  <text x="260" y="218" text-anchor="middle"  font-family="'Inter', 'Helvetica Neue', sans-serif" font-size="12px" fill="#2C2C2C">gradient flow</text>
  <text x="260" y="236" text-anchor="middle"  font-family="'Inter', 'Helvetica Neue', sans-serif" font-size="12px" fill="#2C2C2C">family of neighboring fibers</text>

  
  <line x1="410" y1="170" x2="410" y2="185" stroke="#D4A857" stroke-width="1.5" />
  <text x="410" y="200" text-anchor="middle"  font-family="'Inter', 'Helvetica Neue', sans-serif" font-size="12px" fill="#2C2C2C">Compatibility conditions/links</text>
  <text x="410" y="218" text-anchor="middle"  font-family="'Inter', 'Helvetica Neue', sans-serif" font-size="12px" fill="#2C2C2C">Branching point/critical point</text>
  <text x="410" y="236" text-anchor="middle"  font-family="'Inter', 'Helvetica Neue', sans-serif" font-size="12px" fill="#2C2C2C">boundary layer</text>

  
  <line x1="560" y1="170" x2="560" y2="185" stroke="#C45B4D" stroke-width="1.5" />
  <text x="560" y="200" text-anchor="middle"  font-family="'Inter', 'Helvetica Neue', sans-serif" font-size="12px" fill="#2C2C2C">Cocycle twist</text>
  <text x="560" y="218" text-anchor="middle"  font-family="'Inter', 'Helvetica Neue', sans-serif" font-size="12px" fill="#2C2C2C">monodromy</text>
  <text x="560" y="236" text-anchor="middle"  font-family="'Inter', 'Helvetica Neue', sans-serif" font-size="12px" fill="#2C2C2C">with handle</text>

  
  <line x1="710" y1="170" x2="710" y2="185" stroke="#5B8B6A" stroke-width="1.5" />
  <text x="710" y="200" text-anchor="middle"  font-family="'Inter', 'Helvetica Neue', sans-serif" font-size="12px" fill="#2C2C2C">Main bundle/fiber bundle</text>
  <text x="710" y="218" text-anchor="middle"  font-family="'Inter', 'Helvetica Neue', sans-serif" font-size="12px" fill="#2C2C2C">attractor</text>
  <text x="710" y="236" text-anchor="middle"  font-family="'Inter', 'Helvetica Neue', sans-serif" font-size="12px" fill="#2C2C2C">Handle disassembly</text>

  
  <line x1="50" y1="265" x2="750" y2="265" stroke="#E0DDD8" stroke-width="1" />
  <text x="400" y="290" text-anchor="middle"  font-family="'Inter', 'Helvetica Neue', sans-serif" font-size="13px" fill="#2C2C2C" font-weight="bold">Major Theoretical Correspondence</text>

  
  <line x1="60" y1="310" x2="80" y2="310" stroke="#2C2C2C" stroke-width="2" />
  <text x="88" y="314"  font-family="'Inter', 'Helvetica Neue', sans-serif" font-size="11px" fill="#666666">Strong correspondence (solid)</text>
  <line x1="230" y1="310" x2="250" y2="310" stroke="#2C2C2C" stroke-width="2" stroke-dasharray="6,3" />
  <text x="258" y="314"  font-family="'Inter', 'Helvetica Neue', sans-serif" font-size="11px" fill="#666666">Partial correspondence (dashed)</text>

  
  <rect x="50" y="325" width="700" height="28" rx="4" fill="#F5F4F2" />
  <text x="60" y="344"  font-family="'Inter', 'Helvetica Neue', sans-serif" font-size="12px" fill="#2C2C2C" font-weight="bold">Sheaves and Cech cohomology</text>
  <line x1="280" y1="339" x2="740" y2="339" stroke="#2C2C2C" stroke-width="2" />

  <rect x="50" y="357" width="700" height="28" rx="4" fill="#FAFAF8" />
  <text x="60" y="376"  font-family="'Inter', 'Helvetica Neue', sans-serif" font-size="12px" fill="#2C2C2C" font-weight="bold">Milnor fibration</text>
  <line x1="280" y1="371" x2="740" y2="371" stroke="#2C2C2C" stroke-width="2" />

  <rect x="50" y="389" width="700" height="28" rx="4" fill="#F5F4F2" />
  <text x="60" y="408"  font-family="'Inter', 'Helvetica Neue', sans-serif" font-size="12px" fill="#2C2C2C" font-weight="bold">bifurcation theory</text>
  <line x1="280" y1="403" x2="740" y2="403" stroke="#2C2C2C" stroke-width="2" />

  <rect x="50" y="421" width="700" height="28" rx="4" fill="#FAFAF8" />
  <text x="60" y="440"  font-family="'Inter', 'Helvetica Neue', sans-serif" font-size="12px" fill="#2C2C2C" font-weight="bold">Morse theory</text>
  <line x1="280" y1="435" x2="740" y2="435" stroke="#2C2C2C" stroke-width="2" />

  <rect x="50" y="453" width="700" height="28" rx="4" fill="#F5F4F2" />
  <text x="60" y="472"  font-family="'Inter', 'Helvetica Neue', sans-serif" font-size="12px" fill="#2C2C2C" font-weight="bold">Singular perturbations and boundary layers</text>
  <line x1="280" y1="467" x2="740" y2="467" stroke="#2C2C2C" stroke-width="2" />

  
  <rect x="50" y="485" width="700" height="28" rx="4" fill="#FAFAF8" />
  <text x="60" y="504"  font-family="'Inter', 'Helvetica Neue', sans-serif" font-size="12px" fill="#2C2C2C">higher sphere</text>
  <line x1="280" y1="499" x2="740" y2="499" stroke="#2C2C2C" stroke-width="2" stroke-dasharray="6,3" />

  <rect x="50" y="517" width="700" height="28" rx="4" fill="#F5F4F2" />
  <text x="60" y="536"  font-family="'Inter', 'Helvetica Neue', sans-serif" font-size="12px" fill="#2C2C2C">galois theory</text>
  <line x1="280" y1="531" x2="560" y2="531" stroke="#2C2C2C" stroke-width="2" stroke-dasharray="6,3" />
  <line x1="560" y1="531" x2="740" y2="531" stroke="#D0D0D0" stroke-width="1" stroke-dasharray="2,3" />

  
  <rect x="50" y="555" width="700" height="24" rx="4" fill="#F0EFE8" />
  <text x="400" y="572" text-anchor="middle"  font-family="'Inter', 'Helvetica Neue', sans-serif" font-size="13px" fill="#2C2C2C">Strong structural correspondence in 7 out of 11 theories / partial correspondence in 4 theories (the precision of the edge-vortex is the turning point)</text>
</svg>