<svg viewBox="0 0 1200 800" xmlns="http://www.w3.org/2000/svg" font-family="sans-serif">
<defs>
  <linearGradient id="boxGradient" x1="0%" y1="0%" x2="0%" y2="100%">
    <stop offset="0%" style="stop-color:#2C3E50"/>
    <stop offset="100%" style="stop-color:#34495E"/>
  </linearGradient>
  <marker id="arrowhead" viewBox="0 0 10 10" refX="5" refY="5" markerWidth="6" markerHeight="6" orient="auto-start-reverse">
    <path d="M 0 0 L 10 5 L 0 10 z" fill="#F39C12"/>
  </marker>
</defs>

<!-- Background -->
<rect width="100%" height="100%" fill="#1a1a2e" />

<!-- Title Section -->
<g id="title-section">
  <text x="600" y="60" font-size="36" font-weight="bold" fill="white" text-anchor="middle">D03 化学 — 5段階モデルとの構造対応調査</text>
  <text x="600" y="95" font-size="20" fill="#cccccc" text-anchor="middle">10理論の横断的分析</text>
</g>

<!-- Left Column: Research Methodology Flow -->
<g id="left-column-flow">
  <!-- Phase 1 -->
  <rect x="45" y="155" width="310" height="70" rx="10" fill="#4A90E2" opacity="0.2" />
  <rect x="50" y="160" width="300" height="60" rx="10" fill="url(#boxGradient)" stroke="#cccccc" />
  <text x="200" y="197" font-size="18" fill="white" text-anchor="middle">Phase 1-2: 文献確認・理論選定</text>
  
  <!-- Arrow 1 -->
  <line x1="200" y1="220" x2="200" y2="250" stroke="#F39C12" stroke-width="4" marker-end="url(#arrowhead)" />

  <!-- Phase 2 -->
  <rect x="45" y="255" width="310" height="70" rx="10" fill="#4A90E2" opacity="0.2" />
  <rect x="50" y="260" width="300" height="60" rx="10" fill="url(#boxGradient)" stroke="#cccccc" />
  <text x="200" y="297" font-size="18" fill="white" text-anchor="middle">Phase 3-4: 構造対応の判定</text>

  <!-- Arrow 2 -->
  <line x1="200" y1="320" x2="200" y2="350" stroke="#F39C12" stroke-width="4" marker-end="url(#arrowhead)" />

  <!-- Phase 3 -->
  <rect x="45" y="355" width="310" height="70" rx="10" fill="#4A90E2" opacity="0.2" />
  <rect x="50" y="360" width="300" height="60" rx="10" fill="url(#boxGradient)" stroke="#cccccc" />
  <text x="200" y="397" font-size="18" fill="white" text-anchor="middle">Phase 5: 論拠監査</text>

  <!-- Arrow 3 -->
  <line x1="200" y1="420" x2="200" y2="450" stroke="#F39C12" stroke-width="4" marker-end="url(#arrowhead)" />

  <!-- Phase 4 -->
  <rect x="45" y="455" width="310" height="70" rx="10" fill="#4A90E2" opacity="0.2" />
  <rect x="50" y="460" width="300" height="60" rx="10" fill="url(#boxGradient)" stroke="#cccccc" />
  <text x="200" y="497" font-size="18" fill="white" text-anchor="middle">Phase 6: 構造再読（4軸再評価）</text>

  <!-- Arrow 4 -->
  <line x1="200" y1="520" x2="200" y2="550" stroke="#F39C12" stroke-width="4" marker-end="url(#arrowhead)" />

  <!-- Phase 5 -->
  <rect x="45" y="555" width="310" height="70" rx="10" fill="#4A90E2" opacity="0.2" />
  <rect x="50" y="560" width="300" height="60" rx="10" fill="url(#boxGradient)" stroke="#cccccc" />
  <text x="200" y="597" font-size="18" fill="white" text-anchor="middle">Phase 7: 横断統合</text>
</g>

<!-- Right Section: Theory Correspondence Heat Map -->
<g id="right-section-heatmap">
  <!-- Column Headers -->
  <g id="column-headers">
    <rect x="630" y="160" width="100" height="30" rx="5" fill="#8B8682" />
    <text x="680" y="181" font-size="16" font-weight="bold" fill="white" text-anchor="middle">場</text>
    <rect x="735" y="160" width="100" height="30" rx="5" fill="#5B8DB8" />
    <text x="785" y="181" font-size="16" font-weight="bold" fill="white" text-anchor="middle">波</text>
    <rect x="840" y="160" width="100" height="30" rx="5" fill="#D4A857" />
    <text x="890" y="181" font-size="16" font-weight="bold" fill="white" text-anchor="middle">縁</text>
    <rect x="945" y="160" width="100" height="30" rx="5" fill="#C45B4D" />
    <text x="995" y="181" font-size="16" font-weight="bold" fill="white" text-anchor="middle">渦</text>
    <rect x="1050" y="160" width="100" height="30" rx="5" fill="#5B8B6A" />
    <text x="1100" y="181" font-size="16" font-weight="bold" fill="white" text-anchor="middle">束</text>
  </g>

  <!-- Grid Rows -->
  <g id="grid-rows">
    <!-- Row 1: 結晶核生成（古典核生成理論） | strong -->
    <text x="610" y="225" font-size="14" fill="white" text-anchor="end" dominant-baseline="middle">結晶核生成（古典核生成理論）</text>
    <rect x="630" y="200" width="100" height="50" fill="#8B8682" opacity="1.0" />
    <rect x="735" y="200" width="100" height="50" fill="#5B8DB8" opacity="1.0" />
    <rect x="840" y="200" width="100" height="50" fill="#D4A857" opacity="1.0" />
    <rect x="945" y="200" width="100" height="50" fill="#C45B4D" opacity="1.0" />
    <rect x="1050" y="200" width="100" height="50" fill="#5B8B6A" opacity="1.0" />
    <!-- Row 2: 触媒反応サイクル | partial -->
    <text x="610" y="277" font-size="14" fill="white" text-anchor="end" dominant-baseline="middle">触媒反応サイクル</text>
    <rect x="630" y="252" width="100" height="50" fill="#8B8682" opacity="0.3" />
    <rect x="735" y="252" width="100" height="50" fill="#5B8DB8" opacity="0.3" />
    <rect x="840" y="252" width="100" height="50" fill="#D4A857" opacity="0.3" />
    <rect x="945" y="252" width="100" height="50" fill="#C45B4D" opacity="0.7" />
    <rect x="1050" y="252" width="100" height="50" fill="#5B8B6A" opacity="0.3" />
    <!-- Row 3: ブロック共重合体ミクロ相分離 | strong -->
    <text x="610" y="329" font-size="14" fill="white" text-anchor="end" dominant-baseline="middle">ブロック共重合体ミクロ相分離</text>
    <rect x="630" y="304" width="100" height="50" fill="#8B8682" opacity="1.0" />
    <rect x="735" y="304" width="100" height="50" fill="#5B8DB8" opacity="1.0" />
    <rect x="840" y="304" width="100" height="50" fill="#D4A857" opacity="1.0" />
    <rect x="945" y="304" width="100" height="50" fill="#C45B4D" opacity="1.0" />
    <rect x="1050" y="304" width="100" height="50" fill="#5B8B6A" opacity="1.0" />
    <!-- Row 4: BZ反応と散逸構造 | strong -->
    <text x="610" y="381" font-size="14" fill="white" text-anchor="end" dominant-baseline="middle">BZ反応と散逸構造</text>
    <rect x="630" y="356" width="100" height="50" fill="#8B8682" opacity="1.0" />
    <rect x="735" y="356" width="100" height="50" fill="#5B8DB8" opacity="1.0" />
    <rect x="840" y="356" width="100" height="50" fill="#D4A857" opacity="1.0" />
    <rect x="945" y="356" width="100" height="50" fill="#C45B4D" opacity="1.0" />
    <rect x="1050" y="356" width="100" height="50" fill="#5B8B6A" opacity="1.0" />
    <!-- Row 5: 反応拡散チューリングパターン | strong -->
    <text x="610" y="433" font-size="14" fill="white" text-anchor="end" dominant-baseline="middle">反応拡散チューリングパターン</text>
    <rect x="630" y="408" width="100" height="50" fill="#8B8682" opacity="1.0" />
    <rect x="735" y="408" width="100" height="50" fill="#5B8DB8" opacity="1.0" />
    <rect x="840" y="408" width="100" height="50" fill="#D4A857" opacity="1.0" />
    <rect x="945" y="408" width="100" height="50" fill="#C45B4D" opacity="1.0" />
    <rect x="1050" y="408" width="100" height="50" fill="#5B8B6A" opacity="1.0" />
    <!-- Row 6: 超分子自己組織化 | partial -->
    <text x="610" y="485" font-size="14" fill="white" text-anchor="end" dominant-baseline="middle">超分子自己組織化</text>
    <rect x="630" y="460" width="100" height="50" fill="#8B8682" opacity="0.7" />
    <rect x="735" y="460" width="100" height="50" fill="#5B8DB8" opacity="0.3" />
    <rect x="840" y="460" width="100" height="50" fill="#D4A857" opacity="0.7" />
    <rect x="945" y="460" width="100" height="50" fill="#C45B4D" opacity="0.3" />
    <rect x="1050" y="460" width="100" height="50" fill="#5B8B6A" opacity="0.7" />
    <!-- Row 7: 分岐爆発限界（H2/O2系） | partial -->
    <text x="610" y="537" font-size="14" fill="white" text-anchor="end" dominant-baseline="middle">分岐爆発限界（H2/O2系）</text>
    <rect x="630" y="512" width="100" height="50" fill="#8B8682" opacity="0.3" />
    <rect x="735" y="512" width="100" height="50" fill="#5B8DB8" opacity="0.3" />
    <rect x="840" y="512" width="100" height="50" fill="#D4A857" opacity="0.7" />
    <rect x="945" y="512" width="100" height="50" fill="#C45B4D" opacity="0.3" />
    <rect x="1050" y="512" width="100" height="50" fill="#5B8B6A" opacity="0.3" />
    <!-- Row 8: ゾル-ゲル転移 | strong -->
    <text x="610" y="589" font-size="14" fill="white" text-anchor="end" dominant-baseline="middle">ゾル-ゲル転移</text>
    <rect x="630" y="564" width="100" height="50" fill="#8B8682" opacity="1.0" />
    <rect x="735" y="564" width="100" height="50" fill="#5B8DB8" opacity="1.0" />
    <rect x="840" y="564" width="100" height="50" fill="#D4A857" opacity="1.0" />
    <rect x="945" y="564" width="100" height="50" fill="#C45B4D" opacity="1.0" />
    <rect x="1050" y="564" width="100" height="50" fill="#5B8B6A" opacity="1.0" />
    <!-- Row 9: 化学進化とRNA world仮説 | conditional -->
    <text x="610" y="641" font-size="14" fill="white" text-anchor="end" dominant-baseline="middle">化学進化とRNA world仮説</text>
    <rect x="630" y="616" width="100" height="50" fill="#8B8682" opacity="0.2" />
    <rect x="735" y="616" width="100" height="50" fill="#5B8DB8" opacity="0.2" />
    <rect x="840" y="616" width="100" height="50" fill="#D4A857" opacity="0.2" />
    <rect x="945" y="616" width="100" height="50" fill="#C45B4D" opacity="0.2" />
    <rect x="1050" y="616" width="100" height="50" fill="#5B8B6A" opacity="0.2" />
    <!-- Row 10: 化学振動の普遍構造 | partial -->
    <text x="610" y="693" font-size="14" fill="white" text-anchor="end" dominant-baseline="middle">化学振動の普遍構造</text>
    <rect x="630" y="668" width="100" height="50" fill="#8B8682" opacity="0.7" />
    <rect x="735" y="668" width="100" height="50" fill="#5B8DB8" opacity="0.7" />
    <rect x="840" y="668" width="100" height="50" fill="#D4A857" opacity="0.7" />
    <rect x="945" y="668" width="100" height="50" fill="#C45B4D" opacity="0.7" />
    <rect x="1050" y="668" width="100" height="50" fill="#5B8B6A" opacity="0.7" />
  </g>
</g>

<!-- Bottom Bar: Judgment Summary -->
<g id="bottom-bar-summary">
  <rect x="50" y="730" width="1100" height="50" rx="20" fill="#2C3E50" stroke="#cccccc" />
  <g id="summary-items" transform="translate(150, 0)">
    <rect x="200" y="745" width="20" height="20" fill="#27AE60" />
    <text x="230" y="761" fill="white" font-size="16" dominant-baseline="middle">強い対応: 5件</text>
    <rect x="450" y="745" width="20" height="20" fill="#F1C40F" />
    <text x="480" y="761" fill="white" font-size="16" dominant-baseline="middle">部分的対応: 4件</text>
    <rect x="700" y="745" width="20" height="20" fill="#E67E22" />
    <text x="730" y="761" fill="white" font-size="16" dominant-baseline="middle">条件付き: 1件</text>
  </g>
</g>

</svg>