<svg viewBox="0 0 1200 900" xmlns="http://www.w3.org/2000/svg" font-family="sans-serif">
  <!--
    Infographic: Correspondence Matrix for D03 化学 (Chemistry)
    Generated based on the provided prompt and data.
  -->

  <!-- Background -->
  <rect x="0" y="0" width="1200" height="900" fill="#1a1a2e" />

  <!-- Title -->
  <text x="600" y="60" font-size="28" font-weight="bold" fill="#e0e0e0" text-anchor="middle">10化学理論と5段階モデルの対応関係マトリクス</text>

  <!-- Column Headers -->
  <g id="column-headers">
    <rect x="230" y="100" width="180" height="40" rx="5" ry="5" fill="#8B8682" />
    <text x="320" y="125" font-size="16" font-weight="bold" fill="#ffffff" text-anchor="middle" dominant-baseline="middle">場 (Field)</text>
    <rect x="420" y="100" width="180" height="40" rx="5" ry="5" fill="#5B8DB8" />
    <text x="510" y="125" font-size="16" font-weight="bold" fill="#ffffff" text-anchor="middle" dominant-baseline="middle">波 (Wave)</text>
    <rect x="610" y="100" width="180" height="40" rx="5" ry="5" fill="#D4A857" />
    <text x="700" y="125" font-size="16" font-weight="bold" fill="#ffffff" text-anchor="middle" dominant-baseline="middle">縁 (Edge)</text>
    <rect x="800" y="100" width="180" height="40" rx="5" ry="5" fill="#C45B4D" />
    <text x="890" y="125" font-size="16" font-weight="bold" fill="#ffffff" text-anchor="middle" dominant-baseline="middle">渦 (Vortex)</text>
    <rect x="990" y="100" width="180" height="40" rx="5" ry="5" fill="#5B8B6A" />
    <text x="1080" y="125" font-size="16" font-weight="bold" fill="#ffffff" text-anchor="middle" dominant-baseline="middle">束 (Bundle)</text>
  </g>

  <!-- Matrix Rows -->
  <g id="matrix-rows">
    <!-- Row 1: 結晶核生成（古典核生成理論） | strong -->
    <g transform="translate(0, 150)">
      <text x="220" y="27.5" font-size="14" fill="#d0d0d0" text-anchor="end" dominant-baseline="middle">1. 結晶核生成（古典核生成理論）</text>
      <rect x="230" y="0" width="180" height="55" rx="5" ry="5" fill="#8B8682" opacity="1.0" /><text x="320" y="27.5" font-size="16" fill="#ffffff" text-anchor="middle" dominant-baseline="middle">場</text>
      <rect x="420" y="0" width="180" height="55" rx="5" ry="5" fill="#5B8DB8" opacity="1.0" /><text x="510" y="27.5" font-size="16" fill="#ffffff" text-anchor="middle" dominant-baseline="middle">波</text>
      <rect x="610" y="0" width="180" height="55" rx="5" ry="5" fill="#D4A857" opacity="1.0" /><text x="700" y="27.5" font-size="16" fill="#ffffff" text-anchor="middle" dominant-baseline="middle">縁</text>
      <rect x="800" y="0" width="180" height="55" rx="5" ry="5" fill="#C45B4D" opacity="1.0" /><text x="890" y="27.5" font-size="16" fill="#ffffff" text-anchor="middle" dominant-baseline="middle">渦</text>
      <rect x="990" y="0" width="180" height="55" rx="5" ry="5" fill="#5B8B6A" opacity="1.0" /><text x="1080" y="27.5" font-size="16" fill="#ffffff" text-anchor="middle" dominant-baseline="middle">束</text>
    </g>
    <!-- Row 2: 触媒反応サイクル | partial -->
    <g transform="translate(0, 215)">
      <text x="220" y="27.5" font-size="14" fill="#d0d0d0" text-anchor="end" dominant-baseline="middle">2. 触媒反応サイクル</text>
      <rect x="230" y="0" width="180" height="55" rx="5" ry="5" fill="#8B8682" opacity="0.2" /><text x="320" y="27.5" font-size="16" fill="#888888" text-anchor="middle" dominant-baseline="middle">-</text>
      <rect x="420" y="0" width="180" height="55" rx="5" ry="5" fill="#5B8DB8" opacity="0.2" /><text x="510" y="27.5" font-size="16" fill="#888888" text-anchor="middle" dominant-baseline="middle">-</text>
      <rect x="610" y="0" width="180" height="55" rx="5" ry="5" fill="#D4A857" opacity="0.2" /><text x="700" y="27.5" font-size="16" fill="#888888" text-anchor="middle" dominant-baseline="middle">-</text>
      <rect x="800" y="0" width="180" height="55" rx="5" ry="5" fill="#C45B4D" opacity="0.7" /><text x="890" y="27.5" font-size="16" fill="#e0e0e0" text-anchor="middle" dominant-baseline="middle">渦</text>
      <rect x="990" y="0" width="180" height="55" rx="5" ry="5" fill="#5B8B6A" opacity="0.2" /><text x="1080" y="27.5" font-size="16" fill="#888888" text-anchor="middle" dominant-baseline="middle">-</text>
    </g>
    <!-- Row 3: ブロック共重合体ミクロ相分離 | strong -->
    <g transform="translate(0, 280)">
      <text x="220" y="27.5" font-size="14" fill="#d0d0d0" text-anchor="end" dominant-baseline="middle">3. ブロック共重合体ミクロ相分離</text>
      <rect x="230" y="0" width="180" height="55" rx="5" ry="5" fill="#8B8682" opacity="1.0" /><text x="320" y="27.5" font-size="16" fill="#ffffff" text-anchor="middle" dominant-baseline="middle">場</text>
      <rect x="420" y="0" width="180" height="55" rx="5" ry="5" fill="#5B8DB8" opacity="1.0" /><text x="510" y="27.5" font-size="16" fill="#ffffff" text-anchor="middle" dominant-baseline="middle">波</text>
      <rect x="610" y="0" width="180" height="55" rx="5" ry="5" fill="#D4A857" opacity="1.0" /><text x="700" y="27.5" font-size="16" fill="#ffffff" text-anchor="middle" dominant-baseline="middle">縁</text>
      <rect x="800" y="0" width="180" height="55" rx="5" ry="5" fill="#C45B4D" opacity="1.0" /><text x="890" y="27.5" font-size="16" fill="#ffffff" text-anchor="middle" dominant-baseline="middle">渦</text>
      <rect x="990" y="0" width="180" height="55" rx="5" ry="5" fill="#5B8B6A" opacity="1.0" /><text x="1080" y="27.5" font-size="16" fill="#ffffff" text-anchor="middle" dominant-baseline="middle">束</text>
    </g>
    <!-- Row 4: BZ反応と散逸構造 | strong -->
    <g transform="translate(0, 345)">
      <text x="220" y="27.5" font-size="14" fill="#d0d0d0" text-anchor="end" dominant-baseline="middle">4. BZ反応と散逸構造</text>
      <rect x="230" y="0" width="180" height="55" rx="5" ry="5" fill="#8B8682" opacity="1.0" /><text x="320" y="27.5" font-size="16" fill="#ffffff" text-anchor="middle" dominant-baseline="middle">場</text>
      <rect x="420" y="0" width="180" height="55" rx="5" ry="5" fill="#5B8DB8" opacity="1.0" /><text x="510" y="27.5" font-size="16" fill="#ffffff" text-anchor="middle" dominant-baseline="middle">波</text>
      <rect x="610" y="0" width="180" height="55" rx="5" ry="5" fill="#D4A857" opacity="1.0" /><text x="700" y="27.5" font-size="16" fill="#ffffff" text-anchor="middle" dominant-baseline="middle">縁</text>
      <rect x="800" y="0" width="180" height="55" rx="5" ry="5" fill="#C45B4D" opacity="1.0" /><text x="890" y="27.5" font-size="16" fill="#ffffff" text-anchor="middle" dominant-baseline="middle">渦</text>
      <rect x="990" y="0" width="180" height="55" rx="5" ry="5" fill="#5B8B6A" opacity="1.0" /><text x="1080" y="27.5" font-size="16" fill="#ffffff" text-anchor="middle" dominant-baseline="middle">束</text>
    </g>
    <!-- Row 5: 反応拡散チューリングパターン | strong -->
    <g transform="translate(0, 410)">
      <text x="220" y="27.5" font-size="14" fill="#d0d0d0" text-anchor="end" dominant-baseline="middle">5. 反応拡散チューリングパターン</text>
      <rect x="230" y="0" width="180" height="55" rx="5" ry="5" fill="#8B8682" opacity="1.0" /><text x="320" y="27.5" font-size="16" fill="#ffffff" text-anchor="middle" dominant-baseline="middle">場</text>
      <rect x="420" y="0" width="180" height="55" rx="5" ry="5" fill="#5B8DB8" opacity="1.0" /><text x="510" y="27.5" font-size="16" fill="#ffffff" text-anchor="middle" dominant-baseline="middle">波</text>
      <rect x="610" y="0" width="180" height="55" rx="5" ry="5" fill="#D4A857" opacity="1.0" /><text x="700" y="27.5" font-size="16" fill="#ffffff" text-anchor="middle" dominant-baseline="middle">縁</text>
      <rect x="800" y="0" width="180" height="55" rx="5" ry="5" fill="#C45B4D" opacity="1.0" /><text x="890" y="27.5" font-size="16" fill="#ffffff" text-anchor="middle" dominant-baseline="middle">渦</text>
      <rect x="990" y="0" width="180" height="55" rx="5" ry="5" fill="#5B8B6A" opacity="1.0" /><text x="1080" y="27.5" font-size="16" fill="#ffffff" text-anchor="middle" dominant-baseline="middle">束</text>
    </g>
    <!-- Row 6: 超分子自己組織化 | partial -->
    <g transform="translate(0, 475)">
      <text x="220" y="27.5" font-size="14" fill="#d0d0d0" text-anchor="end" dominant-baseline="middle">6. 超分子自己組織化</text>
      <rect x="230" y="0" width="180" height="55" rx="5" ry="5" fill="#8B8682" opacity="0.7" /><text x="320" y="27.5" font-size="16" fill="#e0e0e0" text-anchor="middle" dominant-baseline="middle">場</text>
      <rect x="420" y="0" width="180" height="55" rx="5" ry="5" fill="#5B8DB8" opacity="0.2" /><text x="510" y="27.5" font-size="16" fill="#888888" text-anchor="middle" dominant-baseline="middle">-</text>
      <rect x="610" y="0" width="180" height="55" rx="5" ry="5" fill="#D4A857" opacity="0.7" /><text x="700" y="27.5" font-size="16" fill="#e0e0e0" text-anchor="middle" dominant-baseline="middle">縁</text>
      <rect x="800" y="0" width="180" height="55" rx="5" ry="5" fill="#C45B4D" opacity="0.2" /><text x="890" y="27.5" font-size="16" fill="#888888" text-anchor="middle" dominant-baseline="middle">-</text>
      <rect x="990" y="0" width="180" height="55" rx="5" ry="5" fill="#5B8B6A" opacity="0.7" /><text x="1080" y="27.5" font-size="16" fill="#e0e0e0" text-anchor="middle" dominant-baseline="middle">束</text>
    </g>
    <!-- Row 7: 分岐爆発限界（H2/O2系） | partial -->
    <g transform="translate(0, 540)">
      <text x="220" y="27.5" font-size="14" fill="#d0d0d0" text-anchor="end" dominant-baseline="middle">7. 分岐爆発限界（H2/O2系）</text>
      <rect x="230" y="0" width="180" height="55" rx="5" ry="5" fill="#8B8682" opacity="0.2" /><text x="320" y="27.5" font-size="16" fill="#888888" text-anchor="middle" dominant-baseline="middle">-</text>
      <rect x="420" y="0" width="180" height="55" rx="5" ry="5" fill="#5B8DB8" opacity="0.2" /><text x="510" y="27.5" font-size="16" fill="#888888" text-anchor="middle" dominant-baseline="middle">-</text>
      <rect x="610" y="0" width="180" height="55" rx="5" ry="5" fill="#D4A857" opacity="0.7" /><text x="700" y="27.5" font-size="16" fill="#e0e0e0" text-anchor="middle" dominant-baseline="middle">縁</text>
      <rect x="800" y="0" width="180" height="55" rx="5" ry="5" fill="#C45B4D" opacity="0.2" /><text x="890" y="27.5" font-size="16" fill="#888888" text-anchor="middle" dominant-baseline="middle">-</text>
      <rect x="990" y="0" width="180" height="55" rx="5" ry="5" fill="#5B8B6A" opacity="0.2" /><text x="1080" y="27.5" font-size="16" fill="#888888" text-anchor="middle" dominant-baseline="middle">-</text>
    </g>
    <!-- Row 8: ゾル-ゲル転移 | strong -->
    <g transform="translate(0, 605)">
      <text x="220" y="27.5" font-size="14" fill="#d0d0d0" text-anchor="end" dominant-baseline="middle">8. ゾル-ゲル転移</text>
      <rect x="230" y="0" width="180" height="55" rx="5" ry="5" fill="#8B8682" opacity="1.0" /><text x="320" y="27.5" font-size="16" fill="#ffffff" text-anchor="middle" dominant-baseline="middle">場</text>
      <rect x="420" y="0" width="180" height="55" rx="5" ry="5" fill="#5B8DB8" opacity="1.0" /><text x="510" y="27.5" font-size="16" fill="#ffffff" text-anchor="middle" dominant-baseline="middle">波</text>
      <rect x="610" y="0" width="180" height="55" rx="5" ry="5" fill="#D4A857" opacity="1.0" /><text x="700" y="27.5" font-size="16" fill="#ffffff" text-anchor="middle" dominant-baseline="middle">縁</text>
      <rect x="800" y="0" width="180" height="55" rx="5" ry="5" fill="#C45B4D" opacity="1.0" /><text x="890" y="27.5" font-size="16" fill="#ffffff" text-anchor="middle" dominant-baseline="middle">渦</text>
      <rect x="990" y="0" width="180" height="55" rx="5" ry="5" fill="#5B8B6A" opacity="1.0" /><text x="1080" y="27.5" font-size="16" fill="#ffffff" text-anchor="middle" dominant-baseline="middle">束</text>
    </g>
    <!-- Row 9: 化学進化とRNA world仮説 | conditional -->
    <g transform="translate(0, 670)">
      <text x="220" y="27.5" font-size="14" fill="#d0d0d0" text-anchor="end" dominant-baseline="middle">9. 化学進化とRNA world仮説</text>
      <rect x="230" y="0" width="180" height="55" rx="5" ry="5" fill="#8B8682" opacity="0.2" /><text x="320" y="27.5" font-size="16" fill="#888888" text-anchor="middle" dominant-baseline="middle">-</text>
      <rect x="420" y="0" width="180" height="55" rx="5" ry="5" fill="#5B8DB8" opacity="0.2" /><text x="510" y="27.5" font-size="16" fill="#888888" text-anchor="middle" dominant-baseline="middle">-</text>
      <rect x="610" y="0" width="180" height="55" rx="5" ry="5" fill="#D4A857" opacity="0.2" /><text x="700" y="27.5" font-size="16" fill="#888888" text-anchor="middle" dominant-baseline="middle">-</text>
      <rect x="800" y="0" width="180" height="55" rx="5" ry="5" fill="#C45B4D" opacity="0.2" /><text x="890" y="27.5" font-size="16" fill="#888888" text-anchor="middle" dominant-baseline="middle">-</text>
      <rect x="990" y="0" width="180" height="55" rx="5" ry="5" fill="#5B8B6A" opacity="0.2" /><text x="1080" y="27.5" font-size="16" fill="#888888" text-anchor="middle" dominant-baseline="middle">-</text>
    </g>
    <!-- Row 10: 化学振動の普遍構造 | partial -->
    <g transform="translate(0, 735)">
      <text x="220" y="27.5" font-size="14" fill="#d0d0d0" text-anchor="end" dominant-baseline="middle">10. 化学振動の普遍構造</text>
      <rect x="230" y="0" width="180" height="55" rx="5" ry="5" fill="#8B8682" opacity="0.7" /><text x="320" y="27.5" font-size="16" fill="#e0e0e0" text-anchor="middle" dominant-baseline="middle">場</text>
      <rect x="420" y="0" width="180" height="55" rx="5" ry="5" fill="#5B8DB8" opacity="0.7" /><text x="510" y="27.5" font-size="16" fill="#e0e0e0" text-anchor="middle" dominant-baseline="middle">波</text>
      <rect x="610" y="0" width="180" height="55" rx="5" ry="5" fill="#D4A857" opacity="0.7" /><text x="700" y="27.5" font-size="16" fill="#e0e0e0" text-anchor="middle" dominant-baseline="middle">縁</text>
      <rect x="800" y="0" width="180" height="55" rx="5" ry="5" fill="#C45B4D" opacity="0.7" /><text x="890" y="27.5" font-size="16" fill="#e0e0e0" text-anchor="middle" dominant-baseline="middle">渦</text>
      <rect x="990" y="0" width="180" height="55" rx="5" ry="5" fill="#5B8B6A" opacity="0.7" /><text x="1080" y="27.5" font-size="16" fill="#e0e0e0" text-anchor="middle" dominant-baseline="middle">束</text>
    </g>
  </g>

  <!-- Legend -->
  <g id="legend" transform="translate(0, 820)">
    <rect x="350" y="0" width="30" height="30" rx="5" ry="5" fill="#8B8682" opacity="1.0" />
    <text x="390" y="15" font-size="14" fill="#d0d0d0" text-anchor="start" dominant-baseline="middle">強い対応 (Strong)</text>
    <rect x="580" y="0" width="30" height="30" rx="5" ry="5" fill="#8B8682" opacity="0.7" />
    <text x="620" y="15" font-size="14" fill="#d0d0d0" text-anchor="start" dominant-baseline="middle">部分的 (Partial)</text>
    <rect x="780" y="0" width="30" height="30" rx="5" ry="5" fill="#8B8682" opacity="0.3" />
    <text x="820" y="15" font-size="14" fill="#d0d0d0" text-anchor="start" dominant-baseline="middle">条件付き/弱い (Conditional/Weak)</text>
  </g>
</svg>