<svg xmlns="http://www.w3.org/2000/svg" viewBox="0 0 1200 900" font-family="sans-serif">
  <rect x="0" y="0" width="1200" height="900" fill="#1a1a2e" />
  <text x="600" y="50" font-size="30" fill="#ffffff" text-anchor="middle">10天文学・宇宙物理学理論と5段階モデルの対応関係マトリクス</text>
  <rect x="230" y="100" width="180" height="50" fill="#8B8682" rx="5" ry="5" />
  <text x="320" y="132" font-size="20" fill="#ffffff" text-anchor="middle">場</text>
  <rect x="420" y="100" width="180" height="50" fill="#5B8DB8" rx="5" ry="5" />
  <text x="510" y="132" font-size="20" fill="#ffffff" text-anchor="middle">波</text>
  <rect x="610" y="100" width="180" height="50" fill="#D4A857" rx="5" ry="5" />
  <text x="700" y="132" font-size="20" fill="#ffffff" text-anchor="middle">縁</text>
  <rect x="800" y="100" width="180" height="50" fill="#C45B4D" rx="5" ry="5" />
  <text x="890" y="132" font-size="20" fill="#ffffff" text-anchor="middle">渦</text>
  <rect x="990" y="100" width="180" height="50" fill="#5B8B6A" rx="5" ry="5" />
  <text x="1080" y="132" font-size="20" fill="#ffffff" text-anchor="middle">束</text>
  <text x="10" y="187" font-size="18" fill="#ffffff">1. 星形成と恒星進化</text>
  <rect x="230" y="160" width="180" height="55" fill="#8B8682" opacity="1" rx="5" ry="5" />
  <text x="320" y="192" font-size="16" fill="#ffffff" text-anchor="middle">場</text>
  <rect x="420" y="160" width="180" height="55" fill="#5B8DB8" opacity="1" rx="5" ry="5" />
  <text x="510" y="192" font-size="16" fill="#ffffff" text-anchor="middle">波</text>
  <rect x="610" y="160" width="180" height="55" fill="#D4A857" opacity="1" rx="5" ry="5" />
  <text x="700" y="192" font-size="16" fill="#ffffff" text-anchor="middle">縁</text>
  <rect x="800" y="160" width="180" height="55" fill="#C45B4D" opacity="1" rx="5" ry="5" />
  <text x="890" y="192" font-size="16" fill="#ffffff" text-anchor="middle">渦</text>
  <rect x="990" y="160" width="180" height="55" fill="#5B8B6A" opacity="1" rx="5" ry="5" />
  <text x="1080" y="192" font-size="16" fill="#ffffff" text-anchor="middle">束</text>
  <text x="10" y="252" font-size="18" fill="#ffffff">2. 銀河形成の階層的成長</text>
  <rect x="230" y="225" width="180" height="55" fill="#8B8682" opacity="1" rx="5" ry="5" />
  <text x="320" y="257" font-size="16" fill="#ffffff" text-anchor="middle">場</text>
  <rect x="420" y="225" width="180" height="55" fill="#5B8DB8" opacity="1" rx="5" ry="5" />
  <text x="510" y="257" font-size="16" fill="#ffffff" text-anchor="middle">波</text>
  <rect x="610" y="225" width="180" height="55" fill="#D4A857" opacity="1" rx="5" ry="5" />
  <text x="700" y="257" font-size="16" fill="#ffffff" text-anchor="middle">縁</text>
  <rect x="800" y="225" width="180" height="55" fill="#C45B4D" opacity="1" rx="5" ry="5" />
  <text x="890" y="257" font-size="16" fill="#ffffff" text-anchor="middle">渦</text>
  <rect x="990" y="225" width="180" height="55" fill="#5B8B6A" opacity="1" rx="5" ry="5" />
  <text x="1080" y="257" font-size="16" fill="#ffffff" text-anchor="middle">束</text>
  <text x="10" y="317" font-size="18" fill="#ffffff">3. 宇宙バリオンサイクル</text>
  <rect x="230" y="290" width="180" height="55" fill="#8B8682" opacity="0.3" rx="5" ry="5" />
  <text x="320" y="322" font-size="16" fill="#aaaaaa" text-anchor="middle">場</text>
  <rect x="420" y="290" width="180" height="55" fill="#5B8DB8" opacity="0.3" rx="5" ry="5" />
  <text x="510" y="322" font-size="16" fill="#aaaaaa" text-anchor="middle">波</text>
  <rect x="610" y="290" width="180" height="55" fill="#D4A857" opacity="0.3" rx="5" ry="5" />
  <text x="700" y="322" font-size="16" fill="#aaaaaa" text-anchor="middle">縁</text>
  <rect x="800" y="290" width="180" height="55" fill="#C45B4D" opacity="0.3" rx="5" ry="5" />
  <text x="890" y="322" font-size="16" fill="#aaaaaa" text-anchor="middle">渦</text>
  <rect x="990" y="290" width="180" height="55" fill="#5B8B6A" opacity="0.3" rx="5" ry="5" />
  <text x="1080" y="322" font-size="16" fill="#aaaaaa" text-anchor="middle">束</text>
  <text x="10" y="382" font-size="18" fill="#ffffff">4. 降着円盤とジェット形成</text>
  <rect x="230" y="355" width="180" height="55" fill="#8B8682" opacity="1" rx="5" ry="5" />
  <text x="320" y="387" font-size="16" fill="#ffffff" text-anchor="middle">場</text>
  <rect x="420" y="355" width="180" height="55" fill="#5B8DB8" opacity="1" rx="5" ry="5" />
  <text x="510" y="387" font-size="16" fill="#ffffff" text-anchor="middle">波</text>
  <rect x="610" y="355" width="180" height="55" fill="#D4A857" opacity="1" rx="5" ry="5" />
  <text x="700" y="387" font-size="16" fill="#ffffff" text-anchor="middle">縁</text>
  <rect x="800" y="355" width="180" height="55" fill="#C45B4D" opacity="1" rx="5" ry="5" />
  <text x="890" y="387" font-size="16" fill="#ffffff" text-anchor="middle">渦</text>
  <rect x="990" y="355" width="180" height="55" fill="#5B8B6A" opacity="1" rx="5" ry="5" />
  <text x="1080" y="387" font-size="16" fill="#ffffff" text-anchor="middle">束</text>
  <text x="10" y="447" font-size="18" fill="#ffffff">5. 惑星系形成</text>
  <rect x="230" y="420" width="180" height="55" fill="#8B8682" opacity="1" rx="5" ry="5" />
  <text x="320" y="452" font-size="16" fill="#ffffff" text-anchor="middle">場</text>
  <rect x="420" y="420" width="180" height="55" fill="#5B8DB8" opacity="1" rx="5" ry="5" />
  <text x="510" y="452" font-size="16" fill="#ffffff" text-anchor="middle">波</text>
  <rect x="610" y="420" width="180" height="55" fill="#D4A857" opacity="1" rx="5" ry="5" />
  <text x="700" y="452" font-size="16" fill="#ffffff" text-anchor="middle">縁</text>
  <rect x="800" y="420" width="180" height="55" fill="#C45B4D" opacity="1" rx="5" ry="5" />
  <text x="890" y="452" font-size="16" fill="#ffffff" text-anchor="middle">渦</text>
  <rect x="990" y="420" width="180" height="55" fill="#5B8B6A" opacity="1" rx="5" ry="5" />
  <text x="1080" y="452" font-size="16" fill="#ffffff" text-anchor="middle">束</text>
  <text x="10" y="512" font-size="18" fill="#ffffff">6. 超新星残骸と星間物質相互作用</text>
  <rect x="230" y="485" width="180" height="55" fill="#8B8682" opacity="1" rx="5" ry="5" />
  <text x="320" y="517" font-size="16" fill="#ffffff" text-anchor="middle">場</text>
  <rect x="420" y="485" width="180" height="55" fill="#5B8DB8" opacity="1" rx="5" ry="5" />
  <text x="510" y="517" font-size="16" fill="#ffffff" text-anchor="middle">波</text>
  <rect x="610" y="485" width="180" height="55" fill="#D4A857" opacity="1" rx="5" ry="5" />
  <text x="700" y="517" font-size="16" fill="#ffffff" text-anchor="middle">縁</text>
  <rect x="800" y="485" width="180" height="55" fill="#C45B4D" opacity="1" rx="5" ry="5" />
  <text x="890" y="517" font-size="16" fill="#ffffff" text-anchor="middle">渦</text>
  <rect x="990" y="485" width="180" height="55" fill="#5B8B6A" opacity="1" rx="5" ry="5" />
  <text x="1080" y="517" font-size="16" fill="#ffffff" text-anchor="middle">束</text>
  <text x="10" y="577" font-size="18" fill="#ffffff">7. 太陽磁気活動サイクル</text>
  <rect x="230" y="550" width="180" height="55" fill="#8B8682" opacity="1" rx="5" ry="5" />
  <text x="320" y="582" font-size="16" fill="#ffffff" text-anchor="middle">場</text>
  <rect x="420" y="550" width="180" height="55" fill="#5B8DB8" opacity="1" rx="5" ry="5" />
  <text x="510" y="582" font-size="16" fill="#ffffff" text-anchor="middle">波</text>
  <rect x="610" y="550" width="180" height="55" fill="#D4A857" opacity="1" rx="5" ry="5" />
  <text x="700" y="582" font-size="16" fill="#ffffff" text-anchor="middle">縁</text>
  <rect x="800" y="550" width="180" height="55" fill="#C45B4D" opacity="1" rx="5" ry="5" />
  <text x="890" y="582" font-size="16" fill="#ffffff" text-anchor="middle">渦</text>
  <rect x="990" y="550" width="180" height="55" fill="#5B8B6A" opacity="1" rx="5" ry="5" />
  <text x="1080" y="582" font-size="16" fill="#ffffff" text-anchor="middle">束</text>
  <text x="10" y="642" font-size="18" fill="#ffffff">8. 宇宙大規模構造形成</text>
  <rect x="230" y="615" width="180" height="55" fill="#8B8682" opacity="1" rx="5" ry="5" />
  <text x="320" y="647" font-size="16" fill="#ffffff" text-anchor="middle">場</text>
  <rect x="420" y="615" width="180" height="55" fill="#5B8DB8" opacity="1" rx="5" ry="5" />
  <text x="510" y="647" font-size="16" fill="#ffffff" text-anchor="middle">波</text>
  <rect x="610" y="615" width="180" height="55" fill="#D4A857" opacity="1" rx="5" ry="5" />
  <text x="700" y="647" font-size="16" fill="#ffffff" text-anchor="middle">縁</text>
  <rect x="800" y="615" width="180" height="55" fill="#C45B4D" opacity="1" rx="5" ry="5" />
  <text x="890" y="647" font-size="16" fill="#ffffff" text-anchor="middle">渦</text>
  <rect x="990" y="615" width="180" height="55" fill="#5B8B6A" opacity="1" rx="5" ry="5" />
  <text x="1080" y="647" font-size="16" fill="#ffffff" text-anchor="middle">束</text>
  <text x="10" y="707" font-size="18" fill="#ffffff">9. 中性子星合体とキロノバ</text>
  <rect x="230" y="680" width="180" height="55" fill="#8B8682" opacity="1" rx="5" ry="5" />
  <text x="320" y="712" font-size="16" fill="#ffffff" text-anchor="middle">場</text>
  <rect x="420" y="680" width="180" height="55" fill="#5B8DB8" opacity="1" rx="5" ry="5" />
  <text x="510" y="712" font-size="16" fill="#ffffff" text-anchor="middle">波</text>
  <rect x="610" y="680" width="180" height="55" fill="#D4A857" opacity="1" rx="5" ry="5" />
  <text x="700" y="712" font-size="16" fill="#ffffff" text-anchor="middle">縁</text>
  <rect x="800" y="680" width="180" height="55" fill="#C45B4D" opacity="1" rx="5" ry="5" />
  <text x="890" y="712" font-size="16" fill="#ffffff" text-anchor="middle">渦</text>
  <rect x="990" y="680" width="180" height="55" fill="#5B8B6A" opacity="1" rx="5" ry="5" />
  <text x="1080" y="712" font-size="16" fill="#ffffff" text-anchor="middle">束</text>
  <text x="10" y="772" font-size="18" fill="#ffffff">10. 球状星団の力学進化</text>
  <rect x="230" y="745" width="180" height="55" fill="#8B8682" opacity="0.3" rx="5" ry="5" />
  <text x="320" y="777" font-size="16" fill="#aaaaaa" text-anchor="middle">場</text>
  <rect x="420" y="745" width="180" height="55" fill="#5B8DB8" opacity="0.3" rx="5" ry="5" />
  <text x="510" y="777" font-size="16" fill="#aaaaaa" text-anchor="middle">波</text>
  <rect x="610" y="745" width="180" height="55" fill="#D4A857" opacity="0.3" rx="5" ry="5" />
  <text x="700" y="777" font-size="16" fill="#aaaaaa" text-anchor="middle">縁</text>
  <rect x="800" y="745" width="180" height="55" fill="#C45B4D" opacity="0.3" rx="5" ry="5" />
  <text x="890" y="777" font-size="16" fill="#aaaaaa" text-anchor="middle">渦</text>
  <rect x="990" y="745" width="180" height="55" fill="#5B8B6A" opacity="0.3" rx="5" ry="5" />
  <text x="1080" y="777" font-size="16" fill="#aaaaaa" text-anchor="middle">束</text>
  <rect x="50" y="820" width="40" height="25" fill="#8B8682" opacity="1" rx="5" ry="5" />
  <text x="100" y="837" font-size="16" fill="#ffffff">強い対応 (Strong)</text>
  <rect x="50" y="855" width="40" height="25" fill="#8B8682" opacity="0.7" rx="5" ry="5" />
  <text x="100" y="872" font-size="16" fill="#e0e0e0">部分的 (Partial)</text>
  <rect x="50" y="890" width="40" height="25" fill="#8B8682" opacity="0.3" rx="5" ry="5" />
  <text x="100" y="907" font-size="16" fill="#aaaaaa">条件付き/弱い (Conditional/Weak)</text>
</svg>