<svg viewBox="0 0 1200 900" font-family="sans-serif">
  <rect x="0" y="0" width="1200" height="900" fill="#1a1a2e" />
  <text x="600" y="60" text-anchor="middle" fill="#ffffff" font-size="30">10工学・情報科学理論と5段階モデルの対応関係マトリクス</text>
  <rect x="230" y="100" width="180" height="50" fill="#8B8682" rx="5" ry="5" />
  <text x="320" y="125" text-anchor="middle" dominant-baseline="middle" fill="#ffffff" font-size="20">場</text>
  <rect x="420" y="100" width="180" height="50" fill="#5B8DB8" rx="5" ry="5" />
  <text x="510" y="125" text-anchor="middle" dominant-baseline="middle" fill="#ffffff" font-size="20">波</text>
  <rect x="610" y="100" width="180" height="50" fill="#D4A857" rx="5" ry="5" />
  <text x="700" y="125" text-anchor="middle" dominant-baseline="middle" fill="#ffffff" font-size="20">縁</text>
  <rect x="800" y="100" width="180" height="50" fill="#C45B4D" rx="5" ry="5" />
  <text x="890" y="125" text-anchor="middle" dominant-baseline="middle" fill="#ffffff" font-size="20">渦</text>
  <rect x="990" y="100" width="180" height="50" fill="#5B8B6A" rx="5" ry="5" />
  <text x="1080" y="125" text-anchor="middle" dominant-baseline="middle" fill="#ffffff" font-size="20">束</text>
  <text x="10" y="187.5" dominant-baseline="middle" fill="#ffffff" font-size="18">1. フィードバック制御系</text>
  <rect x="230" y="160" width="180" height="55" fill="#8B8682" opacity="1" rx="5" ry="5" />
  <text x="320" y="187.5" text-anchor="middle" dominant-baseline="middle" fill="#ffffff" font-size="18">場</text>
  <rect x="420" y="160" width="180" height="55" fill="#5B8DB8" opacity="1" rx="5" ry="5" />
  <text x="510" y="187.5" text-anchor="middle" dominant-baseline="middle" fill="#ffffff" font-size="18">波</text>
  <rect x="610" y="160" width="180" height="55" fill="#D4A857" opacity="1" rx="5" ry="5" />
  <text x="700" y="187.5" text-anchor="middle" dominant-baseline="middle" fill="#ffffff" font-size="18">縁</text>
  <rect x="800" y="160" width="180" height="55" fill="#C45B4D" opacity="1" rx="5" ry="5" />
  <text x="890" y="187.5" text-anchor="middle" dominant-baseline="middle" fill="#ffffff" font-size="18">渦</text>
  <rect x="990" y="160" width="180" height="55" fill="#5B8B6A" opacity="1" rx="5" ry="5" />
  <text x="1080" y="187.5" text-anchor="middle" dominant-baseline="middle" fill="#ffffff" font-size="18">束</text>
  <text x="10" y="252.5" dominant-baseline="middle" fill="#ffffff" font-size="18">2. PDCA改善サイクル</text>
  <rect x="230" y="225" width="180" height="55" fill="#8B8682" opacity="0.7" rx="5" ry="5" />
  <text x="320" y="252.5" text-anchor="middle" dominant-baseline="middle" fill="#e0e0e0" font-size="18">場</text>
  <rect x="420" y="225" width="180" height="55" fill="#5B8DB8" opacity="0.7" rx="5" ry="5" />
  <text x="510" y="252.5" text-anchor="middle" dominant-baseline="middle" fill="#e0e0e0" font-size="18">波</text>
  <rect x="610" y="225" width="180" height="55" fill="#D4A857" opacity="0.7" rx="5" ry="5" />
  <text x="700" y="252.5" text-anchor="middle" dominant-baseline="middle" fill="#e0e0e0" font-size="18">縁</text>
  <rect x="800" y="225" width="180" height="55" fill="#C45B4D" opacity="0.7" rx="5" ry="5" />
  <text x="890" y="252.5" text-anchor="middle" dominant-baseline="middle" fill="#e0e0e0" font-size="18">渦</text>
  <rect x="990" y="225" width="180" height="55" fill="#5B8B6A" opacity="0.7" rx="5" ry="5" />
  <text x="1080" y="252.5" text-anchor="middle" dominant-baseline="middle" fill="#e0e0e0" font-size="18">束</text>
  <text x="10" y="317.5" dominant-baseline="middle" fill="#ffffff" font-size="18">3. TCP輻輳制御（AIMD）</text>
  <rect x="230" y="290" width="180" height="55" fill="#8B8682" opacity="0.2" rx="5" ry="5" />
  <text x="320" y="317.5" text-anchor="middle" dominant-baseline="middle" fill="#888888" font-size="18">-</text>
  <rect x="420" y="290" width="180" height="55" fill="#5B8DB8" opacity="0.7" rx="5" ry="5" />
  <text x="510" y="317.5" text-anchor="middle" dominant-baseline="middle" fill="#e0e0e0" font-size="18">波</text>
  <rect x="610" y="290" width="180" height="55" fill="#D4A857" opacity="0.2" rx="5" ry="5" />
  <text x="700" y="317.5" text-anchor="middle" dominant-baseline="middle" fill="#888888" font-size="18">-</text>
  <rect x="800" y="290" width="180" height="55" fill="#C45B4D" opacity="0.7" rx="5" ry="5" />
  <text x="890" y="317.5" text-anchor="middle" dominant-baseline="middle" fill="#e0e0e0" font-size="18">渦</text>
  <rect x="990" y="290" width="180" height="55" fill="#5B8B6A" opacity="0.7" rx="5" ry="5" />
  <text x="1080" y="317.5" text-anchor="middle" dominant-baseline="middle" fill="#e0e0e0" font-size="18">束</text>
  <text x="10" y="382.5" dominant-baseline="middle" fill="#ffffff" font-size="18">4. 深層学習（誤差逆伝播）</text>
  <rect x="230" y="355" width="180" height="55" fill="#8B8682" opacity="1" rx="5" ry="5" />
  <text x="320" y="382.5" text-anchor="middle" dominant-baseline="middle" fill="#ffffff" font-size="18">場</text>
  <rect x="420" y="355" width="180" height="55" fill="#5B8DB8" opacity="1" rx="5" ry="5" />
  <text x="510" y="382.5" text-anchor="middle" dominant-baseline="middle" fill="#ffffff" font-size="18">波</text>
  <rect x="610" y="355" width="180" height="55" fill="#D4A857" opacity="1" rx="5" ry="5" />
  <text x="700" y="382.5" text-anchor="middle" dominant-baseline="middle" fill="#ffffff" font-size="18">縁</text>
  <rect x="800" y="355" width="180" height="55" fill="#C45B4D" opacity="1" rx="5" ry="5" />
  <text x="890" y="382.5" text-anchor="middle" dominant-baseline="middle" fill="#ffffff" font-size="18">渦</text>
  <rect x="990" y="355" width="180" height="55" fill="#5B8B6A" opacity="1" rx="5" ry="5" />
  <text x="1080" y="382.5" text-anchor="middle" dominant-baseline="middle" fill="#ffffff" font-size="18">束</text>
  <text x="10" y="447.5" dominant-baseline="middle" fill="#ffffff" font-size="18">5. 情報理論（通信路容量）</text>
  <rect x="230" y="420" width="180" height="55" fill="#8B8682" opacity="0.7" rx="5" ry="5" />
  <text x="320" y="447.5" text-anchor="middle" dominant-baseline="middle" fill="#e0e0e0" font-size="18">場</text>
  <rect x="420" y="420" width="180" height="55" fill="#5B8DB8" opacity="0.2" rx="5" ry="5" />
  <text x="510" y="447.5" text-anchor="middle" dominant-baseline="middle" fill="#888888" font-size="18">-</text>
  <rect x="610" y="420" width="180" height="55" fill="#D4A857" opacity="0.7" rx="5" ry="5" />
  <text x="700" y="447.5" text-anchor="middle" dominant-baseline="middle" fill="#e0e0e0" font-size="18">縁</text>
  <rect x="800" y="420" width="180" height="55" fill="#C45B4D" opacity="0.2" rx="5" ry="5" />
  <text x="890" y="447.5" text-anchor="middle" dominant-baseline="middle" fill="#888888" font-size="18">-</text>
  <rect x="990" y="420" width="180" height="55" fill="#5B8B6A" opacity="0.7" rx="5" ry="5" />
  <text x="1080" y="447.5" text-anchor="middle" dominant-baseline="middle" fill="#e0e0e0" font-size="18">束</text>
  <text x="10" y="512.5" dominant-baseline="middle" fill="#ffffff" font-size="18">6. 圧縮センシング</text>
  <rect x="230" y="485" width="180" height="55" fill="#8B8682" opacity="0.7" rx="5" ry="5" />
  <text x="320" y="512.5" text-anchor="middle" dominant-baseline="middle" fill="#e0e0e0" font-size="18">場</text>
  <rect x="420" y="485" width="180" height="55" fill="#5B8DB8" opacity="0.2" rx="5" ry="5" />
  <text x="510" y="512.5" text-anchor="middle" dominant-baseline="middle" fill="#888888" font-size="18">-</text>
  <rect x="610" y="485" width="180" height="55" fill="#D4A857" opacity="0.7" rx="5" ry="5" />
  <text x="700" y="512.5" text-anchor="middle" dominant-baseline="middle" fill="#e0e0e0" font-size="18">縁</text>
  <rect x="800" y="485" width="180" height="55" fill="#C45B4D" opacity="0.2" rx="5" ry="5" />
  <text x="890" y="512.5" text-anchor="middle" dominant-baseline="middle" fill="#888888" font-size="18">-</text>
  <rect x="990" y="485" width="180" height="55" fill="#5B8B6A" opacity="0.2" rx="5" ry="5" />
  <text x="1080" y="512.5" text-anchor="middle" dominant-baseline="middle" fill="#888888" font-size="18">-</text>
  <text x="10" y="577.5" dominant-baseline="middle" fill="#ffffff" font-size="18">7. 強化学習</text>
  <rect x="230" y="550" width="180" height="55" fill="#8B8682" opacity="1" rx="5" ry="5" />
  <text x="320" y="577.5" text-anchor="middle" dominant-baseline="middle" fill="#ffffff" font-size="18">場</text>
  <rect x="420" y="550" width="180" height="55" fill="#5B8DB8" opacity="1" rx="5" ry="5" />
  <text x="510" y="577.5" text-anchor="middle" dominant-baseline="middle" fill="#ffffff" font-size="18">波</text>
  <rect x="610" y="550" width="180" height="55" fill="#D4A857" opacity="1" rx="5" ry="5" />
  <text x="700" y="577.5" text-anchor="middle" dominant-baseline="middle" fill="#ffffff" font-size="18">縁</text>
  <rect x="800" y="550" width="180" height="55" fill="#C45B4D" opacity="1" rx="5" ry="5" />
  <text x="890" y="577.5" text-anchor="middle" dominant-baseline="middle" fill="#ffffff" font-size="18">渦</text>
  <rect x="990" y="550" width="180" height="55" fill="#5B8B6A" opacity="1" rx="5" ry="5" />
  <text x="1080" y="577.5" text-anchor="middle" dominant-baseline="middle" fill="#ffffff" font-size="18">束</text>
  <text x="10" y="642.5" dominant-baseline="middle" fill="#ffffff" font-size="18">8. 進化的計算（遺伝的アルゴリズム）</text>
  <rect x="230" y="615" width="180" height="55" fill="#8B8682" opacity="0.2" rx="5" ry="5" />
  <text x="320" y="642.5" text-anchor="middle" dominant-baseline="middle" fill="#888888" font-size="18">-</text>
  <rect x="420" y="615" width="180" height="55" fill="#5B8DB8" opacity="0.7" rx="5" ry="5" />
  <text x="510" y="642.5" text-anchor="middle" dominant-baseline="middle" fill="#e0e0e0" font-size="18">波</text>
  <rect x="610" y="615" width="180" height="55" fill="#D4A857" opacity="0.2" rx="5" ry="5" />
  <text x="700" y="642.5" text-anchor="middle" dominant-baseline="middle" fill="#888888" font-size="18">-</text>
  <rect x="800" y="615" width="180" height="55" fill="#C45B4D" opacity="0.7" rx="5" ry="5" />
  <text x="890" y="642.5" text-anchor="middle" dominant-baseline="middle" fill="#e0e0e0" font-size="18">渦</text>
  <rect x="990" y="615" width="180" height="55" fill="#5B8B6A" opacity="0.2" rx="5" ry="5" />
  <text x="1080" y="642.5" text-anchor="middle" dominant-baseline="middle" fill="#888888" font-size="18">-</text>
  <text x="10" y="707.5" dominant-baseline="middle" fill="#ffffff" font-size="18">9. ソフトウェアリファクタリング</text>
  <rect x="230" y="680" width="180" height="55" fill="#8B8682" opacity="0.2" rx="5" ry="5" />
  <text x="320" y="707.5" text-anchor="middle" dominant-baseline="middle" fill="#888888" font-size="18">-</text>
  <rect x="420" y="680" width="180" height="55" fill="#5B8DB8" opacity="0.3" rx="5" ry="5" />
  <text x="510" y="707.5" text-anchor="middle" dominant-baseline="middle" fill="#aaaaaa" font-size="18">波</text>
  <rect x="610" y="680" width="180" height="55" fill="#D4A857" opacity="0.2" rx="5" ry="5" />
  <text x="700" y="707.5" text-anchor="middle" dominant-baseline="middle" fill="#888888" font-size="18">-</text>
  <rect x="800" y="680" width="180" height="55" fill="#C45B4D" opacity="0.2" rx="5" ry="5" />
  <text x="890" y="707.5" text-anchor="middle" dominant-baseline="middle" fill="#888888" font-size="18">-</text>
  <rect x="990" y="680" width="180" height="55" fill="#5B8B6A" opacity="0.2" rx="5" ry="5" />
  <text x="1080" y="707.5" text-anchor="middle" dominant-baseline="middle" fill="#888888" font-size="18">-</text>
  <text x="10" y="772.5" dominant-baseline="middle" fill="#ffffff" font-size="18">10. 暗号プロトコルと鍵交換</text>
  <rect x="230" y="745" width="180" height="55" fill="#8B8682" opacity="0.7" rx="5" ry="5" />
  <text x="320" y="772.5" text-anchor="middle" dominant-baseline="middle" fill="#e0e0e0" font-size="18">場</text>
  <rect x="420" y="745" width="180" height="55" fill="#5B8DB8" opacity="0.2" rx="5" ry="5" />
  <text x="510" y="772.5" text-anchor="middle" dominant-baseline="middle" fill="#888888" font-size="18">-</text>
  <rect x="610" y="745" width="180" height="55" fill="#D4A857" opacity="0.2" rx="5" ry="5" />
  <text x="700" y="772.5" text-anchor="middle" dominant-baseline="middle" fill="#888888" font-size="18">-</text>
  <rect x="800" y="745" width="180" height="55" fill="#C45B4D" opacity="0.2" rx="5" ry="5" />
  <text x="890" y="772.5" text-anchor="middle" dominant-baseline="middle" fill="#888888" font-size="18">-</text>
  <rect x="990" y="745" width="180" height="55" fill="#5B8B6A" opacity="0.7" rx="5" ry="5" />
  <text x="1080" y="772.5" text-anchor="middle" dominant-baseline="middle" fill="#e0e0e0" font-size="18">束</text>
  <rect x="10" y="830" width="30" height="20" fill="#8B8682" opacity="1" rx="5" ry="5" />
  <text x="50" y="840" dominant-baseline="middle" fill="#ffffff" font-size="16">強い対応 (Strong)</text>
  <rect x="210" y="830" width="30" height="20" fill="#8B8682" opacity="0.7" rx="5" ry="5" />
  <text x="250" y="840" dominant-baseline="middle" fill="#ffffff" font-size="16">部分的 (Partial)</text>
  <rect x="410" y="830" width="30" height="20" fill="#8B8682" opacity="0.3" rx="5" ry="5" />
  <text x="450" y="840" dominant-baseline="middle" fill="#ffffff" font-size="16">条件付き/弱い (Conditional/Weak)</text>
</svg>