<svg viewBox="0 0 1200 950" font-family="sans-serif" xmlns="http://www.w3.org/2000/svg">
  <!-- Background -->
  <rect x="0" y="0" width="1200" height="950" fill="#1a1a2e"/>

  <!-- Title -->
  <text x="600" y="50" text-anchor="middle" font-size="30" fill="#ffffff">11生命科学理論と5段階モデルの対応関係マトリクス</text>

  <!-- Column Headers -->
  <g>
    <!-- 場 (Field) -->
    <rect x="230" y="100" width="180" height="50" fill="#8B8682" rx="5" ry="5"/>
    <text x="320" y="133" text-anchor="middle" font-size="20" fill="#ffffff">場</text>
    <!-- 波 (Wave) -->
    <rect x="420" y="100" width="180" height="50" fill="#5B8DB8" rx="5" ry="5"/>
    <text x="510" y="133" text-anchor="middle" font-size="20" fill="#ffffff">波</text>
    <!-- 縁 (Edge) -->
    <rect x="610" y="100" width="180" height="50" fill="#D4A857" rx="5" ry="5"/>
    <text x="700" y="133" text-anchor="middle" font-size="20" fill="#ffffff">縁</text>
    <!-- 渦 (Vortex) -->
    <rect x="800" y="100" width="180" height="50" fill="#C45B4D" rx="5" ry="5"/>
    <text x="890" y="133" text-anchor="middle" font-size="20" fill="#ffffff">渦</text>
    <!-- 束 (Bundle) -->
    <rect x="990" y="100" width="180" height="50" fill="#5B8B6A" rx="5" ry="5"/>
    <text x="1080" y="133" text-anchor="middle" font-size="20" fill="#ffffff">束</text>
  </g>

  <!-- Theory Rows and Matrix Cells -->
  <g>
    <!-- Data for theories and stages -->
    <!-- Row 1: アストロサイト-ニューロン代謝連関 -->
    <text x="10" y="198" text-anchor="start" font-size="18" fill="#ffffff">1. アストロサイト-ニューロン代謝連関</text>
    <rect x="230" y="160" width="180" height="55" fill="#8B8682" opacity="0.7" rx="5" ry="5"/>
    <text x="320" y="198" text-anchor="middle" font-size="18" fill="#e0e0e0">場</text>
    <rect x="420" y="160" width="180" height="55" fill="#5B8DB8" opacity="0.7" rx="5" ry="5"/>
    <text x="510" y="198" text-anchor="middle" font-size="18" fill="#e0e0e0">波</text>
    <rect x="610" y="160" width="180" height="55" fill="#D4A857" opacity="0.2" rx="5" ry="5"/>
    <text x="700" y="198" text-anchor="middle" font-size="18" fill="#888888">-</text>
    <rect x="800" y="160" width="180" height="55" fill="#C45B4D" opacity="0.2" rx="5" ry="5"/>
    <text x="890" y="198" text-anchor="middle" font-size="18" fill="#888888">-</text>
    <rect x="990" y="160" width="180" height="55" fill="#5B8B6A" opacity="0.7" rx="5" ry="5"/>
    <text x="1080" y="198" text-anchor="middle" font-size="18" fill="#e0e0e0">束</text>

    <!-- Row 2: ミトコンドリア代謝と神経信号コスト -->
    <text x="10" y="263" text-anchor="start" font-size="18" fill="#ffffff">2. ミトコンドリア代謝と神経信号コスト</text>
    <rect x="230" y="225" width="180" height="55" fill="#8B8682" opacity="0.3" rx="5" ry="5"/>
    <text x="320" y="263" text-anchor="middle" font-size="18" fill="#aaaaaa">場</text>
    <rect x="420" y="225" width="180" height="55" fill="#5B8DB8" opacity="0.2" rx="5" ry="5"/>
    <text x="510" y="263" text-anchor="middle" font-size="18" fill="#888888">-</text>
    <rect x="610" y="225" width="180" height="55" fill="#D4A857" opacity="0.2" rx="5" ry="5"/>
    <text x="700" y="263" text-anchor="middle" font-size="18" fill="#888888">-</text>
    <rect x="800" y="225" width="180" height="55" fill="#C45B4D" opacity="0.2" rx="5" ry="5"/>
    <text x="890" y="263" text-anchor="middle" font-size="18" fill="#888888">-</text>
    <rect x="990" y="225" width="180" height="55" fill="#5B8B6A" opacity="0.2" rx="5" ry="5"/>
    <text x="1080" y="263" text-anchor="middle" font-size="18" fill="#888888">-</text>

    <!-- Row 3: ミクログリアとシナプス刈り込み -->
    <text x="10" y="328" text-anchor="start" font-size="18" fill="#ffffff">3. ミクログリアとシナプス刈り込み</text>
    <rect x="230" y="290" width="180" height="55" fill="#8B8682" opacity="0.2" rx="5" ry="5"/>
    <text x="320" y="328" text-anchor="middle" font-size="18" fill="#888888">-</text>
    <rect x="420" y="290" width="180" height="55" fill="#5B8DB8" opacity="0.7" rx="5" ry="5"/>
    <text x="510" y="328" text-anchor="middle" font-size="18" fill="#e0e0e0">波</text>
    <rect x="610" y="290" width="180" height="55" fill="#D4A857" opacity="0.2" rx="5" ry="5"/>
    <text x="700" y="328" text-anchor="middle" font-size="18" fill="#888888">-</text>
    <rect x="800" y="290" width="180" height="55" fill="#C45B4D" opacity="0.7" rx="5" ry="5"/>
    <text x="890" y="328" text-anchor="middle" font-size="18" fill="#e0e0e0">渦</text>
    <rect x="990" y="290" width="180" height="55" fill="#5B8B6A" opacity="0.7" rx="5" ry="5"/>
    <text x="1080" y="328" text-anchor="middle" font-size="18" fill="#e0e0e0">束</text>

    <!-- Row 4: 経験依存的ミエリン化 -->
    <text x="10" y="393" text-anchor="start" font-size="18" fill="#ffffff">4. 経験依存的ミエリン化</text>
    <rect x="230" y="355" width="180" height="55" fill="#8B8682" opacity="0.2" rx="5" ry="5"/>
    <text x="320" y="393" text-anchor="middle" font-size="18" fill="#888888">-</text>
    <rect x="420" y="355" width="180" height="55" fill="#5B8DB8" opacity="0.2" rx="5" ry="5"/>
    <text x="510" y="393" text-anchor="middle" font-size="18" fill="#888888">-</text>
    <rect x="610" y="355" width="180" height="55" fill="#D4A857" opacity="0.2" rx="5" ry="5"/>
    <text x="700" y="393" text-anchor="middle" font-size="18" fill="#888888">-</text>
    <rect x="800" y="355" width="180" height="55" fill="#C45B4D" opacity="0.2" rx="5" ry="5"/>
    <text x="890" y="393" text-anchor="middle" font-size="18" fill="#888888">-</text>
    <rect x="990" y="355" width="180" height="55" fill="#5B8B6A" opacity="0.3" rx="5" ry="5"/>
    <text x="1080" y="393" text-anchor="middle" font-size="18" fill="#aaaaaa">束</text>

    <!-- Row 5: アロスタティック負荷 -->
    <text x="10" y="458" text-anchor="start" font-size="18" fill="#ffffff">5. アロスタティック負荷</text>
    <rect x="230" y="420" width="180" height="55" fill="#8B8682" opacity="0.2" rx="5" ry="5"/>
    <text x="320" y="458" text-anchor="middle" font-size="18" fill="#888888">-</text>
    <rect x="420" y="420" width="180" height="55" fill="#5B8DB8" opacity="0.7" rx="5" ry="5"/>
    <text x="510" y="458" text-anchor="middle" font-size="18" fill="#e0e0e0">波</text>
    <rect x="610" y="420" width="180" height="55" fill="#D4A857" opacity="0.2" rx="5" ry="5"/>
    <text x="700" y="458" text-anchor="middle" font-size="18" fill="#888888">-</text>
    <rect x="800" y="420" width="180" height="55" fill="#C45B4D" opacity="0.2" rx="5" ry="5"/>
    <text x="890" y="458" text-anchor="middle" font-size="18" fill="#888888">-</text>
    <rect x="990" y="420" width="180" height="55" fill="#5B8B6A" opacity="0.7" rx="5" ry="5"/>
    <text x="1080" y="458" text-anchor="middle" font-size="18" fill="#e0e0e0">束</text>

    <!-- Row 6: グリンパティック系と睡眠 -->
    <text x="10" y="523" text-anchor="start" font-size="18" fill="#ffffff">6. グリンパティック系と睡眠</text>
    <rect x="230" y="485" width="180" height="55" fill="#8B8682" opacity="0.3" rx="5" ry="5"/>
    <text x="320" y="523" text-anchor="middle" font-size="18" fill="#aaaaaa">場</text>
    <rect x="420" y="485" width="180" height="55" fill="#5B8DB8" opacity="0.2" rx="5" ry="5"/>
    <text x="510" y="523" text-anchor="middle" font-size="18" fill="#888888">-</text>
    <rect x="610" y="485" width="180" height="55" fill="#D4A857" opacity="0.2" rx="5" ry="5"/>
    <text x="700" y="523" text-anchor="middle" font-size="18" fill="#888888">-</text>
    <rect x="800" y="485" width="180" height="55" fill="#C45B4D" opacity="0.2" rx="5" ry="5"/>
    <text x="890" y="523" text-anchor="middle" font-size="18" fill="#888888">-</text>
    <rect x="990" y="485" width="180" height="55" fill="#5B8B6A" opacity="0.3" rx="5" ry="5"/>
    <text x="1080" y="523" text-anchor="middle" font-size="18" fill="#aaaaaa">束</text>

    <!-- Row 7: ドーパミン報酬予測誤差 -->
    <text x="10" y="588" text-anchor="start" font-size="18" fill="#ffffff">7. ドーパミン報酬予測誤差</text>
    <rect x="230" y="550" width="180" height="55" fill="#8B8682" opacity="0.7" rx="5" ry="5"/>
    <text x="320" y="588" text-anchor="middle" font-size="18" fill="#e0e0e0">場</text>
    <rect x="420" y="550" width="180" height="55" fill="#5B8DB8" opacity="0.7" rx="5" ry="5"/>
    <text x="510" y="588" text-anchor="middle" font-size="18" fill="#e0e0e0">波</text>
    <rect x="610" y="550" width="180" height="55" fill="#D4A857" opacity="0.2" rx="5" ry="5"/>
    <text x="700" y="588" text-anchor="middle" font-size="18" fill="#888888">-</text>
    <rect x="800" y="550" width="180" height="55" fill="#C45B4D" opacity="0.2" rx="5" ry="5"/>
    <text x="890" y="588" text-anchor="middle" font-size="18" fill="#888888">-</text>
    <rect x="990" y="550" width="180" height="55" fill="#5B8B6A" opacity="0.2" rx="5" ry="5"/>
    <text x="1080" y="588" text-anchor="middle" font-size="18" fill="#888888">-</text>

    <!-- Row 8: 有性生殖の構造 -->
    <text x="10" y="653" text-anchor="start" font-size="18" fill="#ffffff">8. 有性生殖の構造</text>
    <rect x="230" y="615" width="180" height="55" fill="#8B8682" opacity="1" rx="5" ry="5"/>
    <text x="320" y="653" text-anchor="middle" font-size="18" fill="#ffffff">場</text>
    <rect x="420" y="615" width="180" height="55" fill="#5B8DB8" opacity="1" rx="5" ry="5"/>
    <text x="510" y="653" text-anchor="middle" font-size="18" fill="#ffffff">波</text>
    <rect x="610" y="615" width="180" height="55" fill="#D4A857" opacity="1" rx="5" ry="5"/>
    <text x="700" y="653" text-anchor="middle" font-size="18" fill="#ffffff">縁</text>
    <rect x="800" y="615" width="180" height="55" fill="#C45B4D" opacity="1" rx="5" ry="5"/>
    <text x="890" y="653" text-anchor="middle" font-size="18" fill="#ffffff">渦</text>
    <rect x="990" y="615" width="180" height="55" fill="#5B8B6A" opacity="1" rx="5" ry="5"/>
    <text x="1080" y="653" text-anchor="middle" font-size="18" fill="#ffffff">束</text>

    <!-- Row 9: オートファジー -->
    <text x="10" y="718" text-anchor="start" font-size="18" fill="#ffffff">9. オートファジー</text>
    <rect x="230" y="680" width="180" height="55" fill="#8B8682" opacity="0.2" rx="5" ry="5"/>
    <text x="320" y="718" text-anchor="middle" font-size="18" fill="#888888">-</text>
    <rect x="420" y="680" width="180" height="55" fill="#5B8DB8" opacity="0.2" rx="5" ry="5"/>
    <text x="510" y="718" text-anchor="middle" font-size="18" fill="#888888">-</text>
    <rect x="610" y="680" width="180" height="55" fill="#D4A857" opacity="0.2" rx="5" ry="5"/>
    <text x="700" y="718" text-anchor="middle" font-size="18" fill="#888888">-</text>
    <rect x="800" y="680" width="180" height="55" fill="#C45B4D" opacity="0.7" rx="5" ry="5"/>
    <text x="890" y="718" text-anchor="middle" font-size="18" fill="#e0e0e0">渦</text>
    <rect x="990" y="680" width="180" height="55" fill="#5B8B6A" opacity="0.2" rx="5" ry="5"/>
    <text x="1080" y="718" text-anchor="middle" font-size="18" fill="#888888">-</text>

    <!-- Row 10: モルフォゲン勾配と形態形成 -->
    <text x="10" y="783" text-anchor="start" font-size="18" fill="#ffffff">10. モルフォゲン勾配と形態形成</text>
    <rect x="230" y="745" width="180" height="55" fill="#8B8682" opacity="0.7" rx="5" ry="5"/>
    <text x="320" y="783" text-anchor="middle" font-size="18" fill="#e0e0e0">場</text>
    <rect x="420" y="745" width="180" height="55" fill="#5B8DB8" opacity="0.7" rx="5" ry="5"/>
    <text x="510" y="783" text-anchor="middle" font-size="18" fill="#e0e0e0">波</text>
    <rect x="610" y="745" width="180" height="55" fill="#D4A857" opacity="0.2" rx="5" ry="5"/>
    <text x="700" y="783" text-anchor="middle" font-size="18" fill="#888888">-</text>
    <rect x="800" y="745" width="180" height="55" fill="#C45B4D" opacity="0.2" rx="5" ry="5"/>
    <text x="890" y="783" text-anchor="middle" font-size="18" fill="#888888">-</text>
    <rect x="990" y="745" width="180" height="55" fill="#5B8B6A" opacity="0.2" rx="5" ry="5"/>
    <text x="1080" y="783" text-anchor="middle" font-size="18" fill="#888888">-</text>

    <!-- Row 11: 獲得免疫のクローン選択 -->
    <text x="10" y="848" text-anchor="start" font-size="18" fill="#ffffff">11. 獲得免疫のクローン選択</text>
    <rect x="230" y="810" width="180" height="55" fill="#8B8682" opacity="1" rx="5" ry="5"/>
    <text x="320" y="848" text-anchor="middle" font-size="18" fill="#ffffff">場</text>
    <rect x="420" y="810" width="180" height="55" fill="#5B8DB8" opacity="1" rx="5" ry="5"/>
    <text x="510" y="848" text-anchor="middle" font-size="18" fill="#ffffff">波</text>
    <rect x="610" y="810" width="180" height="55" fill="#D4A857" opacity="1" rx="5" ry="5"/>
    <text x="700" y="848" text-anchor="middle" font-size="18" fill="#ffffff">縁</text>
    <rect x="800" y="810" width="180" height="55" fill="#C45B4D" opacity="1" rx="5" ry="5"/>
    <text x="890" y="848" text-anchor="middle" font-size="18" fill="#ffffff">渦</text>
    <rect x="990" y="810" width="180" height="55" fill="#5B8B6A" opacity="1" rx="5" ry="5"/>
    <text x="1080" y="848" text-anchor="middle" font-size="18" fill="#ffffff">束</text>
  </g>

  <!-- Legend -->
  <g>
    <!-- Strong -->
    <rect x="50" y="880" width="40" height="25" fill="#8B8682" opacity="1" rx="5" ry="5"/>
    <text x="100" y="898" font-size="18" fill="#ffffff">強い対応 (Strong)</text>

    <!-- Partial -->
    <rect x="300" y="880" width="40" height="25" fill="#8B8682" opacity="0.7" rx="5" ry="5"/>
    <text x="350" y="898" font-size="18" fill="#e0e0e0">部分的 (Partial)</text>

    <!-- Conditional -->
    <rect x="550" y="880" width="40" height="25" fill="#8B8682" opacity="0.3" rx="5" ry="5"/>
    <text x="600" y="898" font-size="18" fill="#aaaaaa">条件付き/弱い (Conditional/Weak)</text>
  </g>
</svg>