<svg xmlns="http://www.w3.org/2000/svg" viewBox="0 0 1200 950" font-family="sans-serif">
  <!-- Background -->
  <rect x="0" y="0" width="1200" height="950" fill="#1a1a2e"/>

  <!-- Title -->
  <text x="600" y="50" font-size="30" fill="#ffffff" text-anchor="middle" font-weight="bold">
    10臨床医学・免疫学理論と5段階モデルの対応関係マトリクス
  </text>

  <!-- Column Headers -->
  <g>
    <rect x="230" y="120" width="180" height="55" rx="5" ry="5" fill="#8B8682"/>
    <text x="320" y="156" font-size="18" fill="#ffffff" text-anchor="middle" font-weight="bold">場</text>

    <rect x="420" y="120" width="180" height="55" rx="5" ry="5" fill="#5B8DB8"/>
    <text x="510" y="156" font-size="18" fill="#ffffff" text-anchor="middle" font-weight="bold">波</text>

    <rect x="610" y="120" width="180" height="55" rx="5" ry="5" fill="#D4A857"/>
    <text x="700" y="156" font-size="18" fill="#ffffff" text-anchor="middle" font-weight="bold">縁</text>

    <rect x="800" y="120" width="180" height="55" rx="5" ry="5" fill="#C45B4D"/>
    <text x="890" y="156" font-size="18" fill="#ffffff" text-anchor="middle" font-weight="bold">渦</text>

    <rect x="990" y="120" width="180" height="55" rx="5" ry="5" fill="#5B8B6A"/>
    <text x="1080" y="156" font-size="18" fill="#ffffff" text-anchor="middle" font-weight="bold">束</text>
  </g>

  <!-- Matrix Rows and Cells -->
  <g>
    <!-- Row 1: クローン選択説による適応免疫応答 -->
    <text x="10" y="221" font-size="16" fill="#ffffff" text-anchor="start">
      <tspan font-weight="bold">1.</tspan> クローン選択説による適応免疫応答
    </text>
    <rect x="230" y="185" width="180" height="55" rx="5" ry="5" fill="#8B8682" opacity="0.2"/>
    <text x="320" y="221" font-size="16" fill="#888888" text-anchor="middle">-</text>
    <rect x="420" y="185" width="180" height="55" rx="5" ry="5" fill="#5B8DB8" opacity="0.2"/>
    <text x="510" y="221" font-size="16" fill="#888888" text-anchor="middle">-</text>
    <rect x="610" y="185" width="180" height="55" rx="5" ry="5" fill="#D4A857" opacity="0.2"/>
    <text x="700" y="221" font-size="16" fill="#888888" text-anchor="middle">-</text>
    <rect x="800" y="185" width="180" height="55" rx="5" ry="5" fill="#C45B4D" opacity="0.2"/>
    <text x="890" y="221" font-size="16" fill="#888888" text-anchor="middle">-</text>
    <rect x="990" y="185" width="180" height="55" rx="5" ry="5" fill="#5B8B6A" opacity="0.2"/>
    <text x="1080" y="221" font-size="16" fill="#888888" text-anchor="middle">-</text>

    <!-- Row 2: がん免疫編集3E -->
    <text x="10" y="286" font-size="16" fill="#ffffff" text-anchor="start">
      <tspan font-weight="bold">2.</tspan> がん免疫編集3E
    </text>
    <rect x="230" y="250" width="180" height="55" rx="5" ry="5" fill="#8B8682" opacity="0.2"/>
    <text x="320" y="286" font-size="16" fill="#888888" text-anchor="middle">-</text>
    <rect x="420" y="250" width="180" height="55" rx="5" ry="5" fill="#5B8DB8" opacity="0.2"/>
    <text x="510" y="286" font-size="16" fill="#888888" text-anchor="middle">-</text>
    <rect x="610" y="250" width="180" height="55" rx="5" ry="5" fill="#D4A857" opacity="1"/>
    <text x="700" y="286" font-size="16" fill="#ffffff" text-anchor="middle">縁</text>
    <rect x="800" y="250" width="180" height="55" rx="5" ry="5" fill="#C45B4D" opacity="0.2"/>
    <text x="890" y="286" font-size="16" fill="#888888" text-anchor="middle">-</text>
    <rect x="990" y="250" width="180" height="55" rx="5" ry="5" fill="#5B8B6A" opacity="0.2"/>
    <text x="1080" y="286" font-size="16" fill="#888888" text-anchor="middle">-</text>

    <!-- Row 3: 急性炎症と能動的収束 -->
    <text x="10" y="351" font-size="16" fill="#ffffff" text-anchor="start">
      <tspan font-weight="bold">3.</tspan> 急性炎症と能動的収束
    </text>
    <rect x="230" y="315" width="180" height="55" rx="5" ry="5" fill="#8B8682" opacity="0.2"/>
    <text x="320" y="351" font-size="16" fill="#888888" text-anchor="middle">-</text>
    <rect x="420" y="315" width="180" height="55" rx="5" ry="5" fill="#5B8DB8" opacity="0.2"/>
    <text x="510" y="351" font-size="16" fill="#888888" text-anchor="middle">-</text>
    <rect x="610" y="315" width="180" height="55" rx="5" ry="5" fill="#D4A857" opacity="0.2"/>
    <text x="700" y="351" font-size="16" fill="#888888" text-anchor="middle">-</text>
    <rect x="800" y="315" width="180" height="55" rx="5" ry="5" fill="#C45B4D" opacity="0.2"/>
    <text x="890" y="351" font-size="16" fill="#888888" text-anchor="middle">-</text>
    <rect x="990" y="315" width="180" height="55" rx="5" ry="5" fill="#5B8B6A" opacity="1"/>
    <text x="1080" y="351" font-size="16" fill="#ffffff" text-anchor="middle">束</text>

    <!-- Row 4: 創傷治癒プロセス -->
    <text x="10" y="416" font-size="16" fill="#ffffff" text-anchor="start">
      <tspan font-weight="bold">4.</tspan> 創傷治癒プロセス
    </text>
    <rect x="230" y="380" width="180" height="55" rx="5" ry="5" fill="#8B8682" opacity="0.2"/>
    <text x="320" y="416" font-size="16" fill="#888888" text-anchor="middle">-</text>
    <rect x="420" y="380" width="180" height="55" rx="5" ry="5" fill="#5B8DB8" opacity="0.2"/>
    <text x="510" y="416" font-size="16" fill="#888888" text-anchor="middle">-</text>
    <rect x="610" y="380" width="180" height="55" rx="5" ry="5" fill="#D4A857" opacity="0.2"/>
    <text x="700" y="416" font-size="16" fill="#888888" text-anchor="middle">-</text>
    <rect x="800" y="380" width="180" height="55" rx="5" ry="5" fill="#C45B4D" opacity="0.2"/>
    <text x="890" y="416" font-size="16" fill="#888888" text-anchor="middle">-</text>
    <rect x="990" y="380" width="180" height="55" rx="5" ry="5" fill="#5B8B6A" opacity="0.2"/>
    <text x="1080" y="416" font-size="16" fill="#888888" text-anchor="middle">-</text>

    <!-- Row 5: 敗血症における免疫麻痺と回復 -->
    <text x="10" y="481" font-size="16" fill="#ffffff" text-anchor="start">
      <tspan font-weight="bold">5.</tspan> 敗血症における免疫麻痺と回復
    </text>
    <rect x="230" y="445" width="180" height="55" rx="5" ry="5" fill="#8B8682" opacity="0.2"/>
    <text x="320" y="481" font-size="16" fill="#888888" text-anchor="middle">-</text>
    <rect x="420" y="445" width="180" height="55" rx="5" ry="5" fill="#5B8DB8" opacity="0.2"/>
    <text x="510" y="481" font-size="16" fill="#888888" text-anchor="middle">-</text>
    <rect x="610" y="445" width="180" height="55" rx="5" ry="5" fill="#D4A857" opacity="0.2"/>
    <text x="700" y="481" font-size="16" fill="#888888" text-anchor="middle">-</text>
    <rect x="800" y="445" width="180" height="55" rx="5" ry="5" fill="#C45B4D" opacity="0.7"/>
    <text x="890" y="481" font-size="16" fill="#e0e0e0" text-anchor="middle">渦</text>
    <rect x="990" y="445" width="180" height="55" rx="5" ry="5" fill="#5B8B6A" opacity="0.2"/>
    <text x="1080" y="481" font-size="16" fill="#888888" text-anchor="middle">-</text>

    <!-- Row 6: 骨折修復プロセス -->
    <text x="10" y="546" font-size="16" fill="#ffffff" text-anchor="start">
      <tspan font-weight="bold">6.</tspan> 骨折修復プロセス
    </text>
    <rect x="230" y="510" width="180" height="55" rx="5" ry="5" fill="#8B8682" opacity="0.2"/>
    <text x="320" y="546" font-size="16" fill="#888888" text-anchor="middle">-</text>
    <rect x="420" y="510" width="180" height="55" rx="5" ry="5" fill="#5B8DB8" opacity="0.2"/>
    <text x="510" y="546" font-size="16" fill="#888888" text-anchor="middle">-</text>
    <rect x="610" y="510" width="180" height="55" rx="5" ry="5" fill="#D4A857" opacity="1"/>
    <text x="700" y="546" font-size="16" fill="#ffffff" text-anchor="middle">縁</text>
    <rect x="800" y="510" width="180" height="55" rx="5" ry="5" fill="#C45B4D" opacity="0.2"/>
    <text x="890" y="546" font-size="16" fill="#888888" text-anchor="middle">-</text>
    <rect x="990" y="510" width="180" height="55" rx="5" ry="5" fill="#5B8B6A" opacity="0.2"/>
    <text x="1080" y="546" font-size="16" fill="#888888" text-anchor="middle">-</text>

    <!-- Row 7: アレルギー感作と脱感作 -->
    <text x="10" y="611" font-size="16" fill="#ffffff" text-anchor="start">
      <tspan font-weight="bold">7.</tspan> アレルギー感作と脱感作
    </text>
    <rect x="230" y="575" width="180" height="55" rx="5" ry="5" fill="#8B8682" opacity="0.2"/>
    <text x="320" y="611" font-size="16" fill="#888888" text-anchor="middle">-</text>
    <rect x="420" y="575" width="180" height="55" rx="5" ry="5" fill="#5B8DB8" opacity="0.2"/>
    <text x="510" y="611" font-size="16" fill="#888888" text-anchor="middle">-</text>
    <rect x="610" y="575" width="180" height="55" rx="5" ry="5" fill="#D4A857" opacity="0.2"/>
    <text x="700" y="611" font-size="16" fill="#888888" text-anchor="middle">-</text>
    <rect x="800" y="575" width="180" height="55" rx="5" ry="5" fill="#C45B4D" opacity="0.2"/>
    <text x="890" y="611" font-size="16" fill="#888888" text-anchor="middle">-</text>
    <rect x="990" y="575" width="180" height="55" rx="5" ry="5" fill="#5B8B6A" opacity="1"/>
    <text x="1080" y="611" font-size="16" fill="#ffffff" text-anchor="middle">束</text>

    <!-- Row 8: 移植免疫拒絶と寛容誘導 -->
    <text x="10" y="676" font-size="16" fill="#ffffff" text-anchor="start">
      <tspan font-weight="bold">8.</tspan> 移植免疫拒絶と寛容誘導
    </text>
    <rect x="230" y="640" width="180" height="55" rx="5" ry="5" fill="#8B8682" opacity="0.2"/>
    <text x="320" y="676" font-size="16" fill="#888888" text-anchor="middle">-</text>
    <rect x="420" y="640" width="180" height="55" rx="5" ry="5" fill="#5B8DB8" opacity="0.2"/>
    <text x="510" y="676" font-size="16" fill="#888888" text-anchor="middle">-</text>
    <rect x="610" y="640" width="180" height="55" rx="5" ry="5" fill="#D4A857" opacity="1"/>
    <text x="700" y="676" font-size="16" fill="#ffffff" text-anchor="middle">縁</text>
    <rect x="800" y="640" width="180" height="55" rx="5" ry="5" fill="#C45B4D" opacity="0.2"/>
    <text x="890" y="676" font-size="16" fill="#888888" text-anchor="middle">-</text>
    <rect x="990" y="640" width="180" height="55" rx="5" ry="5" fill="#5B8B6A" opacity="0.2"/>
    <text x="1080" y="676" font-size="16" fill="#888888" text-anchor="middle">-</text>

    <!-- Row 9: 自己免疫疾患の発症プロセス -->
    <text x="10" y="741" font-size="16" fill="#ffffff" text-anchor="start">
      <tspan font-weight="bold">9.</tspan> 自己免疫疾患の発症プロセス
    </text>
    <rect x="230" y="705" width="180" height="55" rx="5" ry="5" fill="#8B8682" opacity="0.2"/>
    <text x="320" y="741" font-size="16" fill="#888888" text-anchor="middle">-</text>
    <rect x="420" y="705" width="180" height="55" rx="5" ry="5" fill="#5B8DB8" opacity="0.2"/>
    <text x="510" y="741" font-size="16" fill="#888888" text-anchor="middle">-</text>
    <rect x="610" y="705" width="180" height="55" rx="5" ry="5" fill="#D4A857" opacity="0.2"/>
    <text x="700" y="741" font-size="16" fill="#888888" text-anchor="middle">-</text>
    <rect x="800" y="705" width="180" height="55" rx="5" ry="5" fill="#C45B4D" opacity="0.7"/>
    <text x="890" y="741" font-size="16" fill="#e0e0e0" text-anchor="middle">渦</text>
    <rect x="990" y="705" width="180" height="55" rx="5" ry="5" fill="#5B8B6A" opacity="0.2"/>
    <text x="1080" y="741" font-size="16" fill="#888888" text-anchor="middle">-</text>

    <!-- Row 10: 胚中心反応と親和性成熟 -->
    <text x="10" y="806" font-size="16" fill="#ffffff" text-anchor="start">
      <tspan font-weight="bold">10.</tspan> 胚中心反応と親和性成熟
    </text>
    <rect x="230" y="770" width="180" height="55" rx="5" ry="5" fill="#8B8682" opacity="0.2"/>
    <text x="320" y="806" font-size="16" fill="#888888" text-anchor="middle">-</text>
    <rect x="420" y="770" width="180" height="55" rx="5" ry="5" fill="#5B8DB8" opacity="0.2"/>
    <text x="510" y="806" font-size="16" fill="#888888" text-anchor="middle">-</text>
    <rect x="610" y="770" width="180" height="55" rx="5" ry="5" fill="#D4A857" opacity="0.2"/>
    <text x="700" y="806" font-size="16" fill="#888888" text-anchor="middle">-</text>
    <rect x="800" y="770" width="180" height="55" rx="5" ry="5" fill="#C45B4D" opacity="0.2"/>
    <text x="890" y="806" font-size="16" fill="#888888" text-anchor="middle">-</text>
    <rect x="990" y="770" width="180" height="55" rx="5" ry="5" fill="#5B8B6A" opacity="0.2"/>
    <text x="1080" y="806" font-size="16" fill="#888888" text-anchor="middle">-</text>
  </g>

  <!-- Legend -->
  <g transform="translate(100, 855)">
    <text x="0" y="0" font-size="18" fill="#ffffff" font-weight="bold">凡例 (Legend):</text>

    <!-- Strong -->
    <rect x="0" y="30" width="30" height="20" rx="5" ry="5" fill="#D4A857" opacity="1"/>
    <text x="40" y="46" font-size="16" fill="#ffffff">強い対応 (Strong)</text>

    <!-- Partial -->
    <rect x="200" y="30" width="30" height="20" rx="5" ry="5" fill="#D4A857" opacity="0.7"/>
    <text x="240" y="46" font-size="16" fill="#e0e0e0">部分的 (Partial)</text>

    <!-- Conditional -->
    <rect x="400" y="30" width="30" height="20" rx="5" ry="5" fill="#D4A857" opacity="0.3"/>
    <text x="440" y="46" font-size="16" fill="#aaaaaa">条件付き/弱い (Conditional/Weak)</text>
  </g>
</svg>