<svg xmlns="http://www.w3.org/2000/svg" viewBox="0 0 1200 950" font-family="sans-serif">
  <rect x="0" y="0" width="1200" height="950" fill="#1a1a2e" />
  <text x="600" y="50" font-size="36" fill="#ffffff" text-anchor="middle" dominant-baseline="middle">11社会学理論と5段階モデルの対応関係マトリクス</text>
  <rect x="230" y="100" width="180" height="50" fill="#8B8682" rx="5" ry="5" />
  <text x="320" y="125" font-size="22" fill="#ffffff" text-anchor="middle" dominant-baseline="middle">場</text>
  <rect x="420" y="100" width="180" height="50" fill="#5B8DB8" rx="5" ry="5" />
  <text x="510" y="125" font-size="22" fill="#ffffff" text-anchor="middle" dominant-baseline="middle">波</text>
  <rect x="610" y="100" width="180" height="50" fill="#D4A857" rx="5" ry="5" />
  <text x="700" y="125" font-size="22" fill="#ffffff" text-anchor="middle" dominant-baseline="middle">縁</text>
  <rect x="800" y="100" width="180" height="50" fill="#C45B4D" rx="5" ry="5" />
  <text x="890" y="125" font-size="22" fill="#ffffff" text-anchor="middle" dominant-baseline="middle">渦</text>
  <rect x="990" y="100" width="180" height="50" fill="#5B8B6A" rx="5" ry="5" />
  <text x="1080" y="125" font-size="22" fill="#ffffff" text-anchor="middle" dominant-baseline="middle">束</text>
  <text x="10" y="177.5" font-size="18" fill="#ffffff" dominant-baseline="middle">1. 社会システム論</text>
  <rect x="230" y="150" width="180" height="55" fill="#8B8682" opacity="0.3" rx="5" ry="5" />
  <text x="320" y="177.5" font-size="18" fill="#aaaaaa" text-anchor="middle" dominant-baseline="middle">場</text>
  <rect x="420" y="150" width="180" height="55" fill="#5B8DB8" opacity="0.3" rx="5" ry="5" />
  <text x="510" y="177.5" font-size="18" fill="#aaaaaa" text-anchor="middle" dominant-baseline="middle">波</text>
  <rect x="610" y="150" width="180" height="55" fill="#D4A857" opacity="0.3" rx="5" ry="5" />
  <text x="700" y="177.5" font-size="18" fill="#aaaaaa" text-anchor="middle" dominant-baseline="middle">縁</text>
  <rect x="800" y="150" width="180" height="55" fill="#C45B4D" opacity="0.3" rx="5" ry="5" />
  <text x="890" y="177.5" font-size="18" fill="#aaaaaa" text-anchor="middle" dominant-baseline="middle">渦</text>
  <rect x="990" y="150" width="180" height="55" fill="#5B8B6A" opacity="0.3" rx="5" ry="5" />
  <text x="1080" y="177.5" font-size="18" fill="#aaaaaa" text-anchor="middle" dominant-baseline="middle">束</text>
  <text x="10" y="242.5" font-size="18" fill="#ffffff" dominant-baseline="middle">2. 構造化理論</text>
  <rect x="230" y="215" width="180" height="55" fill="#8B8682" opacity="1.0" rx="5" ry="5" />
  <text x="320" y="242.5" font-size="18" fill="#ffffff" text-anchor="middle" dominant-baseline="middle">場</text>
  <rect x="420" y="215" width="180" height="55" fill="#5B8DB8" opacity="1.0" rx="5" ry="5" />
  <text x="510" y="242.5" font-size="18" fill="#ffffff" text-anchor="middle" dominant-baseline="middle">波</text>
  <rect x="610" y="215" width="180" height="55" fill="#D4A857" opacity="1.0" rx="5" ry="5" />
  <text x="700" y="242.5" font-size="18" fill="#ffffff" text-anchor="middle" dominant-baseline="middle">縁</text>
  <rect x="800" y="215" width="180" height="55" fill="#C45B4D" opacity="1.0" rx="5" ry="5" />
  <text x="890" y="242.5" font-size="18" fill="#ffffff" text-anchor="middle" dominant-baseline="middle">渦</text>
  <rect x="990" y="215" width="180" height="55" fill="#5B8B6A" opacity="1.0" rx="5" ry="5" />
  <text x="1080" y="242.5" font-size="18" fill="#ffffff" text-anchor="middle" dominant-baseline="middle">束</text>
  <text x="10" y="307.5" font-size="18" fill="#ffffff" dominant-baseline="middle">3. イノベーションの普及</text>
  <rect x="230" y="280" width="180" height="55" fill="#8B8682" opacity="0.2" rx="5" ry="5" />
  <text x="320" y="307.5" font-size="18" fill="#888888" text-anchor="middle" dominant-baseline="middle">-</text>
  <rect x="420" y="280" width="180" height="55" fill="#5B8DB8" opacity="0.7" rx="5" ry="5" />
  <text x="510" y="307.5" font-size="18" fill="#e0e0e0" text-anchor="middle" dominant-baseline="middle">波</text>
  <rect x="610" y="280" width="180" height="55" fill="#D4A857" opacity="0.2" rx="5" ry="5" />
  <text x="700" y="307.5" font-size="18" fill="#888888" text-anchor="middle" dominant-baseline="middle">-</text>
  <rect x="800" y="280" width="180" height="55" fill="#C45B4D" opacity="0.7" rx="5" ry="5" />
  <text x="890" y="307.5" font-size="18" fill="#e0e0e0" text-anchor="middle" dominant-baseline="middle">渦</text>
  <rect x="990" y="280" width="180" height="55" fill="#5B8B6A" opacity="0.7" rx="5" ry="5" />
  <text x="1080" y="307.5" font-size="18" fill="#e0e0e0" text-anchor="middle" dominant-baseline="middle">束</text>
  <text x="10" y="372.5" font-size="18" fill="#ffffff" dominant-baseline="middle">4. 制度的同型化</text>
  <rect x="230" y="345" width="180" height="55" fill="#8B8682" opacity="1.0" rx="5" ry="5" />
  <text x="320" y="372.5" font-size="18" fill="#ffffff" text-anchor="middle" dominant-baseline="middle">場</text>
  <rect x="420" y="345" width="180" height="55" fill="#5B8DB8" opacity="1.0" rx="5" ry="5" />
  <text x="510" y="372.5" font-size="18" fill="#ffffff" text-anchor="middle" dominant-baseline="middle">波</text>
  <rect x="610" y="345" width="180" height="55" fill="#D4A857" opacity="1.0" rx="5" ry="5" />
  <text x="700" y="372.5" font-size="18" fill="#ffffff" text-anchor="middle" dominant-baseline="middle">縁</text>
  <rect x="800" y="345" width="180" height="55" fill="#C45B4D" opacity="1.0" rx="5" ry="5" />
  <text x="890" y="372.5" font-size="18" fill="#ffffff" text-anchor="middle" dominant-baseline="middle">渦</text>
  <rect x="990" y="345" width="180" height="55" fill="#5B8B6A" opacity="1.0" rx="5" ry="5" />
  <text x="1080" y="372.5" font-size="18" fill="#ffffff" text-anchor="middle" dominant-baseline="middle">束</text>
  <text x="10" y="437.5" font-size="18" fill="#ffffff" dominant-baseline="middle">5. 現実の社会的構成</text>
  <rect x="230" y="410" width="180" height="55" fill="#8B8682" opacity="1.0" rx="5" ry="5" />
  <text x="320" y="437.5" font-size="18" fill="#ffffff" text-anchor="middle" dominant-baseline="middle">場</text>
  <rect x="420" y="410" width="180" height="55" fill="#5B8DB8" opacity="1.0" rx="5" ry="5" />
  <text x="510" y="437.5" font-size="18" fill="#ffffff" text-anchor="middle" dominant-baseline="middle">波</text>
  <rect x="610" y="410" width="180" height="55" fill="#D4A857" opacity="1.0" rx="5" ry="5" />
  <text x="700" y="437.5" font-size="18" fill="#ffffff" text-anchor="middle" dominant-baseline="middle">縁</text>
  <rect x="800" y="410" width="180" height="55" fill="#C45B4D" opacity="1.0" rx="5" ry="5" />
  <text x="890" y="437.5" font-size="18" fill="#ffffff" text-anchor="middle" dominant-baseline="middle">渦</text>
  <rect x="990" y="410" width="180" height="55" fill="#5B8B6A" opacity="1.0" rx="5" ry="5" />
  <text x="1080" y="437.5" font-size="18" fill="#ffffff" text-anchor="middle" dominant-baseline="middle">束</text>
  <text x="10" y="502.5" font-size="18" fill="#ffffff" dominant-baseline="middle">6. 社会運動の動員過程</text>
  <rect x="230" y="475" width="180" height="55" fill="#8B8682" opacity="0.2" rx="5" ry="5" />
  <text x="320" y="502.5" font-size="18" fill="#888888" text-anchor="middle" dominant-baseline="middle">-</text>
  <rect x="420" y="475" width="180" height="55" fill="#5B8DB8" opacity="0.7" rx="5" ry="5" />
  <text x="510" y="502.5" font-size="18" fill="#e0e0e0" text-anchor="middle" dominant-baseline="middle">波</text>
  <rect x="610" y="475" width="180" height="55" fill="#D4A857" opacity="0.7" rx="5" ry="5" />
  <text x="700" y="502.5" font-size="18" fill="#e0e0e0" text-anchor="middle" dominant-baseline="middle">縁</text>
  <rect x="800" y="475" width="180" height="55" fill="#C45B4D" opacity="0.2" rx="5" ry="5" />
  <text x="890" y="502.5" font-size="18" fill="#888888" text-anchor="middle" dominant-baseline="middle">-</text>
  <rect x="990" y="475" width="180" height="55" fill="#5B8B6A" opacity="0.2" rx="5" ry="5" />
  <text x="1080" y="502.5" font-size="18" fill="#888888" text-anchor="middle" dominant-baseline="middle">-</text>
  <text x="10" y="567.5" font-size="18" fill="#ffffff" dominant-baseline="middle">7. 弱い紐帯の強さ</text>
  <rect x="230" y="540" width="180" height="55" fill="#8B8682" opacity="0.2" rx="5" ry="5" />
  <text x="320" y="567.5" font-size="18" fill="#888888" text-anchor="middle" dominant-baseline="middle">-</text>
  <rect x="420" y="540" width="180" height="55" fill="#5B8DB8" opacity="0.2" rx="5" ry="5" />
  <text x="510" y="567.5" font-size="18" fill="#888888" text-anchor="middle" dominant-baseline="middle">-</text>
  <rect x="610" y="540" width="180" height="55" fill="#D4A857" opacity="1.0" rx="5" ry="5" />
  <text x="700" y="567.5" font-size="18" fill="#ffffff" text-anchor="middle" dominant-baseline="middle">縁</text>
  <rect x="800" y="540" width="180" height="55" fill="#C45B4D" opacity="0.2" rx="5" ry="5" />
  <text x="890" y="567.5" font-size="18" fill="#888888" text-anchor="middle" dominant-baseline="middle">-</text>
  <rect x="990" y="540" width="180" height="55" fill="#5B8B6A" opacity="0.2" rx="5" ry="5" />
  <text x="1080" y="567.5" font-size="18" fill="#888888" text-anchor="middle" dominant-baseline="middle">-</text>
  <text x="10" y="632.5" font-size="18" fill="#ffffff" dominant-baseline="middle">8. 場・資本・ハビトゥス</text>
  <rect x="230" y="605" width="180" height="55" fill="#8B8682" opacity="0.7" rx="5" ry="5" />
  <text x="320" y="632.5" font-size="18" fill="#e0e0e0" text-anchor="middle" dominant-baseline="middle">場</text>
  <rect x="420" y="605" width="180" height="55" fill="#5B8DB8" opacity="0.7" rx="5" ry="5" />
  <text x="510" y="632.5" font-size="18" fill="#e0e0e0" text-anchor="middle" dominant-baseline="middle">波</text>
  <rect x="610" y="605" width="180" height="55" fill="#D4A857" opacity="0.7" rx="5" ry="5" />
  <text x="700" y="632.5" font-size="18" fill="#e0e0e0" text-anchor="middle" dominant-baseline="middle">縁</text>
  <rect x="800" y="605" width="180" height="55" fill="#C45B4D" opacity="0.7" rx="5" ry="5" />
  <text x="890" y="632.5" font-size="18" fill="#e0e0e0" text-anchor="middle" dominant-baseline="middle">渦</text>
  <rect x="990" y="605" width="180" height="55" fill="#5B8B6A" opacity="0.7" rx="5" ry="5" />
  <text x="1080" y="632.5" font-size="18" fill="#e0e0e0" text-anchor="middle" dominant-baseline="middle">束</text>
  <text x="10" y="697.5" font-size="18" fill="#ffffff" dominant-baseline="middle">9. 社会的事実・連帯・アノミー</text>
  <rect x="230" y="670" width="180" height="55" fill="#8B8682" opacity="0.7" rx="5" ry="5" />
  <text x="320" y="697.5" font-size="18" fill="#e0e0e0" text-anchor="middle" dominant-baseline="middle">場</text>
  <rect x="420" y="670" width="180" height="55" fill="#5B8DB8" opacity="0.2" rx="5" ry="5" />
  <text x="510" y="697.5" font-size="18" fill="#888888" text-anchor="middle" dominant-baseline="middle">-</text>
  <rect x="610" y="670" width="180" height="55" fill="#D4A857" opacity="0.7" rx="5" ry="5" />
  <text x="700" y="697.5" font-size="18" fill="#e0e0e0" text-anchor="middle" dominant-baseline="middle">縁</text>
  <rect x="800" y="670" width="180" height="55" fill="#C45B4D" opacity="0.2" rx="5" ry="5" />
  <text x="890" y="697.5" font-size="18" fill="#888888" text-anchor="middle" dominant-baseline="middle">-</text>
  <rect x="990" y="670" width="180" height="55" fill="#5B8B6A" opacity="0.7" rx="5" ry="5" />
  <text x="1080" y="697.5" font-size="18" fill="#e0e0e0" text-anchor="middle" dominant-baseline="middle">束</text>
  <text x="10" y="762.5" font-size="18" fill="#ffffff" dominant-baseline="middle">10. 相互作用儀礼連鎖</text>
  <rect x="230" y="735" width="180" height="55" fill="#8B8682" opacity="1.0" rx="5" ry="5" />
  <text x="320" y="762.5" font-size="18" fill="#ffffff" text-anchor="middle" dominant-baseline="middle">場</text>
  <rect x="420" y="735" width="180" height="55" fill="#5B8DB8" opacity="1.0" rx="5" ry="5" />
  <text x="510" y="762.5" font-size="18" fill="#ffffff" text-anchor="middle" dominant-baseline="middle">波</text>
  <rect x="610" y="735" width="180" height="55" fill="#D4A857" opacity="1.0" rx="5" ry="5" />
  <text x="700" y="762.5" font-size="18" fill="#ffffff" text-anchor="middle" dominant-baseline="middle">縁</text>
  <rect x="800" y="735" width="180" height="55" fill="#C45B4D" opacity="1.0" rx="5" ry="5" />
  <text x="890" y="762.5" font-size="18" fill="#ffffff" text-anchor="middle" dominant-baseline="middle">渦</text>
  <rect x="990" y="735" width="180" height="55" fill="#5B8B6A" opacity="1.0" rx="5" ry="5" />
  <text x="1080" y="762.5" font-size="18" fill="#ffffff" text-anchor="middle" dominant-baseline="middle">束</text>
  <text x="10" y="827.5" font-size="18" fill="#ffffff" dominant-baseline="middle">11. 正統性の3類型とカリスマのルーティン化</text>
  <rect x="230" y="800" width="180" height="55" fill="#8B8682" opacity="0.2" rx="5" ry="5" />
  <text x="320" y="827.5" font-size="18" fill="#888888" text-anchor="middle" dominant-baseline="middle">-</text>
  <rect x="420" y="800" width="180" height="55" fill="#5B8DB8" opacity="0.2" rx="5" ry="5" />
  <text x="510" y="827.5" font-size="18" fill="#888888" text-anchor="middle" dominant-baseline="middle">-</text>
  <rect x="610" y="800" width="180" height="55" fill="#D4A857" opacity="0.2" rx="5" ry="5" />
  <text x="700" y="827.5" font-size="18" fill="#888888" text-anchor="middle" dominant-baseline="middle">-</text>
  <rect x="800" y="800" width="180" height="55" fill="#C45B4D" opacity="0.7" rx="5" ry="5" />
  <text x="890" y="827.5" font-size="18" fill="#e0e0e0" text-anchor="middle" dominant-baseline="middle">渦</text>
  <rect x="990" y="800" width="180" height="55" fill="#5B8B6A" opacity="0.7" rx="5" ry="5" />
  <text x="1080" y="827.5" font-size="18" fill="#e0e0e0" text-anchor="middle" dominant-baseline="middle">束</text>
  <rect x="100" y="895" width="30" height="20" fill="#8B8682" opacity="1.0" rx="3" ry="3" />
  <text x="140" y="905" font-size="16" fill="#ffffff" dominant-baseline="middle">強い対応 (Strong)</text>
  <rect x="300" y="895" width="30" height="20" fill="#8B8682" opacity="0.7" rx="3" ry="3" />
  <text x="340" y="905" font-size="16" fill="#ffffff" dominant-baseline="middle">部分的 (Partial)</text>
  <rect x="500" y="895" width="30" height="20" fill="#8B8682" opacity="0.3" rx="3" ry="3" />
  <text x="540" y="905" font-size="16" fill="#ffffff" dominant-baseline="middle">条件付き/弱い (Conditional/Weak)</text>
</svg>