<svg xmlns="http://www.w3.org/2000/svg" viewBox="0 0 1200 900" font-family="sans-serif">
  <rect x="0" y="0" width="1200" height="900" fill="#1a1a2e" />

  <!-- Title -->
  <text x="600" y="50" font-size="30px" fill="#ffffff" text-anchor="middle" dominant-baseline="middle">10文学・文芸学理論と5段階モデルの対応関係マトリクス</text>

  <!-- Column Headers -->
  <rect x="230" y="110" width="180" height="40" fill="#8B8682" rx="5" ry="5" />
  <text x="320" y="130" font-size="20px" fill="#ffffff" text-anchor="middle" dominant-baseline="middle">場</text>
  <rect x="420" y="110" width="180" height="40" fill="#5B8DB8" rx="5" ry="5" />
  <text x="510" y="130" font-size="20px" fill="#ffffff" text-anchor="middle" dominant-baseline="middle">波</text>
  <rect x="610" y="110" width="180" height="40" fill="#D4A857" rx="5" ry="5" />
  <text x="700" y="130" font-size="20px" fill="#ffffff" text-anchor="middle" dominant-baseline="middle">縁</text>
  <rect x="800" y="110" width="180" height="40" fill="#C45B4D" rx="5" ry="5" />
  <text x="890" y="130" font-size="20px" fill="#ffffff" text-anchor="middle" dominant-baseline="middle">渦</text>
  <rect x="990" y="110" width="180" height="40" fill="#5B8B6A" rx="5" ry="5" />
  <text x="1080" y="130" font-size="20px" fill="#ffffff" text-anchor="middle" dominant-baseline="middle">束</text>

  <!-- Row 1: 物語機能の連鎖構造 -->
  <text x="10" y="192.5" font-size="18px" fill="#ffffff" dominant-baseline="middle">1. 物語機能の連鎖構造</text>
  <rect x="230" y="160" width="180" height="55" fill="#8B8682" opacity="0.7" rx="5" ry="5" />
  <text x="320" y="187.5" font-size="16px" fill="#e0e0e0" text-anchor="middle" dominant-baseline="middle">場</text>
  <rect x="420" y="160" width="180" height="55" fill="#5B8DB8" opacity="0.7" rx="5" ry="5" />
  <text x="510" y="187.5" font-size="16px" fill="#e0e0e0" text-anchor="middle" dominant-baseline="middle">波</text>
  <rect x="610" y="160" width="180" height="55" fill="#D4A857" opacity="0.7" rx="5" ry="5" />
  <text x="700" y="187.5" font-size="16px" fill="#e0e0e0" text-anchor="middle" dominant-baseline="middle">縁</text>
  <rect x="800" y="160" width="180" height="55" fill="#C45B4D" opacity="0.7" rx="5" ry="5" />
  <text x="890" y="187.5" font-size="16px" fill="#e0e0e0" text-anchor="middle" dominant-baseline="middle">渦</text>
  <rect x="990" y="160" width="180" height="55" fill="#5B8B6A" opacity="0.7" rx="5" ry="5" />
  <text x="1080" y="187.5" font-size="16px" fill="#e0e0e0" text-anchor="middle" dominant-baseline="middle">束</text>

  <!-- Row 2: 対話性とヘテログロシア -->
  <text x="10" y="257.5" font-size="18px" fill="#ffffff" dominant-baseline="middle">2. 対話性とヘテログロシア</text>
  <rect x="230" y="225" width="180" height="55" fill="#8B8682" opacity="0.2" rx="5" ry="5" />
  <text x="320" y="252.5" font-size="16px" fill="#888888" text-anchor="middle" dominant-baseline="middle">-</text>
  <rect x="420" y="225" width="180" height="55" fill="#5B8DB8" opacity="0.7" rx="5" ry="5" />
  <text x="510" y="252.5" font-size="16px" fill="#e0e0e0" text-anchor="middle" dominant-baseline="middle">波</text>
  <rect x="610" y="225" width="180" height="55" fill="#D4A857" opacity="0.7" rx="5" ry="5" />
  <text x="700" y="252.5" font-size="16px" fill="#e0e0e0" text-anchor="middle" dominant-baseline="middle">縁</text>
  <rect x="800" y="225" width="180" height="55" fill="#C45B4D" opacity="0.7" rx="5" ry="5" />
  <text x="890" y="252.5" font-size="16px" fill="#e0e0e0" text-anchor="middle" dominant-baseline="middle">渦</text>
  <rect x="990" y="225" width="180" height="55" fill="#5B8B6A" opacity="0.2" rx="5" ry="5" />
  <text x="1080" y="252.5" font-size="16px" fill="#888888" text-anchor="middle" dominant-baseline="middle">-</text>

  <!-- Row 3: 受容美学（期待の地平と読みの行為） -->
  <text x="10" y="322.5" font-size="18px" fill="#ffffff" dominant-baseline="middle">3. 受容美学（期待の地平と読みの行為）</text>
  <rect x="230" y="290" width="180" height="55" fill="#8B8682" opacity="0.2" rx="5" ry="5" />
  <text x="320" y="317.5" font-size="16px" fill="#888888" text-anchor="middle" dominant-baseline="middle">-</text>
  <rect x="420" y="290" width="180" height="55" fill="#5B8DB8" opacity="0.7" rx="5" ry="5" />
  <text x="510" y="317.5" font-size="16px" fill="#e0e0e0" text-anchor="middle" dominant-baseline="middle">波</text>
  <rect x="610" y="290" width="180" height="55" fill="#D4A857" opacity="0.7" rx="5" ry="5" />
  <text x="700" y="317.5" font-size="16px" fill="#e0e0e0" text-anchor="middle" dominant-baseline="middle">縁</text>
  <rect x="800" y="290" width="180" height="55" fill="#C45B4D" opacity="0.7" rx="5" ry="5" />
  <text x="890" y="317.5" font-size="16px" fill="#e0e0e0" text-anchor="middle" dominant-baseline="middle">渦</text>
  <rect x="990" y="290" width="180" height="55" fill="#5B8B6A" opacity="0.2" rx="5" ry="5" />
  <text x="1080" y="317.5" font-size="16px" fill="#888888" text-anchor="middle" dominant-baseline="middle">-</text>

  <!-- Row 4: 異化（ostranenie） -->
  <text x="10" y="387.5" font-size="18px" fill="#ffffff" dominant-baseline="middle">4. 異化（ostranenie）</text>
  <rect x="230" y="355" width="180" height="55" fill="#8B8682" opacity="1" rx="5" ry="5" />
  <text x="320" y="382.5" font-size="16px" fill="#ffffff" text-anchor="middle" dominant-baseline="middle">場</text>
  <rect x="420" y="355" width="180" height="55" fill="#5B8DB8" opacity="1" rx="5" ry="5" />
  <text x="510" y="382.5" font-size="16px" fill="#ffffff" text-anchor="middle" dominant-baseline="middle">波</text>
  <rect x="610" y="355" width="180" height="55" fill="#D4A857" opacity="1" rx="5" ry="5" />
  <text x="700" y="382.5" font-size="16px" fill="#ffffff" text-anchor="middle" dominant-baseline="middle">縁</text>
  <rect x="800" y="355" width="180" height="55" fill="#C45B4D" opacity="1" rx="5" ry="5" />
  <text x="890" y="382.5" font-size="16px" fill="#ffffff" text-anchor="middle" dominant-baseline="middle">渦</text>
  <rect x="990" y="355" width="180" height="55" fill="#5B8B6A" opacity="1" rx="5" ry="5" />
  <text x="1080" y="382.5" font-size="16px" fill="#ffffff" text-anchor="middle" dominant-baseline="middle">束</text>

  <!-- Row 5: 物語構造の基本原理 -->
  <text x="10" y="452.5" font-size="18px" fill="#ffffff" dominant-baseline="middle">5. 物語構造の基本原理</text>
  <rect x="230" y="420" width="180" height="55" fill="#8B8682" opacity="1" rx="5" ry="5" />
  <text x="320" y="447.5" font-size="16px" fill="#ffffff" text-anchor="middle" dominant-baseline="middle">場</text>
  <rect x="420" y="420" width="180" height="55" fill="#5B8DB8" opacity="1" rx="5" ry="5" />
  <text x="510" y="447.5" font-size="16px" fill="#ffffff" text-anchor="middle" dominant-baseline="middle">波</text>
  <rect x="610" y="420" width="180" height="55" fill="#D4A857" opacity="1" rx="5" ry="5" />
  <text x="700" y="447.5" font-size="16px" fill="#ffffff" text-anchor="middle" dominant-baseline="middle">縁</text>
  <rect x="800" y="420" width="180" height="55" fill="#C45B4D" opacity="1" rx="5" ry="5" />
  <text x="890" y="447.5" font-size="16px" fill="#ffffff" text-anchor="middle" dominant-baseline="middle">渦</text>
  <rect x="990" y="420" width="180" height="55" fill="#5B8B6A" opacity="1" rx="5" ry="5" />
  <text x="1080" y="447.5" font-size="16px" fill="#ffffff" text-anchor="middle" dominant-baseline="middle">束</text>

  <!-- Row 6: 文学場（象徴財市場と自律化） -->
  <text x="10" y="517.5" font-size="18px" fill="#ffffff" dominant-baseline="middle">6. 文学場（象徴財市場と自律化）</text>
  <rect x="230" y="485" width="180" height="55" fill="#8B8682" opacity="1" rx="5" ry="5" />
  <text x="320" y="512.5" font-size="16px" fill="#ffffff" text-anchor="middle" dominant-baseline="middle">場</text>
  <rect x="420" y="485" width="180" height="55" fill="#5B8DB8" opacity="1" rx="5" ry="5" />
  <text x="510" y="512.5" font-size="16px" fill="#ffffff" text-anchor="middle" dominant-baseline="middle">波</text>
  <rect x="610" y="485" width="180" height="55" fill="#D4A857" opacity="1" rx="5" ry="5" />
  <text x="700" y="512.5" font-size="16px" fill="#ffffff" text-anchor="middle" dominant-baseline="middle">縁</text>
  <rect x="800" y="485" width="180" height="55" fill="#C45B4D" opacity="1" rx="5" ry="5" />
  <text x="890" y="512.5" font-size="16px" fill="#ffffff" text-anchor="middle" dominant-baseline="middle">渦</text>
  <rect x="990" y="485" width="180" height="55" fill="#5B8B6A" opacity="1" rx="5" ry="5" />
  <text x="1080" y="512.5" font-size="16px" fill="#ffffff" text-anchor="middle" dominant-baseline="middle">束</text>

  <!-- Row 7: テクストの多元的読解 -->
  <text x="10" y="582.5" font-size="18px" fill="#ffffff" dominant-baseline="middle">7. テクストの多元的読解</text>
  <rect x="230" y="550" width="180" height="55" fill="#8B8682" opacity="0.7" rx="5" ry="5" />
  <text x="320" y="577.5" font-size="16px" fill="#e0e0e0" text-anchor="middle" dominant-baseline="middle">場</text>
  <rect x="420" y="550" width="180" height="55" fill="#5B8DB8" opacity="0.2" rx="5" ry="5" />
  <text x="510" y="577.5" font-size="16px" fill="#888888" text-anchor="middle" dominant-baseline="middle">-</text>
  <rect x="610" y="550" width="180" height="55" fill="#D4A857" opacity="0.7" rx="5" ry="5" />
  <text x="700" y="577.5" font-size="16px" fill="#e0e0e0" text-anchor="middle" dominant-baseline="middle">縁</text>
  <rect x="800" y="550" width="180" height="55" fill="#C45B4D" opacity="0.7" rx="5" ry="5" />
  <text x="890" y="577.5" font-size="16px" fill="#e0e0e0" text-anchor="middle" dominant-baseline="middle">渦</text>
  <rect x="990" y="550" width="180" height="55" fill="#5B8B6A" opacity="0.7" rx="5" ry="5" />
  <text x="1080" y="577.5" font-size="16px" fill="#e0e0e0" text-anchor="middle" dominant-baseline="middle">束</text>

  <!-- Row 8: 原型批評（四季のサイクル） -->
  <text x="10" y="647.5" font-size="18px" fill="#ffffff" dominant-baseline="middle">8. 原型批評（四季のサイクル）</text>
  <rect x="230" y="615" width="180" height="55" fill="#8B8682" opacity="0.3" rx="5" ry="5" />
  <text x="320" y="642.5" font-size="16px" fill="#aaaaaa" text-anchor="middle" dominant-baseline="middle">場</text>
  <rect x="420" y="615" width="180" height="55" fill="#5B8DB8" opacity="0.3" rx="5" ry="5" />
  <text x="510" y="642.5" font-size="16px" fill="#aaaaaa" text-anchor="middle" dominant-baseline="middle">波</text>
  <rect x="610" y="615" width="180" height="55" fill="#D4A857" opacity="0.3" rx="5" ry="5" />
  <text x="700" y="642.5" font-size="16px" fill="#aaaaaa" text-anchor="middle" dominant-baseline="middle">縁</text>
  <rect x="800" y="615" width="180" height="55" fill="#C45B4D" opacity="0.3" rx="5" ry="5" />
  <text x="890" y="642.5" font-size="16px" fill="#aaaaaa" text-anchor="middle" dominant-baseline="middle">渦</text>
  <rect x="990" y="615" width="180" height="55" fill="#5B8B6A" opacity="0.3" rx="5" ry="5" />
  <text x="1080" y="642.5" font-size="16px" fill="#aaaaaa" text-anchor="middle" dominant-baseline="middle">束</text>

  <!-- Row 9: ナラトロジー（物語の時間・声・焦点化） -->
  <text x="10" y="712.5" font-size="18px" fill="#ffffff" dominant-baseline="middle">9. ナラトロジー（物語の時間・声・焦点化）</text>
  <rect x="230" y="680" width="180" height="55" fill="#8B8682" opacity="0.2" rx="5" ry="5" />
  <text x="320" y="707.5" font-size="16px" fill="#888888" text-anchor="middle" dominant-baseline="middle">-</text>
  <rect x="420" y="680" width="180" height="55" fill="#5B8DB8" opacity="0.2" rx="5" ry="5" />
  <text x="510" y="707.5" font-size="16px" fill="#888888" text-anchor="middle" dominant-baseline="middle">-</text>
  <rect x="610" y="680" width="180" height="55" fill="#D4A857" opacity="0.7" rx="5" ry="5" />
  <text x="700" y="707.5" font-size="16px" fill="#e0e0e0" text-anchor="middle" dominant-baseline="middle">縁</text>
  <rect x="800" y="680" width="180" height="55" fill="#C45B4D" opacity="0.2" rx="5" ry="5" />
  <text x="890" y="707.5" font-size="16px" fill="#888888" text-anchor="middle" dominant-baseline="middle">-</text>
  <rect x="990" y="680" width="180" height="55" fill="#5B8B6A" opacity="0.2" rx="5" ry="5" />
  <text x="1080" y="707.5" font-size="16px" fill="#888888" text-anchor="middle" dominant-baseline="middle">-</text>

  <!-- Row 10: 影響の不安（創造的誤読） -->
  <text x="10" y="777.5" font-size="18px" fill="#ffffff" dominant-baseline="middle">10. 影響の不安（創造的誤読）</text>
  <rect x="230" y="745" width="180" height="55" fill="#8B8682" opacity="0.3" rx="5" ry="5" />
  <text x="320" y="772.5" font-size="16px" fill="#aaaaaa" text-anchor="middle" dominant-baseline="middle">場</text>
  <rect x="420" y="745" width="180" height="55" fill="#5B8DB8" opacity="0.3" rx="5" ry="5" />
  <text x="510" y="772.5" font-size="16px" fill="#aaaaaa" text-anchor="middle" dominant-baseline="middle">波</text>
  <rect x="610" y="745" width="180" height="55" fill="#D4A857" opacity="0.3" rx="5" ry="5" />
  <text x="700" y="772.5" font-size="16px" fill="#aaaaaa" text-anchor="middle" dominant-baseline="middle">縁</text>
  <rect x="800" y="745" width="180" height="55" fill="#C45B4D" opacity="0.3" rx="5" ry="5" />
  <text x="890" y="772.5" font-size="16px" fill="#aaaaaa" text-anchor="middle" dominant-baseline="middle">渦</text>
  <rect x="990" y="745" width="180" height="55" fill="#5B8B6A" opacity="0.3" rx="5" ry="5" />
  <text x="1080" y="772.5" font-size="16px" fill="#aaaaaa" text-anchor="middle" dominant-baseline="middle">束</text>

  <!-- Legend -->
  <rect x="20" y="820" width="20" height="20" fill="#8B8682" opacity="1" rx="5" ry="5" />
  <text x="50" y="830" font-size="16px" fill="#ffffff" dominant-baseline="middle">強い対応 (Strong)</text>
  <rect x="20" y="850" width="20" height="20" fill="#8B8682" opacity="0.7" rx="5" ry="5" />
  <text x="50" y="860" font-size="16px" fill="#ffffff" dominant-baseline="middle">部分的 (Partial)</text>
  <rect x="20" y="880" width="20" height="20" fill="#8B8682" opacity="0.3" rx="5" ry="5" />
  <text x="50" y="890" font-size="16px" fill="#ffffff" dominant-baseline="middle">条件付き/弱い (Conditional/Weak)</text>
</svg>