<svg viewBox="0 0 1200 900" font-family="sans-serif">
  <rect x="0" y="0" width="1200" height="900" fill="#1a1a2e" />

  <!-- Title -->
  <text x="600" y="50" text-anchor="middle" font-size="30" fill="#ffffff">10法学・政治学理論と5段階モデルの対応関係マトリクス</text>

  <!-- Column Headers -->
  <rect x="220" y="100" width="180" height="50" fill="#8B8682" rx="5" ry="5" />
  <text x="310" y="125" text-anchor="middle" dominant-baseline="middle" font-size="22" fill="#ffffff">場</text>
  <rect x="410" y="100" width="180" height="50" fill="#5B8DB8" rx="5" ry="5" />
  <text x="500" y="125" text-anchor="middle" dominant-baseline="middle" font-size="22" fill="#ffffff">波</text>
  <rect x="600" y="100" width="180" height="50" fill="#D4A857" rx="5" ry="5" />
  <text x="690" y="125" text-anchor="middle" dominant-baseline="middle" font-size="22" fill="#ffffff">縁</text>
  <rect x="790" y="100" width="180" height="50" fill="#C45B4D" rx="5" ry="5" />
  <text x="880" y="125" text-anchor="middle" dominant-baseline="middle" font-size="22" fill="#ffffff">渦</text>
  <rect x="980" y="100" width="180" height="50" fill="#5B8B6A" rx="5" ry="5" />
  <text x="1070" y="125" text-anchor="middle" dominant-baseline="middle" font-size="22" fill="#ffffff">束</text>

  <!-- Matrix Rows -->
  <!-- Theory 1 -->
  <text x="10" y="187.5" dominant-baseline="middle" font-size="18" fill="#ffffff">1. 一次ルール/二次ルールの結合</text>
  <rect x="220" y="160" width="180" height="55" fill="#8B8682" opacity="0.7" rx="5" ry="5" />
  <text x="310" y="187.5" text-anchor="middle" dominant-baseline="middle" font-size="18" fill="#e0e0e0">場</text>
  <rect x="410" y="160" width="180" height="55" fill="#5B8DB8" opacity="0.7" rx="5" ry="5" />
  <text x="500" y="187.5" text-anchor="middle" dominant-baseline="middle" font-size="18" fill="#e0e0e0">波</text>
  <rect x="600" y="160" width="180" height="55" fill="#D4A857" opacity="0.7" rx="5" ry="5" />
  <text x="690" y="187.5" text-anchor="middle" dominant-baseline="middle" font-size="18" fill="#e0e0e0">縁</text>
  <rect x="790" y="160" width="180" height="55" fill="#C45B4D" opacity="0.7" rx="5" ry="5" />
  <text x="880" y="187.5" text-anchor="middle" dominant-baseline="middle" font-size="18" fill="#e0e0e0">渦</text>
  <rect x="980" y="160" width="180" height="55" fill="#5B8B6A" opacity="0.7" rx="5" ry="5" />
  <text x="1070" y="187.5" text-anchor="middle" dominant-baseline="middle" font-size="18" fill="#e0e0e0">束</text>

  <!-- Theory 2 -->
  <text x="10" y="252.5" dominant-baseline="middle" font-size="18" fill="#ffffff">2. 政治システムの入力-出力-フィードバック</text>
  <rect x="220" y="225" width="180" height="55" fill="#8B8682" opacity="0.7" rx="5" ry="5" />
  <text x="310" y="252.5" text-anchor="middle" dominant-baseline="middle" font-size="18" fill="#e0e0e0">場</text>
  <rect x="410" y="225" width="180" height="55" fill="#5B8DB8" opacity="0.7" rx="5" ry="5" />
  <text x="500" y="252.5" text-anchor="middle" dominant-baseline="middle" font-size="18" fill="#e0e0e0">波</text>
  <rect x="600" y="225" width="180" height="55" fill="#D4A857" opacity="0.7" rx="5" ry="5" />
  <text x="690" y="252.5" text-anchor="middle" dominant-baseline="middle" font-size="18" fill="#e0e0e0">縁</text>
  <rect x="790" y="225" width="180" height="55" fill="#C45B4D" opacity="0.7" rx="5" ry="5" />
  <text x="880" y="252.5" text-anchor="middle" dominant-baseline="middle" font-size="18" fill="#e0e0e0">渦</text>
  <rect x="980" y="225" width="180" height="55" fill="#5B8B6A" opacity="0.7" rx="5" ry="5" />
  <text x="1070" y="252.5" text-anchor="middle" dominant-baseline="middle" font-size="18" fill="#e0e0e0">束</text>

  <!-- Theory 3 -->
  <text x="10" y="317.5" dominant-baseline="middle" font-size="18" fill="#ffffff">3. 共有資源ガバナンスの制度形成</text>
  <rect x="220" y="290" width="180" height="55" fill="#8B8682" opacity="1" rx="5" ry="5" />
  <text x="310" y="317.5" text-anchor="middle" dominant-baseline="middle" font-size="18" fill="#ffffff">場</text>
  <rect x="410" y="290" width="180" height="55" fill="#5B8DB8" opacity="1" rx="5" ry="5" />
  <text x="500" y="317.5" text-anchor="middle" dominant-baseline="middle" font-size="18" fill="#ffffff">波</text>
  <rect x="600" y="290" width="180" height="55" fill="#D4A857" opacity="1" rx="5" ry="5" />
  <text x="690" y="317.5" text-anchor="middle" dominant-baseline="middle" font-size="18" fill="#ffffff">縁</text>
  <rect x="790" y="290" width="180" height="55" fill="#C45B4D" opacity="1" rx="5" ry="5" />
  <text x="880" y="317.5" text-anchor="middle" dominant-baseline="middle" font-size="18" fill="#ffffff">渦</text>
  <rect x="980" y="290" width="180" height="55" fill="#5B8B6A" opacity="1" rx="5" ry="5" />
  <text x="1070" y="317.5" text-anchor="middle" dominant-baseline="middle" font-size="18" fill="#ffffff">束</text>

  <!-- Theory 4 -->
  <text x="10" y="382.5" dominant-baseline="middle" font-size="18" fill="#ffffff">4. 憲法制定過程と制憲権力</text>
  <rect x="220" y="355" width="180" height="55" fill="#8B8682" opacity="1" rx="5" ry="5" />
  <text x="310" y="382.5" text-anchor="middle" dominant-baseline="middle" font-size="18" fill="#ffffff">場</text>
  <rect x="410" y="355" width="180" height="55" fill="#5B8DB8" opacity="1" rx="5" ry="5" />
  <text x="500" y="382.5" text-anchor="middle" dominant-baseline="middle" font-size="18" fill="#ffffff">波</text>
  <rect x="600" y="355" width="180" height="55" fill="#D4A857" opacity="1" rx="5" ry="5" />
  <text x="690" y="382.5" text-anchor="middle" dominant-baseline="middle" font-size="18" fill="#ffffff">縁</text>
  <rect x="790" y="355" width="180" height="55" fill="#C45B4D" opacity="1" rx="5" ry="5" />
  <text x="880" y="382.5" text-anchor="middle" dominant-baseline="middle" font-size="18" fill="#ffffff">渦</text>
  <rect x="980" y="355" width="180" height="55" fill="#5B8B6A" opacity="1" rx="5" ry="5" />
  <text x="1070" y="382.5" text-anchor="middle" dominant-baseline="middle" font-size="18" fill="#ffffff">束</text>

  <!-- Theory 5 -->
  <text x="10" y="447.5" dominant-baseline="middle" font-size="18" fill="#ffffff">5. 多層ADR（交渉→調停→仲裁→訴訟）</text>
  <rect x="220" y="420" width="180" height="55" fill="#8B8682" opacity="0.2" rx="5" ry="5" />
  <text x="310" y="447.5" text-anchor="middle" dominant-baseline="middle" font-size="18" fill="#888888">-</text>
  <rect x="410" y="420" width="180" height="55" fill="#5B8DB8" opacity="0.7" rx="5" ry="5" />
  <text x="500" y="447.5" text-anchor="middle" dominant-baseline="middle" font-size="18" fill="#e0e0e0">波</text>
  <rect x="600" y="420" width="180" height="55" fill="#D4A857" opacity="0.7" rx="5" ry="5" />
  <text x="690" y="447.5" text-anchor="middle" dominant-baseline="middle" font-size="18" fill="#e0e0e0">縁</text>
  <rect x="790" y="420" width="180" height="55" fill="#C45B4D" opacity="0.7" rx="5" ry="5" />
  <text x="880" y="447.5" text-anchor="middle" dominant-baseline="middle" font-size="18" fill="#e0e0e0">渦</text>
  <rect x="980" y="420" width="180" height="55" fill="#5B8B6A" opacity="0.2" rx="5" ry="5" />
  <text x="1070" y="447.5" text-anchor="middle" dominant-baseline="middle" font-size="18" fill="#888888">-</text>

  <!-- Theory 6 -->
  <text x="10" y="512.5" dominant-baseline="middle" font-size="18" fill="#ffffff">6. 国際レジーム形成</text>
  <rect x="220" y="485" width="180" height="55" fill="#8B8682" opacity="0.7" rx="5" ry="5" />
  <text x="310" y="512.5" text-anchor="middle" dominant-baseline="middle" font-size="18" fill="#e0e0e0">場</text>
  <rect x="410" y="485" width="180" height="55" fill="#5B8DB8" opacity="0.7" rx="5" ry="5" />
  <text x="500" y="512.5" text-anchor="middle" dominant-baseline="middle" font-size="18" fill="#e0e0e0">波</text>
  <rect x="600" y="485" width="180" height="55" fill="#D4A857" opacity="0.7" rx="5" ry="5" />
  <text x="690" y="512.5" text-anchor="middle" dominant-baseline="middle" font-size="18" fill="#e0e0e0">縁</text>
  <rect x="790" y="485" width="180" height="55" fill="#C45B4D" opacity="0.7" rx="5" ry="5" />
  <text x="880" y="512.5" text-anchor="middle" dominant-baseline="middle" font-size="18" fill="#e0e0e0">渦</text>
  <rect x="980" y="485" width="180" height="55" fill="#5B8B6A" opacity="0.7" rx="5" ry="5" />
  <text x="1070" y="512.5" text-anchor="middle" dominant-baseline="middle" font-size="18" fill="#e0e0e0">束</text>

  <!-- Theory 7 -->
  <text x="10" y="577.5" dominant-baseline="middle" font-size="18" fill="#ffffff">7. 正義論（原初状態と無知のヴェール）</text>
  <rect x="220" y="550" width="180" height="55" fill="#8B8682" opacity="0.7" rx="5" ry="5" />
  <text x="310" y="577.5" text-anchor="middle" dominant-baseline="middle" font-size="18" fill="#e0e0e0">場</text>
  <rect x="410" y="550" width="180" height="55" fill="#5B8DB8" opacity="0.7" rx="5" ry="5" />
  <text x="500" y="577.5" text-anchor="middle" dominant-baseline="middle" font-size="18" fill="#e0e0e0">波</text>
  <rect x="600" y="550" width="180" height="55" fill="#D4A857" opacity="0.7" rx="5" ry="5" />
  <text x="690" y="577.5" text-anchor="middle" dominant-baseline="middle" font-size="18" fill="#e0e0e0">縁</text>
  <rect x="790" y="550" width="180" height="55" fill="#C45B4D" opacity="0.7" rx="5" ry="5" />
  <text x="880" y="577.5" text-anchor="middle" dominant-baseline="middle" font-size="18" fill="#e0e0e0">渦</text>
  <rect x="980" y="550" width="180" height="55" fill="#5B8B6A" opacity="0.7" rx="5" ry="5" />
  <text x="1070" y="577.5" text-anchor="middle" dominant-baseline="middle" font-size="18" fill="#e0e0e0">束</text>

  <!-- Theory 8 -->
  <text x="10" y="642.5" dominant-baseline="middle" font-size="18" fill="#ffffff">8. 討議民主主義と手続的正当性</text>
  <rect x="220" y="615" width="180" height="55" fill="#8B8682" opacity="0.2" rx="5" ry="5" />
  <text x="310" y="642.5" text-anchor="middle" dominant-baseline="middle" font-size="18" fill="#888888">-</text>
  <rect x="410" y="615" width="180" height="55" fill="#5B8DB8" opacity="1" rx="5" ry="5" />
  <text x="500" y="642.5" text-anchor="middle" dominant-baseline="middle" font-size="18" fill="#ffffff">波</text>
  <rect x="600" y="615" width="180" height="55" fill="#D4A857" opacity="1" rx="5" ry="5" />
  <text x="690" y="642.5" text-anchor="middle" dominant-baseline="middle" font-size="18" fill="#ffffff">縁</text>
  <rect x="790" y="615" width="180" height="55" fill="#C45B4D" opacity="1" rx="5" ry="5" />
  <text x="880" y="642.5" text-anchor="middle" dominant-baseline="middle" font-size="18" fill="#ffffff">渦</text>
  <rect x="980" y="615" width="180" height="55" fill="#5B8B6A" opacity="0.2" rx="5" ry="5" />
  <text x="1070" y="642.5" text-anchor="middle" dominant-baseline="middle" font-size="18" fill="#888888">-</text>

  <!-- Theory 9 -->
  <text x="10" y="707.5" dominant-baseline="middle" font-size="18" fill="#ffffff">9. 政策の窓（多重流れモデル）</text>
  <rect x="220" y="680" width="180" height="55" fill="#8B8682" opacity="0.3" rx="5" ry="5" />
  <text x="310" y="707.5" text-anchor="middle" dominant-baseline="middle" font-size="18" fill="#aaaaaa">場</text>
  <rect x="410" y="680" width="180" height="55" fill="#5B8DB8" opacity="0.2" rx="5" ry="5" />
  <text x="500" y="707.5" text-anchor="middle" dominant-baseline="middle" font-size="18" fill="#888888">-</text>
  <rect x="600" y="680" width="180" height="55" fill="#D4A857" opacity="0.3" rx="5" ry="5" />
  <text x="690" y="707.5" text-anchor="middle" dominant-baseline="middle" font-size="18" fill="#aaaaaa">縁</text>
  <rect x="790" y="680" width="180" height="55" fill="#C45B4D" opacity="0.3" rx="5" ry="5" />
  <text x="880" y="707.5" text-anchor="middle" dominant-baseline="middle" font-size="18" fill="#aaaaaa">渦</text>
  <rect x="980" y="680" width="180" height="55" fill="#5B8B6A" opacity="0.3" rx="5" ry="5" />
  <text x="1070" y="707.5" text-anchor="middle" dominant-baseline="middle" font-size="18" fill="#aaaaaa">束</text>

  <!-- Theory 10 -->
  <text x="10" y="772.5" dominant-baseline="middle" font-size="18" fill="#ffffff">10. 移行期正義</text>
  <rect x="220" y="745" width="180" height="55" fill="#8B8682" opacity="0.3" rx="5" ry="5" />
  <text x="310" y="772.5" text-anchor="middle" dominant-baseline="middle" font-size="18" fill="#aaaaaa">場</text>
  <rect x="410" y="745" width="180" height="55" fill="#5B8DB8" opacity="0.3" rx="5" ry="5" />
  <text x="500" y="772.5" text-anchor="middle" dominant-baseline="middle" font-size="18" fill="#aaaaaa">波</text>
  <rect x="600" y="745" width="180" height="55" fill="#D4A857" opacity="0.3" rx="5" ry="5" />
  <text x="690" y="772.5" text-anchor="middle" dominant-baseline="middle" font-size="18" fill="#aaaaaa">縁</text>
  <rect x="790" y="745" width="180" height="55" fill="#C45B4D" opacity="0.3" rx="5" ry="5" />
  <text x="880" y="772.5" text-anchor="middle" dominant-baseline="middle" font-size="18" fill="#aaaaaa">渦</text>
  <rect x="980" y="745" width="180" height="55" fill="#5B8B6A" opacity="0.3" rx="5" ry="5" />
  <text x="1070" y="772.5" text-anchor="middle" dominant-baseline="middle" font-size="18" fill="#aaaaaa">束</text>

  <!-- Legend -->
  <rect x="50" y="840" width="40" height="25" fill="#8B8682" opacity="1" rx="5" ry="5" />
  <text x="100" y="852.5" dominant-baseline="middle" font-size="16" fill="#ffffff">強い対応 (Strong)</text>

  <rect x="250" y="840" width="40" height="25" fill="#8B8682" opacity="0.7" rx="5" ry="5" />
  <text x="300" y="852.5" dominant-baseline="middle" font-size="16" fill="#ffffff">部分的 (Partial)</text>

  <rect x="450" y="840" width="40" height="25" fill="#8B8682" opacity="0.3" rx="5" ry="5" />
  <text x="500" y="852.5" dominant-baseline="middle" font-size="16" fill="#ffffff">条件付き/弱い (Conditional/Weak)</text>
</svg>