<svg viewBox="0 0 1200 950" font-family="sans-serif" xmlns="http://www.w3.org/2000/svg">
  <rect x="0" y="0" width="1200" height="950" fill="#1a1a2e"/>
  <text x="600" y="50" font-size="30" fill="#f0f0f0" text-anchor="middle" dominant-baseline="middle">11経営学理論と5段階モデルの対応関係マトリクス</text>
  <rect x="230" y="100" width="180" height="50" fill="#8B8682" rx="5" ry="5"/>
  <text x="320" y="125" font-size="20" fill="#ffffff" text-anchor="middle" dominant-baseline="middle">場</text>
  <rect x="420" y="100" width="180" height="50" fill="#5B8DB8" rx="5" ry="5"/>
  <text x="510" y="125" font-size="20" fill="#ffffff" text-anchor="middle" dominant-baseline="middle">波</text>
  <rect x="610" y="100" width="180" height="50" fill="#D4A857" rx="5" ry="5"/>
  <text x="700" y="125" font-size="20" fill="#ffffff" text-anchor="middle" dominant-baseline="middle">縁</text>
  <rect x="800" y="100" width="180" height="50" fill="#C45B4D" rx="5" ry="5"/>
  <text x="890" y="125" font-size="20" fill="#ffffff" text-anchor="middle" dominant-baseline="middle">渦</text>
  <rect x="990" y="100" width="180" height="50" fill="#5B8B6A" rx="5" ry="5"/>
  <text x="1080" y="125" font-size="20" fill="#ffffff" text-anchor="middle" dominant-baseline="middle">束</text>
  <text x="10" y="187.5" font-size="18" fill="#f0f0f0" dominant-baseline="middle">1. 組織的知識創造5フェーズ</text>
  <rect x="230" y="160" width="180" height="55" fill="#8B8682" opacity="1" rx="5" ry="5"/>
  <text x="320" y="187.5" font-size="18" fill="#ffffff" text-anchor="middle" dominant-baseline="middle">場</text>
  <rect x="420" y="160" width="180" height="55" fill="#5B8DB8" opacity="1" rx="5" ry="5"/>
  <text x="510" y="187.5" font-size="18" fill="#ffffff" text-anchor="middle" dominant-baseline="middle">波</text>
  <rect x="610" y="160" width="180" height="55" fill="#D4A857" opacity="1" rx="5" ry="5"/>
  <text x="700" y="187.5" font-size="18" fill="#ffffff" text-anchor="middle" dominant-baseline="middle">縁</text>
  <rect x="800" y="160" width="180" height="55" fill="#C45B4D" opacity="1" rx="5" ry="5"/>
  <text x="890" y="187.5" font-size="18" fill="#ffffff" text-anchor="middle" dominant-baseline="middle">渦</text>
  <rect x="990" y="160" width="180" height="55" fill="#5B8B6A" opacity="1" rx="5" ry="5"/>
  <text x="1080" y="187.5" font-size="18" fill="#ffffff" text-anchor="middle" dominant-baseline="middle">束</text>
  <text x="10" y="252.5" font-size="18" fill="#f0f0f0" dominant-baseline="middle">2. デザイン思考5モード</text>
  <rect x="230" y="225" width="180" height="55" fill="#8B8682" opacity="0.7" rx="5" ry="5"/>
  <text x="320" y="252.5" font-size="18" fill="#e0e0e0" text-anchor="middle" dominant-baseline="middle">場</text>
  <rect x="420" y="225" width="180" height="55" fill="#5B8DB8" opacity="0.7" rx="5" ry="5"/>
  <text x="510" y="252.5" font-size="18" fill="#e0e0e0" text-anchor="middle" dominant-baseline="middle">波</text>
  <rect x="610" y="225" width="180" height="55" fill="#D4A857" opacity="0.7" rx="5" ry="5"/>
  <text x="700" y="252.5" font-size="18" fill="#e0e0e0" text-anchor="middle" dominant-baseline="middle">縁</text>
  <rect x="800" y="225" width="180" height="55" fill="#C45B4D" opacity="0.7" rx="5" ry="5"/>
  <text x="890" y="252.5" font-size="18" fill="#e0e0e0" text-anchor="middle" dominant-baseline="middle">渦</text>
  <rect x="990" y="225" width="180" height="55" fill="#5B8B6A" opacity="0.7" rx="5" ry="5"/>
  <text x="1080" y="252.5" font-size="18" fill="#e0e0e0" text-anchor="middle" dominant-baseline="middle">束</text>
  <text x="10" y="317.5" font-size="18" fill="#f0f0f0" dominant-baseline="middle">3. 小集団発達5段階</text>
  <rect x="230" y="290" width="180" height="55" fill="#8B8682" opacity="1" rx="5" ry="5"/>
  <text x="320" y="317.5" font-size="18" fill="#ffffff" text-anchor="middle" dominant-baseline="middle">場</text>
  <rect x="420" y="290" width="180" height="55" fill="#5B8DB8" opacity="1" rx="5" ry="5"/>
  <text x="510" y="317.5" font-size="18" fill="#ffffff" text-anchor="middle" dominant-baseline="middle">波</text>
  <rect x="610" y="290" width="180" height="55" fill="#D4A857" opacity="1" rx="5" ry="5"/>
  <text x="700" y="317.5" font-size="18" fill="#ffffff" text-anchor="middle" dominant-baseline="middle">縁</text>
  <rect x="800" y="290" width="180" height="55" fill="#C45B4D" opacity="1" rx="5" ry="5"/>
  <text x="890" y="317.5" font-size="18" fill="#ffffff" text-anchor="middle" dominant-baseline="middle">渦</text>
  <rect x="990" y="290" width="180" height="55" fill="#5B8B6A" opacity="0.2" rx="5" ry="5"/>
  <text x="1080" y="317.5" font-size="18" fill="#888888" text-anchor="middle" dominant-baseline="middle">-</text>
  <text x="10" y="382.5" font-size="18" fill="#f0f0f0" dominant-baseline="middle">4. 破壊的イノベーション</text>
  <rect x="230" y="355" width="180" height="55" fill="#8B8682" opacity="0.7" rx="5" ry="5"/>
  <text x="320" y="382.5" font-size="18" fill="#e0e0e0" text-anchor="middle" dominant-baseline="middle">場</text>
  <rect x="420" y="355" width="180" height="55" fill="#5B8DB8" opacity="0.7" rx="5" ry="5"/>
  <text x="510" y="382.5" font-size="18" fill="#e0e0e0" text-anchor="middle" dominant-baseline="middle">波</text>
  <rect x="610" y="355" width="180" height="55" fill="#D4A857" opacity="0.7" rx="5" ry="5"/>
  <text x="700" y="382.5" font-size="18" fill="#e0e0e0" text-anchor="middle" dominant-baseline="middle">縁</text>
  <rect x="800" y="355" width="180" height="55" fill="#C45B4D" opacity="0.7" rx="5" ry="5"/>
  <text x="890" y="382.5" font-size="18" fill="#e0e0e0" text-anchor="middle" dominant-baseline="middle">渦</text>
  <rect x="990" y="355" width="180" height="55" fill="#5B8B6A" opacity="0.7" rx="5" ry="5"/>
  <text x="1080" y="382.5" font-size="18" fill="#e0e0e0" text-anchor="middle" dominant-baseline="middle">束</text>
  <text x="10" y="447.5" font-size="18" fill="#f0f0f0" dominant-baseline="middle">5. 学習する組織 + 精神分析的組織論</text>
  <rect x="230" y="420" width="180" height="55" fill="#8B8682" opacity="0.7" rx="5" ry="5"/>
  <text x="320" y="447.5" font-size="18" fill="#e0e0e0" text-anchor="middle" dominant-baseline="middle">場</text>
  <rect x="420" y="420" width="180" height="55" fill="#5B8DB8" opacity="0.7" rx="5" ry="5"/>
  <text x="510" y="447.5" font-size="18" fill="#e0e0e0" text-anchor="middle" dominant-baseline="middle">波</text>
  <rect x="610" y="420" width="180" height="55" fill="#D4A857" opacity="0.7" rx="5" ry="5"/>
  <text x="700" y="447.5" font-size="18" fill="#e0e0e0" text-anchor="middle" dominant-baseline="middle">縁</text>
  <rect x="800" y="420" width="180" height="55" fill="#C45B4D" opacity="0.2" rx="5" ry="5"/>
  <text x="890" y="447.5" font-size="18" fill="#888888" text-anchor="middle" dominant-baseline="middle">-</text>
  <rect x="990" y="420" width="180" height="55" fill="#5B8B6A" opacity="0.2" rx="5" ry="5"/>
  <text x="1080" y="447.5" font-size="18" fill="#888888" text-anchor="middle" dominant-baseline="middle">-</text>
  <text x="10" y="512.5" font-size="18" fill="#f0f0f0" dominant-baseline="middle">6. 探索/活用 + 両利き経営</text>
  <rect x="230" y="485" width="180" height="55" fill="#8B8682" opacity="0.7" rx="5" ry="5"/>
  <text x="320" y="512.5" font-size="18" fill="#e0e0e0" text-anchor="middle" dominant-baseline="middle">場</text>
  <rect x="420" y="485" width="180" height="55" fill="#5B8DB8" opacity="0.7" rx="5" ry="5"/>
  <text x="510" y="512.5" font-size="18" fill="#e0e0e0" text-anchor="middle" dominant-baseline="middle">波</text>
  <rect x="610" y="485" width="180" height="55" fill="#D4A857" opacity="0.2" rx="5" ry="5"/>
  <text x="700" y="512.5" font-size="18" fill="#888888" text-anchor="middle" dominant-baseline="middle">-</text>
  <rect x="800" y="485" width="180" height="55" fill="#C45B4D" opacity="0.7" rx="5" ry="5"/>
  <text x="890" y="512.5" font-size="18" fill="#e0e0e0" text-anchor="middle" dominant-baseline="middle">渦</text>
  <rect x="990" y="485" width="180" height="55" fill="#5B8B6A" opacity="0.7" rx="5" ry="5"/>
  <text x="1080" y="512.5" font-size="18" fill="#e0e0e0" text-anchor="middle" dominant-baseline="middle">束</text>
  <text x="10" y="577.5" font-size="18" fill="#f0f0f0" dominant-baseline="middle">7. センスメイキング + HRO</text>
  <rect x="230" y="550" width="180" height="55" fill="#8B8682" opacity="1" rx="5" ry="5"/>
  <text x="320" y="577.5" font-size="18" fill="#ffffff" text-anchor="middle" dominant-baseline="middle">場</text>
  <rect x="420" y="550" width="180" height="55" fill="#5B8DB8" opacity="1" rx="5" ry="5"/>
  <text x="510" y="577.5" font-size="18" fill="#ffffff" text-anchor="middle" dominant-baseline="middle">波</text>
  <rect x="610" y="550" width="180" height="55" fill="#D4A857" opacity="1" rx="5" ry="5"/>
  <text x="700" y="577.5" font-size="18" fill="#ffffff" text-anchor="middle" dominant-baseline="middle">縁</text>
  <rect x="800" y="550" width="180" height="55" fill="#C45B4D" opacity="1" rx="5" ry="5"/>
  <text x="890" y="577.5" font-size="18" fill="#ffffff" text-anchor="middle" dominant-baseline="middle">渦</text>
  <rect x="990" y="550" width="180" height="55" fill="#5B8B6A" opacity="1" rx="5" ry="5"/>
  <text x="1080" y="577.5" font-size="18" fill="#ffffff" text-anchor="middle" dominant-baseline="middle">束</text>
  <text x="10" y="642.5" font-size="18" fill="#f0f0f0" dominant-baseline="middle">8. TPS/リーン + アジャイル</text>
  <rect x="230" y="615" width="180" height="55" fill="#8B8682" opacity="0.7" rx="5" ry="5"/>
  <text x="320" y="642.5" font-size="18" fill="#e0e0e0" text-anchor="middle" dominant-baseline="middle">場</text>
  <rect x="420" y="615" width="180" height="55" fill="#5B8DB8" opacity="0.7" rx="5" ry="5"/>
  <text x="510" y="642.5" font-size="18" fill="#e0e0e0" text-anchor="middle" dominant-baseline="middle">波</text>
  <rect x="610" y="615" width="180" height="55" fill="#D4A857" opacity="0.2" rx="5" ry="5"/>
  <text x="700" y="642.5" font-size="18" fill="#888888" text-anchor="middle" dominant-baseline="middle">-</text>
  <rect x="800" y="615" width="180" height="55" fill="#C45B4D" opacity="0.7" rx="5" ry="5"/>
  <text x="890" y="642.5" font-size="18" fill="#e0e0e0" text-anchor="middle" dominant-baseline="middle">渦</text>
  <rect x="990" y="615" width="180" height="55" fill="#5B8B6A" opacity="0.7" rx="5" ry="5"/>
  <text x="1080" y="642.5" font-size="18" fill="#e0e0e0" text-anchor="middle" dominant-baseline="middle">束</text>
  <text x="10" y="707.5" font-size="18" fill="#f0f0f0" dominant-baseline="middle">9. エフェクチュエーション</text>
  <rect x="230" y="680" width="180" height="55" fill="#8B8682" opacity="1" rx="5" ry="5"/>
  <text x="320" y="707.5" font-size="18" fill="#ffffff" text-anchor="middle" dominant-baseline="middle">場</text>
  <rect x="420" y="680" width="180" height="55" fill="#5B8DB8" opacity="1" rx="5" ry="5"/>
  <text x="510" y="707.5" font-size="18" fill="#ffffff" text-anchor="middle" dominant-baseline="middle">波</text>
  <rect x="610" y="680" width="180" height="55" fill="#D4A857" opacity="1" rx="5" ry="5"/>
  <text x="700" y="707.5" font-size="18" fill="#ffffff" text-anchor="middle" dominant-baseline="middle">縁</text>
  <rect x="800" y="680" width="180" height="55" fill="#C45B4D" opacity="0.2" rx="5" ry="5"/>
  <text x="890" y="707.5" font-size="18" fill="#888888" text-anchor="middle" dominant-baseline="middle">-</text>
  <rect x="990" y="680" width="180" height="55" fill="#5B8B6A" opacity="0.2" rx="5" ry="5"/>
  <text x="1080" y="707.5" font-size="18" fill="#888888" text-anchor="middle" dominant-baseline="middle">-</text>
  <text x="10" y="772.5" font-size="18" fill="#f0f0f0" dominant-baseline="middle">10. アンチフラジャイル</text>
  <rect x="230" y="745" width="180" height="55" fill="#8B8682" opacity="0.2" rx="5" ry="5"/>
  <text x="320" y="772.5" font-size="18" fill="#888888" text-anchor="middle" dominant-baseline="middle">-</text>
  <rect x="420" y="745" width="180" height="55" fill="#5B8DB8" opacity="0.3" rx="5" ry="5"/>
  <text x="510" y="772.5" font-size="18" fill="#aaaaaa" text-anchor="middle" dominant-baseline="middle">波</text>
  <rect x="610" y="745" width="180" height="55" fill="#D4A857" opacity="0.2" rx="5" ry="5"/>
  <text x="700" y="772.5" font-size="18" fill="#888888" text-anchor="middle" dominant-baseline="middle">-</text>
  <rect x="800" y="745" width="180" height="55" fill="#C45B4D" opacity="0.3" rx="5" ry="5"/>
  <text x="890" y="772.5" font-size="18" fill="#aaaaaa" text-anchor="middle" dominant-baseline="middle">渦</text>
  <rect x="990" y="745" width="180" height="55" fill="#5B8B6A" opacity="0.3" rx="5" ry="5"/>
  <text x="1080" y="772.5" font-size="18" fill="#aaaaaa" text-anchor="middle" dominant-baseline="middle">束</text>
  <text x="10" y="837.5" font-size="18" fill="#f0f0f0" dominant-baseline="middle">11. U理論</text>
  <rect x="230" y="810" width="180" height="55" fill="#8B8682" opacity="0.7" rx="5" ry="5"/>
  <text x="320" y="837.5" font-size="18" fill="#e0e0e0" text-anchor="middle" dominant-baseline="middle">場</text>
  <rect x="420" y="810" width="180" height="55" fill="#5B8DB8" opacity="0.7" rx="5" ry="5"/>
  <text x="510" y="837.5" font-size="18" fill="#e0e0e0" text-anchor="middle" dominant-baseline="middle">波</text>
  <rect x="610" y="810" width="180" height="55" fill="#D4A857" opacity="0.7" rx="5" ry="5"/>
  <text x="700" y="837.5" font-size="18" fill="#e0e0e0" text-anchor="middle" dominant-baseline="middle">縁</text>
  <rect x="800" y="810" width="180" height="55" fill="#C45B4D" opacity="0.7" rx="5" ry="5"/>
  <text x="890" y="837.5" font-size="18" fill="#e0e0e0" text-anchor="middle" dominant-baseline="middle">渦</text>
  <rect x="990" y="810" width="180" height="55" fill="#5B8B6A" opacity="0.7" rx="5" ry="5"/>
  <text x="1080" y="837.5" font-size="18" fill="#e0e0e0" text-anchor="middle" dominant-baseline="middle">束</text>
  <rect x="10" y="895" width="30" height="30" fill="#8B8682" rx="5" ry="5"/>
  <text x="50" y="910" font-size="18" fill="#f0f0f0" dominant-baseline="middle">強い対応 (Strong)</text>
  <rect x="10" y="935" width="30" height="30" fill="#8B8682" opacity="0.7" rx="5" ry="5"/>
  <text x="50" y="950" font-size="18" fill="#f0f0f0" dominant-baseline="middle">部分的 (Partial)</text>
  <rect x="10" y="975" width="30" height="30" fill="#8B8682" opacity="0.3" rx="5" ry="5"/>
  <text x="50" y="990" font-size="18" fill="#f0f0f0" dominant-baseline="middle">条件付き/弱い (Conditional/Weak)</text>
</svg>