<svg viewBox="0 0 1200 800" font-family="sans-serif">
  <rect width="100%" height="100%" fill="#1a1a2e" />

  <!-- Definitions for gradients and arrow markers -->
  <defs>
    <linearGradient id="phaseBoxGradient" x1="0%" y1="0%" x2="0%" y2="100%">
      <stop offset="0%" style="stop-color:#2C3E50" />
      <stop offset="100%" style="stop-color:#34495E" />
    </linearGradient>

    <marker id="arrowhead" markerWidth="10" markerHeight="7" refX="10" refY="3.5" orient="auto">
      <polygon points="0 0, 10 3.5, 0 7" fill="#F39C12" />
    </marker>
  </defs>

  <!-- Title Section -->
  <text x="600" y="60" text-anchor="middle" fill="white" font-size="36" font-weight="bold">D23 発達心理学 — 5段階モデルとの構造対応調査</text>
  <text x="600" y="95" text-anchor="middle" fill="#cccccc" font-size="20">15理論の横断的分析</text>

  <!-- Left Column: Research Methodology Flow -->
  <!-- Phase Boxes and Glows -->
  <!-- Phase 1-2 -->
  <rect x="45" y="155" width="310" height="70" rx="10" fill="#4A90E2" opacity="0.2" />
  <rect x="50" y="160" width="300" height="60" rx="10" fill="url(#phaseBoxGradient)" stroke="#cccccc" stroke-width="1" />
  <text x="200" y="197" text-anchor="middle" fill="white" font-size="18">Phase 1-2: 文献確認・理論選定</text>

  <!-- Phase 3-4 -->
  <rect x="45" y="255" width="310" height="70" rx="10" fill="#4A90E2" opacity="0.2" />
  <rect x="50" y="260" width="300" height="60" rx="10" fill="url(#phaseBoxGradient)" stroke="#cccccc" stroke-width="1" />
  <text x="200" y="297" text-anchor="middle" fill="white" font-size="18">Phase 3-4: 構造対応の判定</text>

  <!-- Phase 5 -->
  <rect x="45" y="355" width="310" height="70" rx="10" fill="#4A90E2" opacity="0.2" />
  <rect x="50" y="360" width="300" height="60" rx="10" fill="url(#phaseBoxGradient)" stroke="#cccccc" stroke-width="1" />
  <text x="200" y="397" text-anchor="middle" fill="white" font-size="18">Phase 5: 論拠監査</text>

  <!-- Phase 6 -->
  <rect x="45" y="455" width="310" height="70" rx="10" fill="#4A90E2" opacity="0.2" />
  <rect x="50" y="460" width="300" height="60" rx="10" fill="url(#phaseBoxGradient)" stroke="#cccccc" stroke-width="1" />
  <text x="200" y="497" text-anchor="middle" fill="white" font-size="18">Phase 6: 構造再読（4軸再評価）</text>

  <!-- Phase 7 -->
  <rect x="45" y="555" width="310" height="70" rx="10" fill="#4A90E2" opacity="0.2" />
  <rect x="50" y="560" width="300" height="60" rx="10" fill="url(#phaseBoxGradient)" stroke="#cccccc" stroke-width="1" />
  <text x="200" y="597" text-anchor="middle" fill="white" font-size="18">Phase 7: 横断統合</text>

  <!-- Arrows -->
  <path d="M 200 220 L 200 250" stroke="#F39C12" stroke-width="4" marker-end="url(#arrowhead)" />
  <path d="M 200 320 L 200 350" stroke="#F39C12" stroke-width="4" marker-end="url(#arrowhead)" />
  <path d="M 200 420 L 200 450" stroke="#F39C12" stroke-width="4" marker-end="url(#arrowhead)" />
  <path d="M 200 520 L 200 550" stroke="#F39C12" stroke-width="4" marker-end="url(#arrowhead)" />

  <!-- Right Section: Theory Correspondence Heat Map -->
  <g id="heatmap">
    <!-- Column Headers -->
    <rect x="400" y="150" width="140" height="30" rx="5" fill="#8B8682" />
    <text x="470" y="171" text-anchor="middle" fill="white" font-size="16" font-weight="bold">場</text>
    <rect x="542" y="150" width="140" height="30" rx="5" fill="#5B8DB8" />
    <text x="612" y="171" text-anchor="middle" fill="white" font-size="16" font-weight="bold">波</text>
    <rect x="684" y="150" width="140" height="30" rx="5" fill="#D4A857" />
    <text x="754" y="171" text-anchor="middle" fill="white" font-size="16" font-weight="bold">縁</text>
    <rect x="826" y="150" width="140" height="30" rx="5" fill="#C45B4D" />
    <text x="896" y="171" text-anchor="middle" fill="white" font-size="16" font-weight="bold">渦</text>
    <rect x="968" y="150" width="140" height="30" rx="5" fill="#5B8B6A" />
    <text x="1038" y="171" text-anchor="middle" fill="white" font-size="16" font-weight="bold">束</text>

    <!-- Theory Labels -->
    <text x="390" y="204" text-anchor="end" fill="white" font-size="14">構造発達理論</text>
    <text x="390" y="240" text-anchor="end" fill="white" font-size="14">5レベル自己認知モデル</text>
    <text x="390" y="276" text-anchor="end" fill="white" font-size="14">DIDS アイデンティティ発達次元尺度</text>
    <text x="390" y="312" text-anchor="end" fill="white" font-size="14">動的システムアプローチ</text>
    <text x="390" y="348" text-anchor="end" fill="white" font-size="14">認知発達段階理論</text>
    <text x="390" y="384" text-anchor="end" fill="white" font-size="14">最近接発達領域（ZPD）</text>
    <text x="390" y="420" text-anchor="end" fill="white" font-size="14">愛着理論</text>
    <text x="390" y="456" text-anchor="end" fill="white" font-size="14">心理社会的発達段階</text>
    <text x="390" y="492" text-anchor="end" fill="white" font-size="14">欲求階層説</text>
    <text x="390" y="528" text-anchor="end" fill="white" font-size="14">自我発達理論</text>
    <text x="390" y="564" text-anchor="end" fill="white" font-size="14">AQAL</text>
    <text x="390" y="600" text-anchor="end" fill="white" font-size="14">動的スキル理論</text>
    <text x="390" y="636" text-anchor="end" fill="white" font-size="14">乳児の対人的世界</text>
    <text x="390" y="672" text-anchor="end" fill="white" font-size="14">共有志向性・共同注意</text>
    <text x="390" y="708" text-anchor="end" fill="white" font-size="14">道徳発達段階理論</text>

    <!-- Cells -->
    <!-- Row 0: 構造発達理論 (strong, 全段階) -->
    <rect x="400" y="182" width="140" height="34" fill="#8B8682" opacity="1.0" />
    <rect x="542" y="182" width="140" height="34" fill="#5B8DB8" opacity="1.0" />
    <rect x="684" y="182" width="140" height="34" fill="#D4A857" opacity="1.0" />
    <rect x="826" y="182" width="140" height="34" fill="#C45B4D" opacity="1.0" />
    <rect x="968" y="182" width="140" height="34" fill="#5B8B6A" opacity="1.0" />
    <!-- Row 1: 5レベル自己認知モデル (strong, 場,渦,束) -->
    <rect x="400" y="218" width="140" height="34" fill="#8B8682" opacity="1.0" />
    <rect x="542" y="218" width="140" height="34" fill="#5B8DB8" opacity="0.3" />
    <rect x="684" y="218" width="140" height="34" fill="#D4A857" opacity="0.3" />
    <rect x="826" y="218" width="140" height="34" fill="#C45B4D" opacity="1.0" />
    <rect x="968" y="218" width="140" height="34" fill="#5B8B6A" opacity="1.0" />
    <!-- Row 2: DIDS アイデンティティ発達次元尺度 (partial, 全段階) -->
    <rect x="400" y="254" width="140" height="34" fill="#8B8682" opacity="0.7" />
    <rect x="542" y="254" width="140" height="34" fill="#5B8DB8" opacity="0.7" />
    <rect x="684" y="254" width="140" height="34" fill="#D4A857" opacity="0.7" />
    <rect x="826" y="254" width="140" height="34" fill="#C45B4D" opacity="0.7" />
    <rect x="968" y="254" width="140" height="34" fill="#5B8B6A" opacity="0.7" />
    <!-- Row 3: 動的システムアプローチ (strong, 全段階) -->
    <rect x="400" y="290" width="140" height="34" fill="#8B8682" opacity="1.0" />
    <rect x="542" y="290" width="140" height="34" fill="#5B8DB8" opacity="1.0" />
    <rect x="684" y="290" width="140" height="34" fill="#D4A857" opacity="1.0" />
    <rect x="826" y="290" width="140" height="34" fill="#C45B4D" opacity="1.0" />
    <rect x="968" y="290" width="140" height="34" fill="#5B8B6A" opacity="1.0" />
    <!-- Row 4: 認知発達段階理論 (partial, 全段階) -->
    <rect x="400" y="326" width="140" height="34" fill="#8B8682" opacity="0.7" />
    <rect x="542" y="326" width="140" height="34" fill="#5B8DB8" opacity="0.7" />
    <rect x="684" y="326" width="140" height="34" fill="#D4A857" opacity="0.7" />
    <rect x="826" y="326" width="140" height="34" fill="#C45B4D" opacity="0.7" />
    <rect x="968" y="326" width="140" height="34" fill="#5B8B6A" opacity="0.7" />
    <!-- Row 5: 最近接発達領域（ZPD） (strong, 縁) -->
    <rect x="400" y="362" width="140" height="34" fill="#8B8682" opacity="0.3" />
    <rect x="542" y="362" width="140" height="34" fill="#5B8DB8" opacity="0.3" />
    <rect x="684" y="362" width="140" height="34" fill="#D4A857" opacity="1.0" />
    <rect x="826" y="362" width="140" height="34" fill="#C45B4D" opacity="0.3" />
    <rect x="968" y="362" width="140" height="34" fill="#5B8B6A" opacity="0.3" />
    <!-- Row 6: 愛着理論 (strong, 場) -->
    <rect x="400" y="398" width="140" height="34" fill="#8B8682" opacity="1.0" />
    <rect x="542" y="398" width="140" height="34" fill="#5B8DB8" opacity="0.3" />
    <rect x="684" y="398" width="140" height="34" fill="#D4A857" opacity="0.3" />
    <rect x="826" y="398" width="140" height="34" fill="#C45B4D" opacity="0.3" />
    <rect x="968" y="398" width="140" height="34" fill="#5B8B6A" opacity="0.3" />
    <!-- Row 7: 心理社会的発達段階 (partial, 波) -->
    <rect x="400" y="434" width="140" height="34" fill="#8B8682" opacity="0.3" />
    <rect x="542" y="434" width="140" height="34" fill="#5B8DB8" opacity="0.7" />
    <rect x="684" y="434" width="140" height="34" fill="#D4A857" opacity="0.3" />
    <rect x="826" y="434" width="140" height="34" fill="#C45B4D" opacity="0.3" />
    <rect x="968" y="434" width="140" height="34" fill="#5B8B6A" opacity="0.3" />
    <!-- Row 8: 欲求階層説 (conditional, 全段階) -->
    <rect x="400" y="470" width="140" height="34" fill="#8B8682" opacity="0.4" />
    <rect x="542" y="470" width="140" height="34" fill="#5B8DB8" opacity="0.4" />
    <rect x="684" y="470" width="140" height="34" fill="#D4A857" opacity="0.4" />
    <rect x="826" y="470" width="140" height="34" fill="#C45B4D" opacity="0.4" />
    <rect x="968" y="470" width="140" height="34" fill="#5B8B6A" opacity="0.4" />
    <!-- Row 9: 自我発達理論 (strong, 渦,束) -->
    <rect x="400" y="506" width="140" height="34" fill="#8B8682" opacity="0.3" />
    <rect x="542" y="506" width="140" height="34" fill="#5B8DB8" opacity="0.3" />
    <rect x="684" y="506" width="140" height="34" fill="#D4A857" opacity="0.3" />
    <rect x="826" y="506" width="140" height="34" fill="#C45B4D" opacity="1.0" />
    <rect x="968" y="506" width="140" height="34" fill="#5B8B6A" opacity="1.0" />
    <!-- Row 10: AQAL (conditional, チェック枠としてのみ) -->
    <rect x="400" y="542" width="140" height="34" fill="#8B8682" opacity="0.2" />
    <rect x="542" y="542" width="140" height="34" fill="#5B8DB8" opacity="0.2" />
    <rect x="684" y="542" width="140" height="34" fill="#D4A857" opacity="0.2" />
    <rect x="826" y="542" width="140" height="34" fill="#C45B4D" opacity="0.2" />
    <rect x="968" y="542" width="140" height="34" fill="#5B8B6A" opacity="0.2" />
    <!-- Row 11: 動的スキル理論 (strong, 全段階) -->
    <rect x="400" y="578" width="140" height="34" fill="#8B8682" opacity="1.0" />
    <rect x="542" y="578" width="140" height="34" fill="#5B8DB8" opacity="1.0" />
    <rect x="684" y="578" width="140" height="34" fill="#D4A857" opacity="1.0" />
    <rect x="826" y="578" width="140" height="34" fill="#C45B4D" opacity="1.0" />
    <rect x="968" y="578" width="140" height="34" fill="#5B8B6A" opacity="1.0" />
    <!-- Row 12: 乳児の対人的世界 (strong, 場,縁) -->
    <rect x="400" y="614" width="140" height="34" fill="#8B8682" opacity="1.0" />
    <rect x="542" y="614" width="140" height="34" fill="#5B8DB8" opacity="0.3" />
    <rect x="684" y="614" width="140" height="34" fill="#D4A857" opacity="1.0" />
    <rect x="826" y="614" width="140" height="34" fill="#C45B4D" opacity="0.3" />
    <rect x="968" y="614" width="140" height="34" fill="#5B8B6A" opacity="0.3" />
    <!-- Row 13: 共有志向性・共同注意 (strong, 縁,束) -->
    <rect x="400" y="650" width="140" height="34" fill="#8B8682" opacity="0.3" />
    <rect x="542" y="650" width="140" height="34" fill="#5B8DB8" opacity="0.3" />
    <rect x="684" y="650" width="140" height="34" fill="#D4A857" opacity="1.0" />
    <rect x="826" y="650" width="140" height="34" fill="#C45B4D" opacity="0.3" />
    <rect x="968" y="650" width="140" height="34" fill="#5B8B6A" opacity="1.0" />
    <!-- Row 14: 道徳発達段階理論 (partial, 全段階) -->
    <rect x="400" y="686" width="140" height="34" fill="#8B8682" opacity="0.7" />
    <rect x="542" y="686" width="140" height="34" fill="#5B8DB8" opacity="0.7" />
    <rect x="684" y="686" width="140" height="34" fill="#D4A857" opacity="0.7" />
    <rect x="826" y="686" width="140" height="34" fill="#C45B4D" opacity="0.7" />
    <rect x="968" y="686" width="140" height="34" fill="#5B8B6A" opacity="0.7" />
  </g>

  <!-- Bottom Bar -->
  <rect x="0" y="730" width="1200" height="70" rx="20" fill="#2C3E50" stroke="#cccccc" stroke-width="1" />
  <text x="100" y="767" fill="white" font-size="18">
    <tspan fill="#27AE60">■</tspan> 強い対応: 9件
  </text>
  <text x="450" y="767" fill="white" font-size="18">
    <tspan fill="#F1C40F">■</tspan> 部分的対応: 4件
  </text>
  <text x="800" y="767" fill="white" font-size="18">
    <tspan fill="#E67E22">■</tspan> 条件付き: 2件
  </text>
</svg>