<svg viewBox="0 0 1200 900" font-family="sans-serif">
  <rect x="0" y="0" width="1200" height="900" fill="#1a1a2e" />

  <!-- Title -->
  <text x="600" y="60" font-size="30" text-anchor="middle" fill="#ffffff">10人類学理論と5段階モデルの対応関係マトリクス</text>

  <!-- Column Headers -->
  <rect x="230" y="110" width="180" height="50" fill="#8B8682" rx="5" ry="5" />
  <text x="320" y="142" font-size="20" text-anchor="middle" fill="#ffffff">場</text>
  <rect x="420" y="110" width="180" height="50" fill="#5B8DB8" rx="5" ry="5" />
  <text x="510" y="142" font-size="20" text-anchor="middle" fill="#ffffff">波</text>
  <rect x="610" y="110" width="180" height="50" fill="#D4A857" rx="5" ry="5" />
  <text x="700" y="142" font-size="20" text-anchor="middle" fill="#ffffff">縁</text>
  <rect x="800" y="110" width="180" height="50" fill="#C45B4D" rx="5" ry="5" />
  <text x="890" y="142" font-size="20" text-anchor="middle" fill="#ffffff">渦</text>
  <rect x="990" y="110" width="180" height="50" fill="#5B8B6A" rx="5" ry="5" />
  <text x="1080" y="142" font-size="20" text-anchor="middle" fill="#ffffff">束</text>

  <!-- Matrix Rows -->
  <!-- Row 1: 通過儀礼の三段階 -->
  <text x="10" y="194.5" font-size="18" fill="#ffffff">1. 通過儀礼の三段階</text>
  <rect x="230" y="160" width="180" height="55" fill="#8B8682" opacity="1" rx="5" ry="5" />
  <text x="320" y="194.5" font-size="18" text-anchor="middle" fill="#ffffff">場</text>
  <rect x="420" y="160" width="180" height="55" fill="#5B8DB8" opacity="1" rx="5" ry="5" />
  <text x="510" y="194.5" font-size="18" text-anchor="middle" fill="#ffffff">波</text>
  <rect x="610" y="160" width="180" height="55" fill="#D4A857" opacity="1" rx="5" ry="5" />
  <text x="700" y="194.5" font-size="18" text-anchor="middle" fill="#ffffff">縁</text>
  <rect x="800" y="160" width="180" height="55" fill="#C45B4D" opacity="1" rx="5" ry="5" />
  <text x="890" y="194.5" font-size="18" text-anchor="middle" fill="#ffffff">渦</text>
  <rect x="990" y="160" width="180" height="55" fill="#5B8B6A" opacity="1" rx="5" ry="5" />
  <text x="1080" y="194.5" font-size="18" text-anchor="middle" fill="#ffffff">束</text>

  <!-- Row 2: 社会劇の四局面 -->
  <text x="10" y="259.5" font-size="18" fill="#ffffff">2. 社会劇の四局面</text>
  <rect x="230" y="225" width="180" height="55" fill="#8B8682" opacity="1" rx="5" ry="5" />
  <text x="320" y="259.5" font-size="18" text-anchor="middle" fill="#ffffff">場</text>
  <rect x="420" y="225" width="180" height="55" fill="#5B8DB8" opacity="1" rx="5" ry="5" />
  <text x="510" y="259.5" font-size="18" text-anchor="middle" fill="#ffffff">波</text>
  <rect x="610" y="225" width="180" height="55" fill="#D4A857" opacity="1" rx="5" ry="5" />
  <text x="700" y="259.5" font-size="18" text-anchor="middle" fill="#ffffff">縁</text>
  <rect x="800" y="225" width="180" height="55" fill="#C45B4D" opacity="1" rx="5" ry="5" />
  <text x="890" y="259.5" font-size="18" text-anchor="middle" fill="#ffffff">渦</text>
  <rect x="990" y="225" width="180" height="55" fill="#5B8B6A" opacity="1" rx="5" ry="5" />
  <text x="1080" y="259.5" font-size="18" text-anchor="middle" fill="#ffffff">束</text>

  <!-- Row 3: リミナリティとコミュニタス -->
  <text x="10" y="324.5" font-size="18" fill="#ffffff">3. リミナリティとコミュニタス</text>
  <rect x="230" y="290" width="180" height="55" fill="#8B8682" opacity="0.2" rx="5" ry="5" />
  <text x="320" y="324.5" font-size="18" text-anchor="middle" fill="#888888">-</text>
  <rect x="420" y="290" width="180" height="55" fill="#5B8DB8" opacity="0.2" rx="5" ry="5" />
  <text x="510" y="324.5" font-size="18" text-anchor="middle" fill="#888888">-</text>
  <rect x="610" y="290" width="180" height="55" fill="#D4A857" opacity="1" rx="5" ry="5" />
  <text x="700" y="324.5" font-size="18" text-anchor="middle" fill="#ffffff">縁</text>
  <rect x="800" y="290" width="180" height="55" fill="#C45B4D" opacity="0.2" rx="5" ry="5" />
  <text x="890" y="324.5" font-size="18" text-anchor="middle" fill="#888888">-</text>
  <rect x="990" y="290" width="180" height="55" fill="#5B8B6A" opacity="0.2" rx="5" ry="5" />
  <text x="1080" y="324.5" font-size="18" text-anchor="middle" fill="#888888">-</text>

  <!-- Row 4: 汚穢と禁忌 -->
  <text x="10" y="389.5" font-size="18" fill="#ffffff">4. 汚穢と禁忌</text>
  <rect x="230" y="355" width="180" height="55" fill="#8B8682" opacity="0.7" rx="5" ry="5" />
  <text x="320" y="389.5" font-size="18" text-anchor="middle" fill="#e0e0e0">場</text>
  <rect x="420" y="355" width="180" height="55" fill="#5B8DB8" opacity="0.7" rx="5" ry="5" />
  <text x="510" y="389.5" font-size="18" text-anchor="middle" fill="#e0e0e0">波</text>
  <rect x="610" y="355" width="180" height="55" fill="#D4A857" opacity="0.7" rx="5" ry="5" />
  <text x="700" y="389.5" font-size="18" text-anchor="middle" fill="#e0e0e0">縁</text>
  <rect x="800" y="355" width="180" height="55" fill="#C45B4D" opacity="0.7" rx="5" ry="5" />
  <text x="890" y="389.5" font-size="18" text-anchor="middle" fill="#e0e0e0">渦</text>
  <rect x="990" y="355" width="180" height="55" fill="#5B8B6A" opacity="0.7" rx="5" ry="5" />
  <text x="1080" y="389.5" font-size="18" text-anchor="middle" fill="#e0e0e0">束</text>

  <!-- Row 5: 民族境界 -->
  <text x="10" y="454.5" font-size="18" fill="#ffffff">5. 民族境界</text>
  <rect x="230" y="420" width="180" height="55" fill="#8B8682" opacity="0.2" rx="5" ry="5" />
  <text x="320" y="454.5" font-size="18" text-anchor="middle" fill="#888888">-</text>
  <rect x="420" y="420" width="180" height="55" fill="#5B8DB8" opacity="0.2" rx="5" ry="5" />
  <text x="510" y="454.5" font-size="18" text-anchor="middle" fill="#888888">-</text>
  <rect x="610" y="420" width="180" height="55" fill="#D4A857" opacity="0.7" rx="5" ry="5" />
  <text x="700" y="454.5" font-size="18" text-anchor="middle" fill="#e0e0e0">縁</text>
  <rect x="800" y="420" width="180" height="55" fill="#C45B4D" opacity="0.2" rx="5" ry="5" />
  <text x="890" y="454.5" font-size="18" text-anchor="middle" fill="#888888">-</text>
  <rect x="990" y="420" width="180" height="55" fill="#5B8B6A" opacity="0.7" rx="5" ry="5" />
  <text x="1080" y="454.5" font-size="18" text-anchor="middle" fill="#e0e0e0">束</text>

  <!-- Row 6: 贈与論 -->
  <text x="10" y="519.5" font-size="18" fill="#ffffff">6. 贈与論</text>
  <rect x="230" y="485" width="180" height="55" fill="#8B8682" opacity="0.7" rx="5" ry="5" />
  <text x="320" y="519.5" font-size="18" text-anchor="middle" fill="#e0e0e0">場</text>
  <rect x="420" y="485" width="180" height="55" fill="#5B8DB8" opacity="0.7" rx="5" ry="5" />
  <text x="510" y="519.5" font-size="18" text-anchor="middle" fill="#e0e0e0">波</text>
  <rect x="610" y="485" width="180" height="55" fill="#D4A857" opacity="0.7" rx="5" ry="5" />
  <text x="700" y="519.5" font-size="18" text-anchor="middle" fill="#e0e0e0">縁</text>
  <rect x="800" y="485" width="180" height="55" fill="#C45B4D" opacity="0.7" rx="5" ry="5" />
  <text x="890" y="519.5" font-size="18" text-anchor="middle" fill="#e0e0e0">渦</text>
  <rect x="990" y="485" width="180" height="55" fill="#5B8B6A" opacity="0.7" rx="5" ry="5" />
  <text x="1080" y="519.5" font-size="18" text-anchor="middle" fill="#e0e0e0">束</text>

  <!-- Row 7: 操作連鎖 -->
  <text x="10" y="584.5" font-size="18" fill="#ffffff">7. 操作連鎖</text>
  <rect x="230" y="550" width="180" height="55" fill="#8B8682" opacity="0.7" rx="5" ry="5" />
  <text x="320" y="584.5" font-size="18" text-anchor="middle" fill="#e0e0e0">場</text>
  <rect x="420" y="550" width="180" height="55" fill="#5B8DB8" opacity="0.2" rx="5" ry="5" />
  <text x="510" y="584.5" font-size="18" text-anchor="middle" fill="#888888">-</text>
  <rect x="610" y="550" width="180" height="55" fill="#D4A857" opacity="0.2" rx="5" ry="5" />
  <text x="700" y="584.5" font-size="18" text-anchor="middle" fill="#888888">-</text>
  <rect x="800" y="550" width="180" height="55" fill="#C45B4D" opacity="0.2" rx="5" ry="5" />
  <text x="890" y="584.5" font-size="18" text-anchor="middle" fill="#888888">-</text>
  <rect x="990" y="550" width="180" height="55" fill="#5B8B6A" opacity="0.2" rx="5" ry="5" />
  <text x="1080" y="584.5" font-size="18" text-anchor="middle" fill="#888888">-</text>

  <!-- Row 8: 象徴境界と社会境界 -->
  <text x="10" y="649.5" font-size="18" fill="#ffffff">8. 象徴境界と社会境界</text>
  <rect x="230" y="615" width="180" height="55" fill="#8B8682" opacity="0.2" rx="5" ry="5" />
  <text x="320" y="649.5" font-size="18" text-anchor="middle" fill="#888888">-</text>
  <rect x="420" y="615" width="180" height="55" fill="#5B8DB8" opacity="0.7" rx="5" ry="5" />
  <text x="510" y="649.5" font-size="18" text-anchor="middle" fill="#e0e0e0">波</text>
  <rect x="610" y="615" width="180" height="55" fill="#D4A857" opacity="0.7" rx="5" ry="5" />
  <text x="700" y="649.5" font-size="18" text-anchor="middle" fill="#e0e0e0">縁</text>
  <rect x="800" y="615" width="180" height="55" fill="#C45B4D" opacity="0.7" rx="5" ry="5" />
  <text x="890" y="649.5" font-size="18" text-anchor="middle" fill="#e0e0e0">渦</text>
  <rect x="990" y="615" width="180" height="55" fill="#5B8B6A" opacity="0.7" rx="5" ry="5" />
  <text x="1080" y="649.5" font-size="18" text-anchor="middle" fill="#e0e0e0">束</text>

  <!-- Row 9: コンタクト・ゾーン -->
  <text x="10" y="714.5" font-size="18" fill="#ffffff">9. コンタクト・ゾーン</text>
  <rect x="230" y="680" width="180" height="55" fill="#8B8682" opacity="0.2" rx="5" ry="5" />
  <text x="320" y="714.5" font-size="18" text-anchor="middle" fill="#888888">-</text>
  <rect x="420" y="680" width="180" height="55" fill="#5B8DB8" opacity="0.2" rx="5" ry="5" />
  <text x="510" y="714.5" font-size="18" text-anchor="middle" fill="#888888">-</text>
  <rect x="610" y="680" width="180" height="55" fill="#D4A857" opacity="0.3" rx="5" ry="5" />
  <text x="700" y="714.5" font-size="18" text-anchor="middle" fill="#aaaaaa">縁</text>
  <rect x="800" y="680" width="180" height="55" fill="#C45B4D" opacity="0.2" rx="5" ry="5" />
  <text x="890" y="714.5" font-size="18" text-anchor="middle" fill="#888888">-</text>
  <rect x="990" y="680" width="180" height="55" fill="#5B8B6A" opacity="0.2" rx="5" ry="5" />
  <text x="1080" y="714.5" font-size="18" text-anchor="middle" fill="#888888">-</text>

  <!-- Row 10: 構造化理論/実践感覚 -->
  <text x="10" y="779.5" font-size="18" fill="#ffffff">10. 構造化理論/実践感覚</text>
  <rect x="230" y="745" width="180" height="55" fill="#8B8682" opacity="0.7" rx="5" ry="5" />
  <text x="320" y="779.5" font-size="18" text-anchor="middle" fill="#e0e0e0">場</text>
  <rect x="420" y="745" width="180" height="55" fill="#5B8DB8" opacity="0.2" rx="5" ry="5" />
  <text x="510" y="779.5" font-size="18" text-anchor="middle" fill="#888888">-</text>
  <rect x="610" y="745" width="180" height="55" fill="#D4A857" opacity="0.7" rx="5" ry="5" />
  <text x="700" y="779.5" font-size="18" text-anchor="middle" fill="#e0e0e0">縁</text>
  <rect x="800" y="745" width="180" height="55" fill="#C45B4D" opacity="0.2" rx="5" ry="5" />
  <text x="890" y="779.5" font-size="18" text-anchor="middle" fill="#888888">-</text>
  <rect x="990" y="745" width="180" height="55" fill="#5B8B6A" opacity="0.7" rx="5" ry="5" />
  <text x="1080" y="779.5" font-size="18" text-anchor="middle" fill="#e0e0e0">束</text>

  <!-- Legend -->
  <rect x="100" y="830" width="30" height="30" fill="#8B8682" opacity="1" rx="5" ry="5" />
  <text x="140" y="852" font-size="16" fill="#ffffff">強い対応 (Strong)</text>
  <rect x="400" y="830" width="30" height="30" fill="#8B8682" opacity="0.7" rx="5" ry="5" />
  <text x="440" y="852" font-size="16" fill="#ffffff">部分的 (Partial)</text>
  <rect x="700" y="830" width="30" height="30" fill="#8B8682" opacity="0.3" rx="5" ry="5" />
  <text x="740" y="852" font-size="16" fill="#ffffff">条件付き/弱い (Conditional/Weak)</text>
</svg>