<svg viewBox="0 0 1200 900" font-family="sans-serif" xmlns="http://www.w3.org/2000/svg">
  <!-- Background -->
  <rect x="0" y="0" width="1200" height="900" fill="#1a1a2e"/>

  <!-- Title -->
  <text x="600" y="60" text-anchor="middle" font-size="32" fill="#ffffff">10音楽学理論と5段階モデルの対応関係マトリクス</text>

  <!-- Column Headers -->
  <!-- Stage names: 場 (Field) | 波 (Wave) | 縁 (Edge) | 渦 (Vortex) | 束 (Bundle) -->
  <!-- Stage colors: #8B8682, #5B8DB8, #D4A857, #C45B4D, #5B8B6A -->
  <g>
    <rect x="230" y="100" width="180" height="50" fill="#8B8682" rx="5" ry="5"/>
    <text x="320" y="133" text-anchor="middle" font-size="20" fill="#ffffff">場</text>

    <rect x="420" y="100" width="180" height="50" fill="#5B8DB8" rx="5" ry="5"/>
    <text x="510" y="133" text-anchor="middle" font-size="20" fill="#ffffff">波</text>

    <rect x="610" y="100" width="180" height="50" fill="#D4A857" rx="5" ry="5"/>
    <text x="700" y="133" text-anchor="middle" font-size="20" fill="#ffffff">縁</text>

    <rect x="800" y="100" width="180" height="50" fill="#C45B4D" rx="5" ry="5"/>
    <text x="890" y="133" text-anchor="middle" font-size="20" fill="#ffffff">渦</text>

    <rect x="990" y="100" width="180" height="50" fill="#5B8B6A" rx="5" ry="5"/>
    <text x="1080" y="133" text-anchor="middle" font-size="20" fill="#ffffff">束</text>
  </g>

  <!-- Matrix Rows -->
  <g>
    <!-- Theory 1: 即興の情報処理サイクル | partial | 場 | 波 | 縁 | 渦 | 束 -->
    <text x="10" y="204.5" font-size="18" fill="#ffffff">1. 即興の情報処理サイクル</text>
    <rect x="230" y="170" width="180" height="55" fill="#8B8682" opacity="0.7" rx="5" ry="5"/>
    <text x="320" y="204.5" text-anchor="middle" font-size="18" fill="#e0e0e0">場</text>
    <rect x="420" y="170" width="180" height="55" fill="#5B8DB8" opacity="0.7" rx="5" ry="5"/>
    <text x="510" y="204.5" text-anchor="middle" font-size="18" fill="#e0e0e0">波</text>
    <rect x="610" y="170" width="180" height="55" fill="#D4A857" opacity="0.7" rx="5" ry="5"/>
    <text x="700" y="204.5" text-anchor="middle" font-size="18" fill="#e0e0e0">縁</text>
    <rect x="800" y="170" width="180" height="55" fill="#C45B4D" opacity="0.7" rx="5" ry="5"/>
    <text x="890" y="204.5" text-anchor="middle" font-size="18" fill="#e0e0e0">渦</text>
    <rect x="990" y="170" width="180" height="55" fill="#5B8B6A" opacity="0.7" rx="5" ry="5"/>
    <text x="1080" y="204.5" text-anchor="middle" font-size="18" fill="#e0e0e0">束</text>

    <!-- Theory 2: ソナタ形式の弁証法的構造 | partial | 場 | 波 | 縁 | 渦 | 束 -->
    <text x="10" y="269.5" font-size="18" fill="#ffffff">2. ソナタ形式の弁証法的構造</text>
    <rect x="230" y="235" width="180" height="55" fill="#8B8682" opacity="0.7" rx="5" ry="5"/>
    <text x="320" y="269.5" text-anchor="middle" font-size="18" fill="#e0e0e0">場</text>
    <rect x="420" y="235" width="180" height="55" fill="#5B8DB8" opacity="0.7" rx="5" ry="5"/>
    <text x="510" y="269.5" text-anchor="middle" font-size="18" fill="#e0e0e0">波</text>
    <rect x="610" y="235" width="180" height="55" fill="#D4A857" opacity="0.7" rx="5" ry="5"/>
    <text x="700" y="269.5" text-anchor="middle" font-size="18" fill="#e0e0e0">縁</text>
    <rect x="800" y="235" width="180" height="55" fill="#C45B4D" opacity="0.7" rx="5" ry="5"/>
    <text x="890" y="269.5" text-anchor="middle" font-size="18" fill="#e0e0e0">渦</text>
    <rect x="990" y="235" width="180" height="55" fill="#5B8B6A" opacity="0.7" rx="5" ry="5"/>
    <text x="1080" y="269.5" text-anchor="middle" font-size="18" fill="#e0e0e0">束</text>

    <!-- Theory 3: 期待・遅延・解決としての情動生成 | strong | 場 | 波 | 縁 | 渦 | 束 -->
    <text x="10" y="334.5" font-size="18" fill="#ffffff">3. 期待・遅延・解決としての情動生成</text>
    <rect x="230" y="300" width="180" height="55" fill="#8B8682" opacity="1" rx="5" ry="5"/>
    <text x="320" y="334.5" text-anchor="middle" font-size="18" fill="#ffffff">場</text>
    <rect x="420" y="300" width="180" height="55" fill="#5B8DB8" opacity="1" rx="5" ry="5"/>
    <text x="510" y="334.5" text-anchor="middle" font-size="18" fill="#ffffff">波</text>
    <rect x="610" y="300" width="180" height="55" fill="#D4A857" opacity="1" rx="5" ry="5"/>
    <text x="700" y="334.5" text-anchor="middle" font-size="18" fill="#ffffff">縁</text>
    <rect x="800" y="300" width="180" height="55" fill="#C45B4D" opacity="1" rx="5" ry="5"/>
    <text x="890" y="334.5" text-anchor="middle" font-size="18" fill="#ffffff">渦</text>
    <rect x="990" y="300" width="180" height="55" fill="#5B8B6A" opacity="1" rx="5" ry="5"/>
    <text x="1080" y="334.5" text-anchor="middle" font-size="18" fill="#ffffff">束</text>

    <!-- Theory 4: 歌の普遍性と多様性のデータ駆動研究 | conditional | 場 | 波 | 縁 | 渦 | 束 -->
    <text x="10" y="399.5" font-size="18" fill="#ffffff">4. 歌の普遍性と多様性のデータ駆動研究</text>
    <rect x="230" y="365" width="180" height="55" fill="#8B8682" opacity="0.3" rx="5" ry="5"/>
    <text x="320" y="399.5" text-anchor="middle" font-size="18" fill="#aaaaaa">場</text>
    <rect x="420" y="365" width="180" height="55" fill="#5B8DB8" opacity="0.3" rx="5" ry="5"/>
    <text x="510" y="399.5" text-anchor="middle" font-size="18" fill="#aaaaaa">波</text>
    <rect x="610" y="365" width="180" height="55" fill="#D4A857" opacity="0.3" rx="5" ry="5"/>
    <text x="700" y="399.5" text-anchor="middle" font-size="18" fill="#aaaaaa">縁</text>
    <rect x="800" y="365" width="180" height="55" fill="#C45B4D" opacity="0.3" rx="5" ry="5"/>
    <text x="890" y="399.5" text-anchor="middle" font-size="18" fill="#aaaaaa">渦</text>
    <rect x="990" y="365" width="180" height="55" fill="#5B8B6A" opacity="0.3" rx="5" ry="5"/>
    <text x="1080" y="399.5" text-anchor="middle" font-size="18" fill="#aaaaaa">束</text>

    <!-- Theory 5: ITPRA理論 | strong | 場 | 波 | 縁 | 渦 | 束 -->
    <text x="10" y="464.5" font-size="18" fill="#ffffff">5. ITPRA理論</text>
    <rect x="230" y="430" width="180" height="55" fill="#8B8682" opacity="1" rx="5" ry="5"/>
    <text x="320" y="464.5" text-anchor="middle" font-size="18" fill="#ffffff">場</text>
    <rect x="420" y="430" width="180" height="55" fill="#5B8DB8" opacity="1" rx="5" ry="5"/>
    <text x="510" y="464.5" text-anchor="middle" font-size="18" fill="#ffffff">波</text>
    <rect x="610" y="430" width="180" height="55" fill="#D4A857" opacity="1" rx="5" ry="5"/>
    <text x="700" y="464.5" text-anchor="middle" font-size="18" fill="#ffffff">縁</text>
    <rect x="800" y="430" width="180" height="55" fill="#C45B4D" opacity="1" rx="5" ry="5"/>
    <text x="890" y="464.5" text-anchor="middle" font-size="18" fill="#ffffff">渦</text>
    <rect x="990" y="430" width="180" height="55" fill="#5B8B6A" opacity="1" rx="5" ry="5"/>
    <text x="1080" y="464.5" text-anchor="middle" font-size="18" fill="#ffffff">束</text>

    <!-- Theory 6: グルーヴ理論 | partial | 場 | 波 | 縁 | 渦 | 束 -->
    <text x="10" y="529.5" font-size="18" fill="#ffffff">6. グルーヴ理論</text>
    <rect x="230" y="495" width="180" height="55" fill="#8B8682" opacity="0.7" rx="5" ry="5"/>
    <text x="320" y="529.5" text-anchor="middle" font-size="18" fill="#e0e0e0">場</text>
    <rect x="420" y="495" width="180" height="55" fill="#5B8DB8" opacity="0.7" rx="5" ry="5"/>
    <text x="510" y="529.5" text-anchor="middle" font-size="18" fill="#e0e0e0">波</text>
    <rect x="610" y="495" width="180" height="55" fill="#D4A857" opacity="0.7" rx="5" ry="5"/>
    <text x="700" y="529.5" text-anchor="middle" font-size="18" fill="#e0e0e0">縁</text>
    <rect x="800" y="495" width="180" height="55" fill="#C45B4D" opacity="0.7" rx="5" ry="5"/>
    <text x="890" y="529.5" text-anchor="middle" font-size="18" fill="#e0e0e0">渦</text>
    <rect x="990" y="495" width="180" height="55" fill="#5B8B6A" opacity="0.7" rx="5" ry="5"/>
    <text x="1080" y="529.5" text-anchor="middle" font-size="18" fill="#e0e0e0">束</text>

    <!-- Theory 7: Tonal Pitch Space | conditional | - | - | 縁 | - | - -->
    <text x="10" y="594.5" font-size="18" fill="#ffffff">7. Tonal Pitch Space</text>
    <rect x="230" y="560" width="180" height="55" fill="#8B8682" opacity="0.2" rx="5" ry="5"/>
    <text x="320" y="594.5" text-anchor="middle" font-size="18" fill="#888888">-</text>
    <rect x="420" y="560" width="180" height="55" fill="#5B8DB8" opacity="0.2" rx="5" ry="5"/>
    <text x="510" y="594.5" text-anchor="middle" font-size="18" fill="#888888">-</text>
    <rect x="610" y="560" width="180" height="55" fill="#D4A857" opacity="0.3" rx="5" ry="5"/>
    <text x="700" y="594.5" text-anchor="middle" font-size="18" fill="#aaaaaa">縁</text>
    <rect x="800" y="560" width="180" height="55" fill="#C45B4D" opacity="0.2" rx="5" ry="5"/>
    <text x="890" y="594.5" text-anchor="middle" font-size="18" fill="#888888">-</text>
    <rect x="990" y="560" width="180" height="55" fill="#5B8B6A" opacity="0.2" rx="5" ry="5"/>
    <text x="1080" y="594.5" text-anchor="middle" font-size="18" fill="#888888">-</text>

    <!-- Theory 8: ラーガの段階構造 | conditional | 場 | 波 | - | - | - -->
    <text x="10" y="659.5" font-size="18" fill="#ffffff">8. ラーガの段階構造</text>
    <rect x="230" y="625" width="180" height="55" fill="#8B8682" opacity="0.3" rx="5" ry="5"/>
    <text x="320" y="659.5" text-anchor="middle" font-size="18" fill="#aaaaaa">場</text>
    <rect x="420" y="625" width="180" height="55" fill="#5B8DB8" opacity="0.3" rx="5" ry="5"/>
    <text x="510" y="659.5" text-anchor="middle" font-size="18" fill="#aaaaaa">波</text>
    <rect x="610" y="625" width="180" height="55" fill="#D4A857" opacity="0.2" rx="5" ry="5"/>
    <text x="700" y="659.5" text-anchor="middle" font-size="18" fill="#888888">-</text>
    <rect x="800" y="625" width="180" height="55" fill="#C45B4D" opacity="0.2" rx="5" ry="5"/>
    <text x="890" y="659.5" text-anchor="middle" font-size="18" fill="#888888">-</text>
    <rect x="990" y="625" width="180" height="55" fill="#5B8B6A" opacity="0.2" rx="5" ry="5"/>
    <text x="1080" y="659.5" text-anchor="middle" font-size="18" fill="#888888">-</text>

    <!-- Theory 9: 聴覚景分析（ASA） | partial | 場 | 波 | 縁 | 渦 | 束 -->
    <text x="10" y="724.5" font-size="18" fill="#ffffff">9. 聴覚景分析（ASA）</text>
    <rect x="230" y="690" width="180" height="55" fill="#8B8682" opacity="0.7" rx="5" ry="5"/>
    <text x="320" y="724.5" text-anchor="middle" font-size="18" fill="#e0e0e0">場</text>
    <rect x="420" y="690" width="180" height="55" fill="#5B8DB8" opacity="0.7" rx="5" ry="5"/>
    <text x="510" y="724.5" text-anchor="middle" font-size="18" fill="#e0e0e0">波</text>
    <rect x="610" y="690" width="180" height="55" fill="#D4A857" opacity="0.7" rx="5" ry="5"/>
    <text x="700" y="724.5" text-anchor="middle" font-size="18" fill="#e0e0e0">縁</text>
    <rect x="800" y="690" width="180" height="55" fill="#C45B4D" opacity="0.7" rx="5" ry="5"/>
    <text x="890" y="724.5" text-anchor="middle" font-size="18" fill="#e0e0e0">渦</text>
    <rect x="990" y="690" width="180" height="55" fill="#5B8B6A" opacity="0.7" rx="5" ry="5"/>
    <text x="1080" y="724.5" text-anchor="middle" font-size="18" fill="#e0e0e0">束</text>

    <!-- Theory 10: 生態学的音楽知覚 | conditional | 場 | - | - | 渦 | - -->
    <text x="10" y="789.5" font-size="18" fill="#ffffff">10. 生態学的音楽知覚</text>
    <rect x="230" y="755" width="180" height="55" fill="#8B8682" opacity="0.3" rx="5" ry="5"/>
    <text x="320" y="789.5" text-anchor="middle" font-size="18" fill="#aaaaaa">場</text>
    <rect x="420" y="755" width="180" height="55" fill="#5B8DB8" opacity="0.2" rx="5" ry="5"/>
    <text x="510" y="789.5" text-anchor="middle" font-size="18" fill="#888888">-</text>
    <rect x="610" y="755" width="180" height="55" fill="#D4A857" opacity="0.2" rx="5" ry="5"/>
    <text x="700" y="789.5" text-anchor="middle" font-size="18" fill="#888888">-</text>
    <rect x="800" y="755" width="180" height="55" fill="#C45B4D" opacity="0.3" rx="5" ry="5"/>
    <text x="890" y="789.5" text-anchor="middle" font-size="18" fill="#aaaaaa">渦</text>
    <rect x="990" y="755" width="180" height="55" fill="#5B8B6A" opacity="0.2" rx="5" ry="5"/>
    <text x="1080" y="789.5" text-anchor="middle" font-size="18" fill="#888888">-</text>
  </g>

  <!-- Legend -->
  <g>
    <rect x="10" y="850" width="40" height="25" fill="#8B8682" rx="5" ry="5"/>
    <text x="60" y="869.5" font-size="16" fill="#ffffff">強い対応 (Strong)</text>

    <rect x="210" y="850" width="40" height="25" fill="#8B8682" opacity="0.7" rx="5" ry="5"/>
    <text x="260" y="869.5" font-size="16" fill="#ffffff">部分的 (Partial)</text>

    <rect x="410" y="850" width="40" height="25" fill="#8B8682" opacity="0.3" rx="5" ry="5"/>
    <text x="460" y="869.5" font-size="16" fill="#ffffff">条件付き/弱い (Conditional/Weak)</text>
  </g>
</svg>