<svg viewBox="0 0 1200 900" xmlns="http://www.w3.org/2000/svg" font-family="sans-serif">
  <!-- Background -->
  <rect x="0" y="0" width="1200" height="900" fill="#1a1a2e"/>

  <!-- Title -->
  <text x="600" y="60" font-size="36" text-anchor="middle" fill="#ffffff">10舞台芸術理論と5段階モデルの対応関係マトリクス</text>

  <!-- Column Headers -->
  <rect x="230" y="100" width="180" height="50" rx="5" ry="5" fill="#8B8682"/>
  <text x="320" y="138" font-size="24" text-anchor="middle" fill="#ffffff">場</text>
  <rect x="420" y="100" width="180" height="50" rx="5" ry="5" fill="#5B8DB8"/>
  <text x="510" y="138" font-size="24" text-anchor="middle" fill="#ffffff">波</text>
  <rect x="610" y="100" width="180" height="50" rx="5" ry="5" fill="#D4A857"/>
  <text x="700" y="138" font-size="24" text-anchor="middle" fill="#ffffff">縁</text>
  <rect x="800" y="100" width="180" height="50" rx="5" ry="5" fill="#C45B4D"/>
  <text x="890" y="138" font-size="24" text-anchor="middle" fill="#ffffff">渦</text>
  <rect x="990" y="100" width="180" height="50" rx="5" ry="5" fill="#5B8B6A"/>
  <text x="1080" y="138" font-size="24" text-anchor="middle" fill="#ffffff">束</text>

  <!-- Matrix Rows and Cells -->
  <!-- Row 1: 花伝書・修行過程 -->
  <text x="10" y="192" font-size="20" fill="#ffffff">1. 花伝書・修行過程</text>
  <rect x="230" y="160" width="180" height="55" rx="5" ry="5" fill="#8B8682" opacity="1.0"/>
  <text x="320" y="192" font-size="20" text-anchor="middle" fill="#ffffff">場</text>
  <rect x="420" y="160" width="180" height="55" rx="5" ry="5" fill="#5B8DB8" opacity="1.0"/>
  <text x="510" y="192" font-size="20" text-anchor="middle" fill="#ffffff">波</text>
  <rect x="610" y="160" width="180" height="55" rx="5" ry="5" fill="#D4A857" opacity="1.0"/>
  <text x="700" y="192" font-size="20" text-anchor="middle" fill="#ffffff">縁</text>
  <rect x="800" y="160" width="180" height="55" rx="5" ry="5" fill="#C45B4D" opacity="1.0"/>
  <text x="890" y="192" font-size="20" text-anchor="middle" fill="#ffffff">渦</text>
  <rect x="990" y="160" width="180" height="55" rx="5" ry="5" fill="#5B8B6A" opacity="1.0"/>
  <text x="1080" y="192" font-size="20" text-anchor="middle" fill="#ffffff">束</text>

  <!-- Row 2: 即興演劇 -->
  <text x="10" y="257" font-size="20" fill="#ffffff">2. 即興演劇</text>
  <rect x="230" y="225" width="180" height="55" rx="5" ry="5" fill="#8B8682" opacity="1.0"/>
  <text x="320" y="257" font-size="20" text-anchor="middle" fill="#ffffff">場</text>
  <rect x="420" y="225" width="180" height="55" rx="5" ry="5" fill="#5B8DB8" opacity="1.0"/>
  <text x="510" y="257" font-size="20" text-anchor="middle" fill="#ffffff">波</text>
  <rect x="610" y="225" width="180" height="55" rx="5" ry="5" fill="#D4A857" opacity="1.0"/>
  <text x="700" y="257" font-size="20" text-anchor="middle" fill="#ffffff">縁</text>
  <rect x="800" y="225" width="180" height="55" rx="5" ry="5" fill="#C45B4D" opacity="1.0"/>
  <text x="890" y="257" font-size="20" text-anchor="middle" fill="#ffffff">渦</text>
  <rect x="990" y="225" width="180" height="55" rx="5" ry="5" fill="#5B8B6A" opacity="1.0"/>
  <text x="1080" y="257" font-size="20" text-anchor="middle" fill="#ffffff">束</text>

  <!-- Row 3: パフォーマティヴ美学 -->
  <text x="10" y="322" font-size="20" fill="#ffffff">3. パフォーマティヴ美学</text>
  <rect x="230" y="290" width="180" height="55" rx="5" ry="5" fill="#8B8682" opacity="1.0"/>
  <text x="320" y="322" font-size="20" text-anchor="middle" fill="#ffffff">場</text>
  <rect x="420" y="290" width="180" height="55" rx="5" ry="5" fill="#5B8DB8" opacity="1.0"/>
  <text x="510" y="322" font-size="20" text-anchor="middle" fill="#ffffff">波</text>
  <rect x="610" y="290" width="180" height="55" rx="5" ry="5" fill="#D4A857" opacity="1.0"/>
  <text x="700" y="322" font-size="20" text-anchor="middle" fill="#ffffff">縁</text>
  <rect x="800" y="290" width="180" height="55" rx="5" ry="5" fill="#C45B4D" opacity="1.0"/>
  <text x="890" y="322" font-size="20" text-anchor="middle" fill="#ffffff">渦</text>
  <rect x="990" y="290" width="180" height="55" rx="5" ry="5" fill="#333333" opacity="0.2"/>
  <text x="1080" y="322" font-size="20" text-anchor="middle" fill="#888888">-</text>

  <!-- Row 4: 貧しい演劇 / via negativa -->
  <text x="10" y="387" font-size="20" fill="#ffffff">4. 貧しい演劇 / via negativa</text>
  <rect x="230" y="355" width="180" height="55" rx="5" ry="5" fill="#333333" opacity="0.2"/>
  <text x="320" y="387" font-size="20" text-anchor="middle" fill="#888888">-</text>
  <rect x="420" y="355" width="180" height="55" rx="5" ry="5" fill="#5B8DB8" opacity="0.7"/>
  <text x="510" y="387" font-size="20" text-anchor="middle" fill="#e0e0e0">波</text>
  <rect x="610" y="355" width="180" height="55" rx="5" ry="5" fill="#333333" opacity="0.2"/>
  <text x="700" y="387" font-size="20" text-anchor="middle" fill="#888888">-</text>
  <rect x="800" y="355" width="180" height="55" rx="5" ry="5" fill="#C45B4D" opacity="0.7"/>
  <text x="890" y="387" font-size="20" text-anchor="middle" fill="#e0e0e0">渦</text>
  <rect x="990" y="355" width="180" height="55" rx="5" ry="5" fill="#333333" opacity="0.2"/>
  <text x="1080" y="387" font-size="20" text-anchor="middle" fill="#888888">-</text>

  <!-- Row 5: システム -->
  <text x="10" y="452" font-size="20" fill="#ffffff">5. システム</text>
  <rect x="230" y="420" width="180" height="55" rx="5" ry="5" fill="#333333" opacity="0.2"/>
  <text x="320" y="452" font-size="20" text-anchor="middle" fill="#888888">-</text>
  <rect x="420" y="420" width="180" height="55" rx="5" ry="5" fill="#5B8DB8" opacity="0.7"/>
  <text x="510" y="452" font-size="20" text-anchor="middle" fill="#e0e0e0">波</text>
  <rect x="610" y="420" width="180" height="55" rx="5" ry="5" fill="#333333" opacity="0.2"/>
  <text x="700" y="452" font-size="20" text-anchor="middle" fill="#888888">-</text>
  <rect x="800" y="420" width="180" height="55" rx="5" ry="5" fill="#C45B4D" opacity="0.7"/>
  <text x="890" y="452" font-size="20" text-anchor="middle" fill="#e0e0e0">渦</text>
  <rect x="990" y="420" width="180" height="55" rx="5" ry="5" fill="#333333" opacity="0.2"/>
  <text x="1080" y="452" font-size="20" text-anchor="middle" fill="#888888">-</text>

  <!-- Row 6: バイオメカニクス -->
  <text x="10" y="517" font-size="20" fill="#ffffff">6. バイオメカニクス</text>
  <rect x="230" y="485" width="180" height="55" rx="5" ry="5" fill="#333333" opacity="0.2"/>
  <text x="320" y="517" font-size="20" text-anchor="middle" fill="#888888">-</text>
  <rect x="420" y="485" width="180" height="55" rx="5" ry="5" fill="#5B8DB8" opacity="0.7"/>
  <text x="510" y="517" font-size="20" text-anchor="middle" fill="#e0e0e0">波</text>
  <rect x="610" y="485" width="180" height="55" rx="5" ry="5" fill="#333333" opacity="0.2"/>
  <text x="700" y="517" font-size="20" text-anchor="middle" fill="#888888">-</text>
  <rect x="800" y="485" width="180" height="55" rx="5" ry="5" fill="#C45B4D" opacity="0.7"/>
  <text x="890" y="517" font-size="20" text-anchor="middle" fill="#e0e0e0">渦</text>
  <rect x="990" y="485" width="180" height="55" rx="5" ry="5" fill="#333333" opacity="0.2"/>
  <text x="1080" y="517" font-size="20" text-anchor="middle" fill="#888888">-</text>

  <!-- Row 7: 身体動作分析（LMA） -->
  <text x="10" y="582" font-size="20" fill="#ffffff">7. 身体動作分析（LMA）</text>
  <rect x="230" y="550" width="180" height="55" rx="5" ry="5" fill="#8B8682" opacity="0.3"/>
  <text x="320" y="582" font-size="20" text-anchor="middle" fill="#aaaaaa">場</text>
  <rect x="420" y="550" width="180" height="55" rx="5" ry="5" fill="#5B8DB8" opacity="0.3"/>
  <text x="510" y="582" font-size="20" text-anchor="middle" fill="#aaaaaa">波</text>
  <rect x="610" y="550" width="180" height="55" rx="5" ry="5" fill="#333333" opacity="0.2"/>
  <text x="700" y="582" font-size="20" text-anchor="middle" fill="#888888">-</text>
  <rect x="800" y="550" width="180" height="55" rx="5" ry="5" fill="#333333" opacity="0.2"/>
  <text x="890" y="582" font-size="20" text-anchor="middle" fill="#888888">-</text>
  <rect x="990" y="550" width="180" height="55" rx="5" ry="5" fill="#333333" opacity="0.2"/>
  <text x="1080" y="582" font-size="20" text-anchor="middle" fill="#888888">-</text>

  <!-- Row 8: Viewpoints -->
  <text x="10" y="647" font-size="20" fill="#ffffff">8. Viewpoints</text>
  <rect x="230" y="615" width="180" height="55" rx="5" ry="5" fill="#8B8682" opacity="1.0"/>
  <text x="320" y="647" font-size="20" text-anchor="middle" fill="#ffffff">場</text>
  <rect x="420" y="615" width="180" height="55" rx="5" ry="5" fill="#5B8DB8" opacity="1.0"/>
  <text x="510" y="647" font-size="20" text-anchor="middle" fill="#ffffff">波</text>
  <rect x="610" y="615" width="180" height="55" rx="5" ry="5" fill="#D4A857" opacity="1.0"/>
  <text x="700" y="647" font-size="20" text-anchor="middle" fill="#ffffff">縁</text>
  <rect x="800" y="615" width="180" height="55" rx="5" ry="5" fill="#C45B4D" opacity="1.0"/>
  <text x="890" y="647" font-size="20" text-anchor="middle" fill="#ffffff">渦</text>
  <rect x="990" y="615" width="180" height="55" rx="5" ry="5" fill="#5B8B6A" opacity="1.0"/>
  <text x="1080" y="647" font-size="20" text-anchor="middle" fill="#ffffff">束</text>

  <!-- Row 9: 被抑圧者の演劇 -->
  <text x="10" y="712" font-size="20" fill="#ffffff">9. 被抑圧者の演劇</text>
  <rect x="230" y="680" width="180" height="55" rx="5" ry="5" fill="#333333" opacity="0.2"/>
  <text x="320" y="712" font-size="20" text-anchor="middle" fill="#888888">-</text>
  <rect x="420" y="680" width="180" height="55" rx="5" ry="5" fill="#333333" opacity="0.2"/>
  <text x="510" y="712" font-size="20" text-anchor="middle" fill="#888888">-</text>
  <rect x="610" y="680" width="180" height="55" rx="5" ry="5" fill="#D4A857" opacity="0.7"/>
  <text x="700" y="712" font-size="20" text-anchor="middle" fill="#e0e0e0">縁</text>
  <rect x="800" y="680" width="180" height="55" rx="5" ry="5" fill="#C45B4D" opacity="0.7"/>
  <text x="890" y="712" font-size="20" text-anchor="middle" fill="#e0e0e0">渦</text>
  <rect x="990" y="680" width="180" height="55" rx="5" ry="5" fill="#333333" opacity="0.2"/>
  <text x="1080" y="712" font-size="20" text-anchor="middle" fill="#888888">-</text>

  <!-- Row 10: パフォーマンス研究 -->
  <text x="10" y="777" font-size="20" fill="#ffffff">10. パフォーマンス研究</text>
  <rect x="230" y="745" width="180" height="55" rx="5" ry="5" fill="#333333" opacity="0.2"/>
  <text x="320" y="777" font-size="20" text-anchor="middle" fill="#888888">-</text>
  <rect x="420" y="745" width="180" height="55" rx="5" ry="5" fill="#5B8DB8" opacity="0.3"/>
  <text x="510" y="777" font-size="20" text-anchor="middle" fill="#aaaaaa">波</text>
  <rect x="610" y="745" width="180" height="55" rx="5" ry="5" fill="#333333" opacity="0.2"/>
  <text x="700" y="777" font-size="20" text-anchor="middle" fill="#888888">-</text>
  <rect x="800" y="745" width="180" height="55" rx="5" ry="5" fill="#C45B4D" opacity="0.3"/>
  <text x="890" y="777" font-size="20" text-anchor="middle" fill="#aaaaaa">渦</text>
  <rect x="990" y="745" width="180" height="55" rx="5" ry="5" fill="#333333" opacity="0.2"/>
  <text x="1080" y="777" font-size="20" text-anchor="middle" fill="#888888">-</text>

  <!-- Legend -->
  <rect x="50" y="830" width="30" height="30" rx="5" ry="5" fill="#8B8682" opacity="1.0"/>
  <text x="90" y="857" font-size="18" fill="#ffffff">強い対応 (Strong)</text>
  <rect x="290" y="830" width="30" height="30" rx="5" ry="5" fill="#8B8682" opacity="0.7"/>
  <text x="330" y="857" font-size="18" fill="#e0e0e0">部分的 (Partial)</text>
  <rect x="540" y="830" width="30" height="30" rx="5" ry="5" fill="#8B8682" opacity="0.3"/>
  <text x="580" y="857" font-size="18" fill="#aaaaaa">条件付き/弱い (Conditional/Weak)</text>
</svg>