<svg viewBox="0 0 1200 880" font-family="sans-serif">
  <!-- Background -->
  <rect x="0" y="0" width="1200" height="880" fill="#1a1a2e"/>

  <!-- Title -->
  <text x="600" y="60" font-size="32" fill="#ffffff" text-anchor="middle" dominant-baseline="middle">10伝統知・技芸理論と5段階モデルの対応関係マトリクス</text>

  <!-- Stage definitions and data -->
  <!-- Stage colors -->
  <!-- 場: #8B8682 -->
  <!-- 波: #5B8DB8 -->
  <!-- 縁: #D4A857 -->
  <!-- 渦: #C45B4D -->
  <!-- 束: #5B8B6A -->

  <!-- Data for theories -->
  <!--
  伝統生態学的知識（TEK） | strong | 場 | 波 | 縁 | 渦 | 束
  正統的周辺参加（LPP） | partial | 場 | - | 縁 | 渦 | -
  一座建立 | partial | 場 | - | 縁 | 渦 | -
  守破離 | partial | - | 波 | 縁 | 渦 | -
  杜氏の知の変換 | partial | 場 | 波 | 縁 | 渦 | 束
  口承伝統 | partial | 場 | - | 縁 | - | 束
  メーティス | conditional | 場 | - | - | - | 束
  職人のわざ | partial | - | 波 | 縁 | - | -
  里山ランドスケープ | strong | 場 | 波 | 縁 | 渦 | 束
  民俗芸能 | conditional | 場 | - | - | 渦 | 束
  -->

  <!-- Layout Constants -->
  <!-- Title Y: 60 -->
  <!-- Header Y: 100 -->
  <!-- Matrix Start Y: 160 -->
  <!-- Row Label Area Width: 220 -->
  <!-- Column Start X: 230 -->
  <!-- Row Pitch: 65px (55px height + 10px gap) -->
  <!-- Column Pitch: 190px (180px width + 10px gap) -->

  <!-- Column Headers -->
  <g>
    <rect x="230" y="100" width="180" height="50" fill="#8B8682" rx="5" ry="5"/>
    <text x="320" y="125" font-size="20" fill="#ffffff" text-anchor="middle" dominant-baseline="middle">場</text>

    <rect x="420" y="100" width="180" height="50" fill="#5B8DB8" rx="5" ry="5"/>
    <text x="510" y="125" font-size="20" fill="#ffffff" text-anchor="middle" dominant-baseline="middle">波</text>

    <rect x="610" y="100" width="180" height="50" fill="#D4A857" rx="5" ry="5"/>
    <text x="700" y="125" font-size="20" fill="#ffffff" text-anchor="middle" dominant-baseline="middle">縁</text>

    <rect x="800" y="100" width="180" height="50" fill="#C45B4D" rx="5" ry="5"/>
    <text x="890" y="125" font-size="20" fill="#ffffff" text-anchor="middle" dominant-baseline="middle">渦</text>

    <rect x="990" y="100" width="180" height="50" fill="#5B8B6A" rx="5" ry="5"/>
    <text x="1080" y="125" font-size="20" fill="#ffffff" text-anchor="middle" dominant-baseline="middle">束</text>
  </g>

  <!-- Matrix Rows -->
  <!-- Row 1: 伝統生態学的知識（TEK） -->
  <text x="10" y="187.5" font-size="18" fill="#ffffff" text-anchor="start" dominant-baseline="middle">1. 伝統生態学的知識（TEK）</text>
  <rect x="230" y="160" width="180" height="55" fill="#8B8682" opacity="1" rx="5" ry="5"/>
  <text x="320" y="187.5" font-size="18" fill="#ffffff" text-anchor="middle" dominant-baseline="middle">場</text>
  <rect x="420" y="160" width="180" height="55" fill="#5B8DB8" opacity="1" rx="5" ry="5"/>
  <text x="510" y="187.5" font-size="18" fill="#ffffff" text-anchor="middle" dominant-baseline="middle">波</text>
  <rect x="610" y="160" width="180" height="55" fill="#D4A857" opacity="1" rx="5" ry="5"/>
  <text x="700" y="187.5" font-size="18" fill="#ffffff" text-anchor="middle" dominant-baseline="middle">縁</text>
  <rect x="800" y="160" width="180" height="55" fill="#C45B4D" opacity="1" rx="5" ry="5"/>
  <text x="890" y="187.5" font-size="18" fill="#ffffff" text-anchor="middle" dominant-baseline="middle">渦</text>
  <rect x="990" y="160" width="180" height="55" fill="#5B8B6A" opacity="1" rx="5" ry="5"/>
  <text x="1080" y="187.5" font-size="18" fill="#ffffff" text-anchor="middle" dominant-baseline="middle">束</text>

  <!-- Row 2: 正統的周辺参加（LPP） -->
  <text x="10" y="252.5" font-size="18" fill="#ffffff" text-anchor="start" dominant-baseline="middle">2. 正統的周辺参加（LPP）</text>
  <rect x="230" y="225" width="180" height="55" fill="#8B8682" opacity="0.7" rx="5" ry="5"/>
  <text x="320" y="252.5" font-size="18" fill="#e0e0e0" text-anchor="middle" dominant-baseline="middle">場</text>
  <rect x="420" y="225" width="180" height="55" fill="#5B8DB8" opacity="0.2" rx="5" ry="5"/>
  <text x="510" y="252.5" font-size="18" fill="#888888" text-anchor="middle" dominant-baseline="middle">-</text>
  <rect x="610" y="225" width="180" height="55" fill="#D4A857" opacity="0.7" rx="5" ry="5"/>
  <text x="700" y="252.5" font-size="18" fill="#e0e0e0" text-anchor="middle" dominant-baseline="middle">縁</text>
  <rect x="800" y="225" width="180" height="55" fill="#C45B4D" opacity="0.7" rx="5" ry="5"/>
  <text x="890" y="252.5" font-size="18" fill="#e0e0e0" text-anchor="middle" dominant-baseline="middle">渦</text>
  <rect x="990" y="225" width="180" height="55" fill="#5B8B6A" opacity="0.2" rx="5" ry="5"/>
  <text x="1080" y="252.5" font-size="18" fill="#888888" text-anchor="middle" dominant-baseline="middle">-</text>

  <!-- Row 3: 一座建立 -->
  <text x="10" y="317.5" font-size="18" fill="#ffffff" text-anchor="start" dominant-baseline="middle">3. 一座建立</text>
  <rect x="230" y="290" width="180" height="55" fill="#8B8682" opacity="0.7" rx="5" ry="5"/>
  <text x="320" y="317.5" font-size="18" fill="#e0e0e0" text-anchor="middle" dominant-baseline="middle">場</text>
  <rect x="420" y="290" width="180" height="55" fill="#5B8DB8" opacity="0.2" rx="5" ry="5"/>
  <text x="510" y="317.5" font-size="18" fill="#888888" text-anchor="middle" dominant-baseline="middle">-</text>
  <rect x="610" y="290" width="180" height="55" fill="#D4A857" opacity="0.7" rx="5" ry="5"/>
  <text x="700" y="317.5" font-size="18" fill="#e0e0e0" text-anchor="middle" dominant-baseline="middle">縁</text>
  <rect x="800" y="290" width="180" height="55" fill="#C45B4D" opacity="0.7" rx="5" ry="5"/>
  <text x="890" y="317.5" font-size="18" fill="#e0e0e0" text-anchor="middle" dominant-baseline="middle">渦</text>
  <rect x="990" y="290" width="180" height="55" fill="#5B8B6A" opacity="0.2" rx="5" ry="5"/>
  <text x="1080" y="317.5" font-size="18" fill="#888888" text-anchor="middle" dominant-baseline="middle">-</text>

  <!-- Row 4: 守破離 -->
  <text x="10" y="382.5" font-size="18" fill="#ffffff" text-anchor="start" dominant-baseline="middle">4. 守破離</text>
  <rect x="230" y="355" width="180" height="55" fill="#8B8682" opacity="0.2" rx="5" ry="5"/>
  <text x="320" y="382.5" font-size="18" fill="#888888" text-anchor="middle" dominant-baseline="middle">-</text>
  <rect x="420" y="355" width="180" height="55" fill="#5B8DB8" opacity="0.7" rx="5" ry="5"/>
  <text x="510" y="382.5" font-size="18" fill="#e0e0e0" text-anchor="middle" dominant-baseline="middle">波</text>
  <rect x="610" y="355" width="180" height="55" fill="#D4A857" opacity="0.7" rx="5" ry="5"/>
  <text x="700" y="382.5" font-size="18" fill="#e0e0e0" text-anchor="middle" dominant-baseline="middle">縁</text>
  <rect x="800" y="355" width="180" height="55" fill="#C45B4D" opacity="0.7" rx="5" ry="5"/>
  <text x="890" y="382.5" font-size="18" fill="#e0e0e0" text-anchor="middle" dominant-baseline="middle">渦</text>
  <rect x="990" y="355" width="180" height="55" fill="#5B8B6A" opacity="0.2" rx="5" ry="5"/>
  <text x="1080" y="382.5" font-size="18" fill="#888888" text-anchor="middle" dominant-baseline="middle">-</text>

  <!-- Row 5: 杜氏の知の変換 -->
  <text x="10" y="447.5" font-size="18" fill="#ffffff" text-anchor="start" dominant-baseline="middle">5. 杜氏の知の変換</text>
  <rect x="230" y="420" width="180" height="55" fill="#8B8682" opacity="0.7" rx="5" ry="5"/>
  <text x="320" y="447.5" font-size="18" fill="#e0e0e0" text-anchor="middle" dominant-baseline="middle">場</text>
  <rect x="420" y="420" width="180" height="55" fill="#5B8DB8" opacity="0.7" rx="5" ry="5"/>
  <text x="510" y="447.5" font-size="18" fill="#e0e0e0" text-anchor="middle" dominant-baseline="middle">波</text>
  <rect x="610" y="420" width="180" height="55" fill="#D4A857" opacity="0.7" rx="5" ry="5"/>
  <text x="700" y="447.5" font-size="18" fill="#e0e0e0" text-anchor="middle" dominant-baseline="middle">縁</text>
  <rect x="800" y="420" width="180" height="55" fill="#C45B4D" opacity="0.7" rx="5" ry="5"/>
  <text x="890" y="447.5" font-size="18" fill="#e0e0e0" text-anchor="middle" dominant-baseline="middle">渦</text>
  <rect x="990" y="420" width="180" height="55" fill="#5B8B6A" opacity="0.7" rx="5" ry="5"/>
  <text x="1080" y="447.5" font-size="18" fill="#e0e0e0" text-anchor="middle" dominant-baseline="middle">束</text>

  <!-- Row 6: 口承伝統 -->
  <text x="10" y="512.5" font-size="18" fill="#ffffff" text-anchor="start" dominant-baseline="middle">6. 口承伝統</text>
  <rect x="230" y="485" width="180" height="55" fill="#8B8682" opacity="0.7" rx="5" ry="5"/>
  <text x="320" y="512.5" font-size="18" fill="#e0e0e0" text-anchor="middle" dominant-baseline="middle">場</text>
  <rect x="420" y="485" width="180" height="55" fill="#5B8DB8" opacity="0.2" rx="5" ry="5"/>
  <text x="510" y="512.5" font-size="18" fill="#888888" text-anchor="middle" dominant-baseline="middle">-</text>
  <rect x="610" y="485" width="180" height="55" fill="#D4A857" opacity="0.7" rx="5" ry="5"/>
  <text x="700" y="512.5" font-size="18" fill="#e0e0e0" text-anchor="middle" dominant-baseline="middle">縁</text>
  <rect x="800" y="485" width="180" height="55" fill="#C45B4D" opacity="0.2" rx="5" ry="5"/>
  <text x="890" y="512.5" font-size="18" fill="#888888" text-anchor="middle" dominant-baseline="middle">-</text>
  <rect x="990" y="485" width="180" height="55" fill="#5B8B6A" opacity="0.7" rx="5" ry="5"/>
  <text x="1080" y="512.5" font-size="18" fill="#e0e0e0" text-anchor="middle" dominant-baseline="middle">束</text>

  <!-- Row 7: メーティス -->
  <text x="10" y="577.5" font-size="18" fill="#ffffff" text-anchor="start" dominant-baseline="middle">7. メーティス</text>
  <rect x="230" y="550" width="180" height="55" fill="#8B8682" opacity="0.3" rx="5" ry="5"/>
  <text x="320" y="577.5" font-size="18" fill="#aaaaaa" text-anchor="middle" dominant-baseline="middle">場</text>
  <rect x="420" y="550" width="180" height="55" fill="#5B8DB8" opacity="0.2" rx="5" ry="5"/>
  <text x="510" y="577.5" font-size="18" fill="#888888" text-anchor="middle" dominant-baseline="middle">-</text>
  <rect x="610" y="550" width="180" height="55" fill="#D4A857" opacity="0.2" rx="5" ry="5"/>
  <text x="700" y="577.5" font-size="18" fill="#888888" text-anchor="middle" dominant-baseline="middle">-</text>
  <rect x="800" y="550" width="180" height="55" fill="#C45B4D" opacity="0.2" rx="5" ry="5"/>
  <text x="890" y="577.5" font-size="18" fill="#888888" text-anchor="middle" dominant-baseline="middle">-</text>
  <rect x="990" y="550" width="180" height="55" fill="#5B8B6A" opacity="0.3" rx="5" ry="5"/>
  <text x="1080" y="577.5" font-size="18" fill="#aaaaaa" text-anchor="middle" dominant-baseline="middle">束</text>

  <!-- Row 8: 職人のわざ -->
  <text x="10" y="642.5" font-size="18" fill="#ffffff" text-anchor="start" dominant-baseline="middle">8. 職人のわざ</text>
  <rect x="230" y="615" width="180" height="55" fill="#8B8682" opacity="0.2" rx="5" ry="5"/>
  <text x="320" y="642.5" font-size="18" fill="#888888" text-anchor="middle" dominant-baseline="middle">-</text>
  <rect x="420" y="615" width="180" height="55" fill="#5B8DB8" opacity="0.7" rx="5" ry="5"/>
  <text x="510" y="642.5" font-size="18" fill="#e0e0e0" text-anchor="middle" dominant-baseline="middle">波</text>
  <rect x="610" y="615" width="180" height="55" fill="#D4A857" opacity="0.7" rx="5" ry="5"/>
  <text x="700" y="642.5" font-size="18" fill="#e0e0e0" text-anchor="middle" dominant-baseline="middle">縁</text>
  <rect x="800" y="615" width="180" height="55" fill="#C45B4D" opacity="0.2" rx="5" ry="5"/>
  <text x="890" y="642.5" font-size="18" fill="#888888" text-anchor="middle" dominant-baseline="middle">-</text>
  <rect x="990" y="615" width="180" height="55" fill="#5B8B6A" opacity="0.2" rx="5" ry="5"/>
  <text x="1080" y="642.5" font-size="18" fill="#888888" text-anchor="middle" dominant-baseline="middle">-</text>

  <!-- Row 9: 里山ランドスケープ -->
  <text x="10" y="707.5" font-size="18" fill="#ffffff" text-anchor="start" dominant-baseline="middle">9. 里山ランドスケープ</text>
  <rect x="230" y="680" width="180" height="55" fill="#8B8682" opacity="1" rx="5" ry="5"/>
  <text x="320" y="707.5" font-size="18" fill="#ffffff" text-anchor="middle" dominant-baseline="middle">場</text>
  <rect x="420" y="680" width="180" height="55" fill="#5B8DB8" opacity="1" rx="5" ry="5"/>
  <text x="510" y="707.5" font-size="18" fill="#ffffff" text-anchor="middle" dominant-baseline="middle">波</text>
  <rect x="610" y="680" width="180" height="55" fill="#D4A857" opacity="1" rx="5" ry="5"/>
  <text x="700" y="707.5" font-size="18" fill="#ffffff" text-anchor="middle" dominant-baseline="middle">縁</text>
  <rect x="800" y="680" width="180" height="55" fill="#C45B4D" opacity="1" rx="5" ry="5"/>
  <text x="890" y="707.5" font-size="18" fill="#ffffff" text-anchor="middle" dominant-baseline="middle">渦</text>
  <rect x="990" y="680" width="180" height="55" fill="#5B8B6A" opacity="1" rx="5" ry="5"/>
  <text x="1080" y="707.5" font-size="18" fill="#ffffff" text-anchor="middle" dominant-baseline="middle">束</text>

  <!-- Row 10: 民俗芸能 -->
  <text x="10" y="772.5" font-size="18" fill="#ffffff" text-anchor="start" dominant-baseline="middle">10. 民俗芸能</text>
  <rect x="230" y="745" width="180" height="55" fill="#8B8682" opacity="0.3" rx="5" ry="5"/>
  <text x="320" y="772.5" font-size="18" fill="#aaaaaa" text-anchor="middle" dominant-baseline="middle">場</text>
  <rect x="420" y="745" width="180" height="55" fill="#5B8DB8" opacity="0.2" rx="5" ry="5"/>
  <text x="510" y="772.5" font-size="18" fill="#888888" text-anchor="middle" dominant-baseline="middle">-</text>
  <rect x="610" y="745" width="180" height="55" fill="#D4A857" opacity="0.2" rx="5" ry="5"/>
  <text x="700" y="772.5" font-size="18" fill="#888888" text-anchor="middle" dominant-baseline="middle">-</text>
  <rect x="800" y="745" width="180" height="55" fill="#C45B4D" opacity="0.3" rx="5" ry="5"/>
  <text x="890" y="772.5" font-size="18" fill="#aaaaaa" text-anchor="middle" dominant-baseline="middle">渦</text>
  <rect x="990" y="745" width="180" height="55" fill="#5B8B6A" opacity="0.3" rx="5" ry="5"/>
  <text x="1080" y="772.5" font-size="18" fill="#aaaaaa" text-anchor="middle" dominant-baseline="middle">束</text>

  <!-- Legend -->
  <g>
    <text x="50" y="830" font-size="20" fill="#ffffff" text-anchor="start" dominant-baseline="middle">凡例:</text>

    <!-- Strong -->
    <rect x="120" y="815" width="30" height="30" fill="#8B8682" opacity="1" rx="5" ry="5"/>
    <text x="160" y="830" font-size="18" fill="#ffffff" text-anchor="start" dominant-baseline="middle">強い対応 (Strong)</text>

    <!-- Partial -->
    <rect x="350" y="815" width="30" height="30" fill="#8B8682" opacity="0.7" rx="5" ry="5"/>
    <text x="390" y="830" font-size="18" fill="#e0e0e0" text-anchor="start" dominant-baseline="middle">部分的 (Partial)</text>

    <!-- Conditional/Weak -->
    <rect x="580" y="815" width="30" height="30" fill="#8B8682" opacity="0.3" rx="5" ry="5"/>
    <text x="620" y="830" font-size="18" fill="#aaaaaa" text-anchor="start" dominant-baseline="middle">条件付き/弱い (Conditional/Weak)</text>
  </g>
</svg>